Kaveri-Italic.ufo
<glyph name="exclam" format="2">
  <advance width="254"/>
  <unicode hex="0021"/>
  <outline>
    <contour>
      <point x="254" y="322" type="curve"/>
      <point x="298" y="527" type="line"/>
      <point x="180" y="527" type="line"/>
      <point x="136" y="322" type="line"/>
      <point x="152" y="301"/>
      <point x="158" y="284"/>
      <point x="155" y="270" type="curve" smooth="yes"/>
      <point x="129" y="146" type="line"/>
      <point x="187" y="146" type="line"/>
      <point x="212" y="264" type="line" smooth="yes"/>
      <point x="215" y="279"/>
      <point x="229" y="298"/>
    </contour>
    <contour>
      <point x="98" y="0" type="curve" smooth="yes"/>
      <point x="162" y="0" type="line" smooth="yes"/>
      <point x="177" y="0"/>
      <point x="188" y="11"/>
      <point x="191" y="25" type="curve" smooth="yes"/>
      <point x="202" y="74" type="line"/>
      <point x="206" y="97"/>
      <point x="180" y="98"/>
      <point x="177" y="98" type="curve" smooth="yes"/>
      <point x="119" y="98" type="line" smooth="yes"/>
      <point x="97" y="98"/>
      <point x="86" y="85"/>
      <point x="84" y="74" type="curve" smooth="yes"/>
      <point x="73" y="25" type="line" smooth="yes"/>
      <point x="68" y="5"/>
      <point x="97" y="0"/>
    </contour>
  </outline>
</glyph>
<glyph name="numbersign" format="2">
  <advance width="507"/>
  <unicode hex="0023"/>
  <note>
GF Latin Plus glyph
</note>
  <outline>
    <contour>
      <point x="97" y="0" type="line"/>
      <point x="156" y="0" type="line"/>
      <point x="207" y="153" type="line"/>
      <point x="299" y="153" type="line"/>
      <point x="248" y="0" type="line"/>
      <point x="307" y="0" type="line"/>
      <point x="358" y="153" type="line"/>
      <point x="486" y="153" type="line"/>
      <point x="504" y="212" type="line"/>
      <point x="381" y="212" type="line"/>
      <point x="413" y="309" type="line"/>
      <point x="536" y="309" type="line"/>
      <point x="554" y="368" type="line"/>
      <point x="431" y="368" type="line"/>
      <point x="482" y="522" type="line"/>
      <point x="424" y="522" type="line"/>
      <point x="372" y="368" type="line"/>
      <point x="281" y="368" type="line"/>
      <point x="333" y="522" type="line"/>
      <point x="274" y="522" type="line"/>
      <point x="222" y="368" type="line"/>
      <point x="105" y="368" type="line"/>
      <point x="85" y="309" type="line"/>
      <point x="201" y="309" type="line"/>
      <point x="169" y="212" type="line"/>
      <point x="55" y="212" type="line"/>
      <point x="36" y="153" type="line"/>
      <point x="148" y="153" type="line"/>
    </contour>
    <contour>
      <point x="228" y="212" type="line"/>
      <point x="260" y="309" type="line"/>
      <point x="354" y="309" type="line"/>
      <point x="322" y="212" type="line"/>
    </contour>
  </outline>
</glyph>
<glyph name="dollar" format="2">
  <advance width="435"/>
  <unicode hex="0024"/>
  <note>
GF Latin Plus glyph
</note>
  <outline>
    <component base="S"/>
    <contour>
      <point x="275" y="516" type="line"/>
      <point x="324" y="544" type="line"/>
      <point x="326" y="588" type="line"/>
      <point x="277" y="561" type="line"/>
    </contour>
    <contour>
      <point x="178" y="-63" type="line"/>
      <point x="228" y="-63" type="line"/>
      <point x="239" y="5" type="line"/>
      <point x="189" y="5" type="line"/>
    </contour>
  </outline>
</glyph>
<glyph name="ampersand" format="2">
  <advance width="492"/>
  <unicode hex="0026"/>
  <note>
GF Latin Plus glyph
</note>
  <outline>
    <contour>
      <point x="163" y="-4" type="curve" smooth="yes"/>
      <point x="212" y="-4"/>
      <point x="253" y="8"/>
      <point x="300" y="45" type="curve" smooth="yes"/>
      <point x="330" y="68" type="line"/>
      <point x="372" y="0" type="line"/>
      <point x="464" y="0" type="line"/>
      <point x="397" y="112" type="line"/>
      <point x="448" y="155" type="line"/>
      <point x="504" y="231" type="line"/>
      <point x="478" y="270" type="line"/>
      <point x="359" y="175" type="line"/>
      <point x="269" y="331" type="line" smooth="yes"/>
      <point x="253" y="360"/>
      <point x="246" y="380"/>
      <point x="246" y="398" type="curve" smooth="yes"/>
      <point x="246" y="431"/>
      <point x="269" y="447"/>
      <point x="311" y="447" type="curve" smooth="yes"/>
      <point x="414" y="447" type="line"/>
      <point x="424" y="511" type="line"/>
      <point x="398" y="517"/>
      <point x="357" y="525"/>
      <point x="307" y="525" type="curve" smooth="yes"/>
      <point x="207" y="525"/>
      <point x="158" y="475"/>
      <point x="158" y="406" type="curve" smooth="yes"/>
      <point x="158" y="384"/>
      <point x="162" y="357"/>
      <point x="180" y="324" type="curve" smooth="yes"/>
      <point x="188" y="308" type="line"/>
      <point x="137" y="279" type="line" smooth="yes"/>
      <point x="70" y="239"/>
      <point x="41" y="192"/>
      <point x="41" y="115" type="curve" smooth="yes"/>
      <point x="41" y="42"/>
      <point x="90" y="-4"/>
    </contour>
    <contour>
      <point x="189" y="77" type="curve" smooth="yes"/>
      <point x="153" y="77"/>
      <point x="131" y="100"/>
      <point x="131" y="136" type="curve" smooth="yes"/>
      <point x="131" y="176"/>
      <point x="143" y="204"/>
      <point x="192" y="231" type="curve" smooth="yes"/>
      <point x="221" y="247" type="line"/>
      <point x="292" y="127" type="line"/>
      <point x="270" y="108" type="line" smooth="yes"/>
      <point x="239" y="83"/>
      <point x="215" y="77"/>
    </contour>
  </outline>
</glyph>
<glyph name="quotesingle" format="2">
  <advance width="140"/>
  <unicode hex="0027"/>
  <note>
GF Latin Plus glyph
</note>
  <outline>
    <contour>
      <point x="89" y="357" type="line"/>
      <point x="161" y="357" type="line"/>
      <point x="188" y="488" type="line"/>
      <point x="195" y="536" type="line"/>
      <point x="110" y="536" type="line"/>
      <point x="103" y="488" type="line"/>
    </contour>
  </outline>
</glyph>
<glyph name="parenright" format="2">
  <advance width="265"/>
  <unicode hex="0029"/>
  <note>
GF Latin Plus glyph
</note>
  <outline>
    <contour>
      <point x="-11" y="-150" type="curve"/>
      <point x="68" y="-150" type="line"/>
      <point x="178" y="-30"/>
      <point x="264" y="167"/>
      <point x="264" y="345" type="curve" smooth="yes"/>
      <point x="264" y="458"/>
      <point x="235" y="541"/>
      <point x="189" y="614" type="curve"/>
      <point x="109" y="614" type="line"/>
      <point x="153" y="522"/>
      <point x="175" y="439"/>
      <point x="175" y="340" type="curve" smooth="yes"/>
      <point x="175" y="171"/>
      <point x="96" y="-16"/>
    </contour>
  </outline>
</glyph>
<glyph name="asterisk" format="2">
  <advance width="317"/>
  <unicode hex="002A"/>
  <note>
GF Latin Plus glyph
</note>
  <outline>
    <contour>
      <point x="260" y="366" type="line"/>
      <point x="344" y="433" type="line"/>
      <point x="329" y="460" type="line"/>
      <point x="236" y="402" type="line"/>
    </contour>
    <contour>
      <point x="271" y="289" type="line"/>
      <point x="295" y="316" type="line"/>
      <point x="222" y="378" type="line"/>
      <point x="190" y="338" type="line"/>
    </contour>
    <contour>
      <point x="145" y="285" type="line"/>
      <point x="195" y="382" type="line"/>
      <point x="151" y="393" type="line"/>
      <point x="115" y="295" type="line"/>
    </contour>
    <contour>
      <point x="90" y="411" type="line"/>
      <point x="191" y="408" type="line"/>
      <point x="196" y="454" type="line"/>
      <point x="95" y="445" type="line"/>
    </contour>
    <contour>
      <point x="219" y="419" type="line"/>
      <point x="266" y="437" type="line"/>
      <point x="235" y="526" type="line"/>
      <point x="201" y="516" type="line"/>
    </contour>
  </outline>
</glyph>
<glyph name="plus" format="2">
  <advance width="435"/>
  <unicode hex="002B"/>
  <note>
GF Latin Plus glyph
</note>
  <outline>
    <contour>
      <point x="196" y="94" type="line"/>
      <point x="268" y="94" type="line"/>
      <point x="318" y="414" type="line"/>
      <point x="246" y="414" type="line"/>
    </contour>
    <contour>
      <point x="91" y="218" type="line"/>
      <point x="411" y="218" type="line"/>
      <point x="423" y="290" type="line"/>
      <point x="103" y="290" type="line"/>
    </contour>
  </outline>
</glyph>
<glyph name="hyphen" format="2">
  <advance width="245"/>
  <unicode hex="002D"/>
  <note>
GF Latin Plus glyph
</note>
  <outline>
    <contour>
      <point x="42" y="171" type="line"/>
      <point x="258" y="171" type="line"/>
      <point x="269" y="242" type="line"/>
      <point x="53" y="242" type="line"/>
    </contour>
  </outline>
</glyph>
<glyph name="slash" format="2">
  <advance width="527"/>
  <unicode hex="002F"/>
  <outline>
    <contour>
      <point x="575" y="537" type="line"/>
      <point x="510" y="537" type="line"/>
      <point x="60" y="-49" type="line"/>
      <point x="119" y="-49" type="line"/>
    </contour>
  </outline>
</glyph>
<glyph name="one" format="2">
  <advance width="539"/>
  <unicode hex="0031"/>
  <outline>
    <contour>
      <point x="473" y="488" type="curve" smooth="yes"/>
      <point x="389" y="488" type="line"/>
      <point x="374" y="420" type="line"/>
      <point x="443" y="420" type="line" smooth="yes"/>
      <point x="449" y="420"/>
      <point x="453" y="417"/>
      <point x="455" y="411" type="curve" smooth="yes"/>
      <point x="455" y="410"/>
      <point x="456" y="409"/>
      <point x="457" y="406" type="curve"/>
      <point x="457" y="400" type="line" smooth="yes"/>
      <point x="457" y="398"/>
      <point x="456" y="394"/>
      <point x="455" y="387" type="curve" smooth="yes"/>
      <point x="387" y="68" type="line"/>
      <point x="299" y="68" type="line"/>
      <point x="285" y="0" type="line"/>
      <point x="539" y="0" type="line"/>
      <point x="553" y="68" type="line"/>
      <point x="465" y="68" type="line"/>
      <point x="537" y="406" type="line" smooth="yes"/>
      <point x="538" y="414"/>
      <point x="539" y="420"/>
      <point x="539" y="424" type="curve" smooth="yes"/>
      <point x="539" y="462"/>
      <point x="511" y="488"/>
    </contour>
  </outline>
</glyph>
<glyph name="two" format="2">
  <advance width="420"/>
  <unicode hex="0032"/>
  <note>
GF Latin Plus glyph
</note>
  <outline>
    <contour>
      <point x="34" y="0" type="line"/>
      <point x="391" y="0" type="line"/>
      <point x="404" y="80" type="line"/>
      <point x="169" y="80" type="line"/>
      <point x="318" y="210" type="line" smooth="yes"/>
      <point x="399" y="282"/>
      <point x="431" y="351"/>
      <point x="431" y="418" type="curve" smooth="yes"/>
      <point x="431" y="483"/>
      <point x="394" y="531"/>
      <point x="289" y="531" type="curve" smooth="yes"/>
      <point x="228" y="531"/>
      <point x="174" y="523"/>
      <point x="131" y="517" type="curve"/>
      <point x="120" y="448" type="line"/>
      <point x="269" y="448" type="line" smooth="yes"/>
      <point x="324" y="448"/>
      <point x="342" y="427"/>
      <point x="342" y="393" type="curve" smooth="yes"/>
      <point x="342" y="355"/>
      <point x="315" y="305"/>
      <point x="251" y="250" type="curve" smooth="yes"/>
      <point x="45" y="71" type="line"/>
    </contour>
  </outline>
</glyph>
<glyph name="three" format="2">
  <advance width="415"/>
  <unicode hex="0033"/>
  <note>
GF Latin Plus glyph
</note>
  <outline>
    <contour>
      <point x="225" y="-4" type="curve" smooth="yes"/>
      <point x="319" y="-4"/>
      <point x="382" y="40"/>
      <point x="395" y="123" type="curve" smooth="yes"/>
      <point x="399" y="154"/>
      <point x="402" y="170"/>
      <point x="402" y="179" type="curve" smooth="yes"/>
      <point x="402" y="229"/>
      <point x="369" y="257"/>
      <point x="340" y="265" type="curve"/>
      <point x="376" y="275"/>
      <point x="415" y="303"/>
      <point x="425" y="362" type="curve" smooth="yes"/>
      <point x="433" y="413"/>
      <point x="433" y="422"/>
      <point x="433" y="430" type="curve" smooth="yes"/>
      <point x="433" y="502"/>
      <point x="387" y="531"/>
      <point x="301" y="531" type="curve" smooth="yes"/>
      <point x="233" y="531"/>
      <point x="173" y="525"/>
      <point x="124" y="518" type="curve"/>
      <point x="113" y="452" type="line"/>
      <point x="261" y="452" type="line" smooth="yes"/>
      <point x="310" y="452"/>
      <point x="341" y="436"/>
      <point x="341" y="397" type="curve" smooth="yes"/>
      <point x="341" y="393"/>
      <point x="341" y="389"/>
      <point x="337" y="360" type="curve" smooth="yes"/>
      <point x="330" y="322"/>
      <point x="299" y="305"/>
      <point x="253" y="303" type="curve" smooth="yes"/>
      <point x="124" y="296" type="line"/>
      <point x="114" y="234" type="line"/>
      <point x="235" y="229" type="line" smooth="yes"/>
      <point x="277" y="227"/>
      <point x="314" y="211"/>
      <point x="314" y="174" type="curve" smooth="yes"/>
      <point x="314" y="170"/>
      <point x="312" y="159"/>
      <point x="308" y="138" type="curve" smooth="yes"/>
      <point x="299" y="88"/>
      <point x="264" y="74"/>
      <point x="205" y="74" type="curve" smooth="yes"/>
      <point x="40" y="74" type="line"/>
      <point x="29" y="8" type="line"/>
      <point x="81" y="0"/>
      <point x="150" y="-4"/>
    </contour>
  </outline>
</glyph>
<glyph name="four" format="2">
  <advance width="539"/>
  <unicode hex="0034"/>
  <outline>
    <contour>
      <point x="307" y="195" type="curve"/>
      <point x="326" y="240" type="line"/>
      <point x="467" y="488" type="line"/>
      <point x="389" y="488" type="line"/>
      <point x="255" y="244" type="line"/>
      <point x="238" y="216"/>
      <point x="232" y="203"/>
      <point x="225" y="176" type="curve" smooth="yes"/>
      <point x="218" y="144"/>
      <point x="247" y="117"/>
      <point x="287" y="117" type="curve" smooth="yes"/>
      <point x="418" y="117" type="line"/>
      <point x="393" y="0" type="line"/>
      <point x="471" y="0" type="line"/>
      <point x="496" y="117" type="line"/>
      <point x="564" y="117" type="line"/>
      <point x="579" y="186" type="line"/>
      <point x="511" y="186" type="line"/>
      <point x="575" y="488" type="line"/>
      <point x="497" y="488" type="line"/>
      <point x="433" y="186" type="line"/>
      <point x="311" y="186" type="line"/>
      <point x="308" y="188"/>
      <point x="307" y="191"/>
    </contour>
  </outline>
</glyph>
<glyph name="five" format="2">
  <advance width="439"/>
  <unicode hex="0035"/>
  <note>
GF Latin Plus glyph
</note>
  <outline>
    <contour>
      <point x="229" y="-3" type="curve" smooth="yes"/>
      <point x="338" y="-3"/>
      <point x="408" y="36"/>
      <point x="422" y="126" type="curve" smooth="yes"/>
      <point x="435" y="204" type="line" smooth="yes"/>
      <point x="436" y="214"/>
      <point x="437" y="223"/>
      <point x="437" y="232" type="curve" smooth="yes"/>
      <point x="437" y="289"/>
      <point x="402" y="329"/>
      <point x="330" y="329" type="curve" smooth="yes"/>
      <point x="271" y="329" type="line" smooth="yes"/>
      <point x="238" y="329"/>
      <point x="213" y="317"/>
      <point x="198" y="301" type="curve"/>
      <point x="228" y="447" type="line"/>
      <point x="454" y="447" type="line"/>
      <point x="467" y="527" type="line"/>
      <point x="156" y="527" type="line"/>
      <point x="91" y="208" type="line"/>
      <point x="175" y="208" type="line"/>
      <point x="186" y="240"/>
      <point x="206" y="254"/>
      <point x="241" y="254" type="curve" smooth="yes"/>
      <point x="288" y="254" type="line" smooth="yes"/>
      <point x="328" y="254"/>
      <point x="346" y="236"/>
      <point x="346" y="206" type="curve" smooth="yes"/>
      <point x="346" y="201"/>
      <point x="345" y="195"/>
      <point x="344" y="189" type="curve" smooth="yes"/>
      <point x="337" y="145" type="line" smooth="yes"/>
      <point x="331" y="106"/>
      <point x="301" y="75"/>
      <point x="245" y="75" type="curve" smooth="yes"/>
      <point x="69" y="75" type="line"/>
      <point x="58" y="6" type="line"/>
      <point x="109" y="1"/>
      <point x="172" y="-3"/>
    </contour>
  </outline>
</glyph>
<glyph name="six" format="2">
  <advance width="437"/>
  <unicode hex="0036"/>
  <note>
GF Latin Plus glyph
</note>
  <outline>
    <contour>
      <point x="194" y="-2" type="curve" smooth="yes"/>
      <point x="272" y="-2" type="line" smooth="yes"/>
      <point x="346" y="-2"/>
      <point x="406" y="30"/>
      <point x="419" y="118" type="curve" smooth="yes"/>
      <point x="431" y="193" type="line" smooth="yes"/>
      <point x="433" y="203"/>
      <point x="434" y="213"/>
      <point x="434" y="222" type="curve" smooth="yes"/>
      <point x="434" y="281"/>
      <point x="394" y="310"/>
      <point x="307" y="310" type="curve" smooth="yes"/>
      <point x="262" y="310"/>
      <point x="215" y="308"/>
      <point x="177" y="300" type="curve"/>
      <point x="193" y="401"/>
      <point x="242" y="452"/>
      <point x="314" y="452" type="curve" smooth="yes"/>
      <point x="440" y="452" type="line"/>
      <point x="451" y="521" type="line"/>
      <point x="415" y="528"/>
      <point x="365" y="531"/>
      <point x="320" y="531" type="curve" smooth="yes"/>
      <point x="140" y="531"/>
      <point x="72" y="361"/>
      <point x="72" y="148" type="curve" smooth="yes"/>
      <point x="72" y="29"/>
      <point x="117" y="-2"/>
    </contour>
    <contour>
      <point x="224" y="76" type="line" smooth="yes"/>
      <point x="182" y="76"/>
      <point x="159" y="95"/>
      <point x="159" y="158" type="curve" smooth="yes"/>
      <point x="159" y="179"/>
      <point x="162" y="204"/>
      <point x="167" y="235" type="curve"/>
      <point x="271" y="235" type="line" smooth="yes"/>
      <point x="317" y="235"/>
      <point x="342" y="227"/>
      <point x="342" y="194" type="curve" smooth="yes"/>
      <point x="342" y="188"/>
      <point x="341" y="183"/>
      <point x="340" y="177" type="curve" smooth="yes"/>
      <point x="334" y="134" type="line" smooth="yes"/>
      <point x="326" y="90"/>
      <point x="301" y="76"/>
      <point x="266" y="76" type="curve" smooth="yes"/>
    </contour>
  </outline>
</glyph>
<glyph name="seven" format="2">
  <advance width="393"/>
  <unicode hex="0037"/>
  <note>
GF Latin Plus glyph
</note>
  <outline>
    <contour>
      <point x="90" y="0" type="line"/>
      <point x="193" y="0" type="line"/>
      <point x="451" y="487" type="line"/>
      <point x="433" y="527" type="line"/>
      <point x="105" y="527" type="line"/>
      <point x="91" y="438" type="line"/>
      <point x="330" y="438" type="line"/>
    </contour>
  </outline>
</glyph>
<glyph name="nine" format="2">
  <advance width="539"/>
  <unicode hex="0039"/>
  <outline>
    <contour>
      <point x="545" y="488" type="curve" smooth="yes"/>
      <point x="415" y="488" type="line" smooth="yes"/>
      <point x="355" y="488"/>
      <point x="303" y="455"/>
      <point x="295" y="416" type="curve" smooth="yes"/>
      <point x="263" y="264" type="line" smooth="yes"/>
      <point x="262" y="261"/>
      <point x="262" y="257"/>
      <point x="262" y="252" type="curve" smooth="yes"/>
      <point x="262" y="220"/>
      <point x="289" y="186"/>
      <point x="345" y="186" type="curve" smooth="yes"/>
      <point x="501" y="186" type="line"/>
      <point x="484" y="107" type="line" smooth="yes"/>
      <point x="479" y="86"/>
      <point x="449" y="68"/>
      <point x="416" y="68" type="curve" smooth="yes"/>
      <point x="241" y="68" type="line"/>
      <point x="227" y="0" type="line"/>
      <point x="432" y="0" type="line" smooth="yes"/>
      <point x="494" y="0"/>
      <point x="547" y="43"/>
      <point x="559" y="94" type="curve" smooth="yes"/>
      <point x="624" y="400" type="line" smooth="yes"/>
      <point x="625" y="408"/>
      <point x="626" y="414"/>
      <point x="626" y="418" type="curve" smooth="yes"/>
      <point x="626" y="448"/>
      <point x="600" y="488"/>
    </contour>
    <contour>
      <point x="515" y="254" type="line"/>
      <point x="384" y="254" type="line" smooth="yes"/>
      <point x="367" y="254"/>
      <point x="343" y="264"/>
      <point x="346" y="289" type="curve"/>
      <point x="367" y="387" type="line" smooth="yes"/>
      <point x="374" y="420"/>
      <point x="412" y="420"/>
      <point x="413" y="420" type="curve" smooth="yes"/>
      <point x="507" y="420" type="line" smooth="yes"/>
      <point x="534" y="420"/>
      <point x="547" y="405"/>
      <point x="543" y="387" type="curve" smooth="yes"/>
    </contour>
  </outline>
</glyph>
<glyph name="colon" format="2">
  <advance width="254"/>
  <unicode hex="003A"/>
  <outline>
    <contour>
      <point x="218" y="293" type="curve" smooth="yes"/>
      <point x="160" y="293" type="line" smooth="yes"/>
      <point x="144" y="293"/>
      <point x="129" y="284"/>
      <point x="125" y="270" type="curve"/>
      <point x="115" y="221" type="line"/>
      <point x="112" y="212"/>
      <point x="120" y="195"/>
      <point x="145" y="195" type="curve" smooth="yes"/>
      <point x="197" y="195" type="line" smooth="yes"/>
      <point x="227" y="195"/>
      <point x="233" y="221"/>
      <point x="233" y="221" type="curve" smooth="yes"/>
      <point x="242" y="264" type="line" smooth="yes"/>
      <point x="243" y="266"/>
      <point x="243" y="269"/>
      <point x="243" y="273" type="curve" smooth="yes"/>
      <point x="243" y="292"/>
      <point x="224" y="293"/>
    </contour>
    <contour>
      <point x="177" y="98" type="curve" smooth="yes"/>
      <point x="115" y="98" type="line" smooth="yes"/>
      <point x="99" y="98"/>
      <point x="87" y="89"/>
      <point x="84" y="74" type="curve" smooth="yes"/>
      <point x="73" y="25" type="line" smooth="yes"/>
      <point x="72" y="20"/>
      <point x="75" y="14"/>
      <point x="80" y="7" type="curve"/>
      <point x="87" y="2"/>
      <point x="95" y="0"/>
      <point x="104" y="0" type="curve" smooth="yes"/>
      <point x="156" y="0" type="line" smooth="yes"/>
      <point x="174" y="0"/>
      <point x="188" y="13"/>
      <point x="192" y="30" type="curve" smooth="yes"/>
      <point x="200" y="68" type="line" smooth="yes"/>
      <point x="201" y="70"/>
      <point x="201" y="73"/>
      <point x="201" y="77" type="curve" smooth="yes"/>
      <point x="201" y="95"/>
      <point x="188" y="98"/>
    </contour>
  </outline>
</glyph>
<glyph name="semicolon" format="2">
  <advance width="254"/>
  <unicode hex="003B"/>
  <outline>
    <contour>
      <point x="245" y="279" type="curve" smooth="yes"/>
      <point x="253" y="313" type="line"/>
      <point x="256" y="335"/>
      <point x="247" y="342"/>
      <point x="239" y="342" type="curve" smooth="yes"/>
      <point x="177" y="342" type="line" smooth="yes"/>
      <point x="139" y="342"/>
      <point x="136" y="320"/>
      <point x="136" y="318" type="curve" smooth="yes"/>
      <point x="125" y="270" type="line"/>
      <point x="124" y="257"/>
      <point x="138" y="244"/>
      <point x="156" y="244" type="curve" smooth="yes"/>
      <point x="214" y="244" type="line" smooth="yes"/>
      <point x="232" y="244"/>
      <point x="242" y="264"/>
    </contour>
    <contour>
      <point x="183" y="98" type="curve" smooth="yes"/>
      <point x="125" y="98" type="line" smooth="yes"/>
      <point x="101" y="98"/>
      <point x="85" y="86"/>
      <point x="84" y="74" type="curve"/>
      <point x="72" y="20" type="line" smooth="yes"/>
      <point x="70" y="9"/>
      <point x="95" y="0"/>
      <point x="113" y="0" type="curve" smooth="yes"/>
      <point x="137" y="0" type="line"/>
      <point x="133" y="-20" type="line" smooth="yes"/>
      <point x="130" y="-31"/>
      <point x="120" y="-39"/>
      <point x="109" y="-39" type="curve" smooth="yes"/>
      <point x="81" y="-38" type="line"/>
      <point x="65" y="-36" type="line"/>
      <point x="60" y="-39" type="line"/>
      <point x="49" y="-88" type="line"/>
      <point x="118" y="-88" type="line" smooth="yes"/>
      <point x="145" y="-88"/>
      <point x="172" y="-66"/>
      <point x="178" y="-39" type="curve" smooth="yes"/>
      <point x="200" y="64" type="line" smooth="yes"/>
      <point x="201" y="66"/>
      <point x="201" y="69"/>
      <point x="201" y="73" type="curve" smooth="yes"/>
      <point x="201" y="75"/>
      <point x="201" y="98"/>
    </contour>
  </outline>
</glyph>
<glyph name="less" format="2">
  <advance width="435"/>
  <unicode hex="003C"/>
  <note>
GF Latin Plus glyph
</note>
  <outline>
    <contour>
      <point x="376" y="113" type="line"/>
      <point x="388" y="190" type="line"/>
      <point x="187" y="250" type="line"/>
      <point x="407" y="306" type="line"/>
      <point x="419" y="383" type="line"/>
      <point x="107" y="289" type="line"/>
      <point x="95" y="210" type="line"/>
    </contour>
  </outline>
</glyph>
<glyph name="greater" format="2">
  <advance width="435"/>
  <unicode hex="003E"/>
  <note>
GF Latin Plus glyph
</note>
  <outline>
    <contour>
      <point x="90" y="113" type="line"/>
      <point x="402" y="210" type="line"/>
      <point x="414" y="289" type="line"/>
      <point x="133" y="383" type="line"/>
      <point x="121" y="306" type="line"/>
      <point x="323" y="250" type="line"/>
      <point x="102" y="190" type="line"/>
    </contour>
  </outline>
</glyph>
<glyph name="question" format="2">
  <advance width="378"/>
  <unicode hex="003F"/>
  <note>
GF Latin Plus glyph
</note>
  <outline>
    <component base="period" xOffset="67"/>
    <contour>
      <point x="134" y="143" type="line"/>
      <point x="201" y="143" type="line"/>
      <point x="210" y="207" type="line"/>
      <point x="317" y="207"/>
      <point x="371" y="252"/>
      <point x="385" y="339" type="curve" smooth="yes"/>
      <point x="392" y="384" type="line" smooth="yes"/>
      <point x="394" y="396"/>
      <point x="395" y="408"/>
      <point x="395" y="418" type="curve" smooth="yes"/>
      <point x="395" y="484"/>
      <point x="355" y="527"/>
      <point x="267" y="527" type="curve" smooth="yes"/>
      <point x="208" y="527"/>
      <point x="155" y="512"/>
      <point x="108" y="487" type="curve"/>
      <point x="98" y="423" type="line"/>
      <point x="144" y="439"/>
      <point x="184" y="448"/>
      <point x="227" y="448" type="curve" smooth="yes"/>
      <point x="278" y="448"/>
      <point x="303" y="432"/>
      <point x="303" y="392" type="curve" smooth="yes"/>
      <point x="303" y="386"/>
      <point x="303" y="379"/>
      <point x="302" y="370" type="curve" smooth="yes"/>
      <point x="297" y="340" type="line" smooth="yes"/>
      <point x="289" y="290"/>
      <point x="258" y="275"/>
      <point x="199" y="275" type="curve" smooth="yes"/>
      <point x="154" y="275" type="line"/>
    </contour>
  </outline>
</glyph>
<glyph name="at" format="2">
  <advance width="660"/>
  <unicode hex="0040"/>
  <note>
GF Latin Plus glyph
</note>
  <outline>
    <contour>
      <point x="175" y="-136" type="curve" smooth="yes"/>
      <point x="241" y="-136" type="line" smooth="yes"/>
      <point x="331" y="-136"/>
      <point x="413" y="-128"/>
      <point x="449" y="-121" type="curve"/>
      <point x="456" y="-72" type="line"/>
      <point x="181" y="-72" type="line" smooth="yes"/>
      <point x="130" y="-72"/>
      <point x="105" y="-45"/>
      <point x="105" y="-3" type="curve" smooth="yes"/>
      <point x="105" y="3"/>
      <point x="106" y="11"/>
      <point x="107" y="19" type="curve" smooth="yes"/>
      <point x="161" y="355" type="line" smooth="yes"/>
      <point x="168" y="403"/>
      <point x="190" y="452"/>
      <point x="265" y="452" type="curve" smooth="yes"/>
      <point x="525" y="452" type="line" smooth="yes"/>
      <point x="570" y="452"/>
      <point x="603" y="434"/>
      <point x="603" y="386" type="curve" smooth="yes"/>
      <point x="603" y="376"/>
      <point x="602" y="366"/>
      <point x="600" y="355" type="curve" smooth="yes"/>
      <point x="568" y="140" type="line" smooth="yes"/>
      <point x="557" y="67"/>
      <point x="515" y="59"/>
      <point x="481" y="59" type="curve"/>
      <point x="524" y="337" type="line"/>
      <point x="489" y="367"/>
      <point x="442" y="385"/>
      <point x="382" y="385" type="curve" smooth="yes"/>
      <point x="277" y="385"/>
      <point x="185" y="293"/>
      <point x="185" y="131" type="curve" smooth="yes"/>
      <point x="185" y="31"/>
      <point x="235" y="-4"/>
      <point x="293" y="-4" type="curve" smooth="yes"/>
      <point x="341" y="-4"/>
      <point x="395" y="19"/>
      <point x="412" y="40" type="curve"/>
      <point x="425" y="0" type="line"/>
      <point x="482" y="0" type="line" smooth="yes"/>
      <point x="580" y="0"/>
      <point x="626" y="62"/>
      <point x="636" y="132" type="curve" smooth="yes"/>
      <point x="668" y="346" type="line" smooth="yes"/>
      <point x="670" y="362"/>
      <point x="672" y="378"/>
      <point x="672" y="392" type="curve" smooth="yes"/>
      <point x="672" y="465"/>
      <point x="630" y="516"/>
      <point x="543" y="516" type="curve" smooth="yes"/>
      <point x="278" y="516" type="line" smooth="yes"/>
      <point x="172" y="516"/>
      <point x="111" y="477"/>
      <point x="94" y="372" type="curve" smooth="yes"/>
      <point x="39" y="27" type="line" smooth="yes"/>
      <point x="37" y="15"/>
      <point x="36" y="2"/>
      <point x="36" y="-9" type="curve" smooth="yes"/>
      <point x="36" y="-78"/>
      <point x="74" y="-136"/>
    </contour>
    <contour>
      <point x="315" y="64" type="curve" smooth="yes"/>
      <point x="278" y="64"/>
      <point x="254" y="86"/>
      <point x="254" y="141" type="curve" smooth="yes"/>
      <point x="254" y="250"/>
      <point x="306" y="319"/>
      <point x="377" y="319" type="curve" smooth="yes"/>
      <point x="398" y="319"/>
      <point x="421" y="315"/>
      <point x="450" y="303" type="curve"/>
      <point x="419" y="98" type="line"/>
      <point x="389" y="73"/>
      <point x="350" y="64"/>
    </contour>
  </outline>
</glyph>
<glyph name="A" format="2">
  <advance width="491"/>
  <unicode hex="0041"/>
  <note>
GF Latin Plus glyph
</note>
  <outline>
    <contour>
      <point x="19" y="0" type="line"/>
      <point x="110" y="0" type="line"/>
      <point x="170" y="124" type="line"/>
      <point x="362" y="124" type="line"/>
      <point x="381" y="0" type="line"/>
      <point x="473" y="0" type="line"/>
      <point x="387" y="527" type="line"/>
      <point x="276" y="527" type="line"/>
    </contour>
    <contour>
      <point x="204" y="203" type="line"/>
      <point x="319" y="450" type="line"/>
      <point x="353" y="203" type="line"/>
    </contour>
  </outline>
</glyph>
<glyph name="B" format="2">
  <advance width="448"/>
  <unicode hex="0042"/>
  <note>
GF Latin Plus glyph
</note>
  <outline>
    <contour>
      <point x="47" y="0" type="line"/>
      <point x="249" y="0" type="line" smooth="yes"/>
      <point x="356" y="0"/>
      <point x="417" y="37"/>
      <point x="432" y="126" type="curve" smooth="yes"/>
      <point x="436" y="147"/>
      <point x="437" y="159"/>
      <point x="437" y="169" type="curve" smooth="yes"/>
      <point x="437" y="233"/>
      <point x="403" y="263"/>
      <point x="360" y="275" type="curve"/>
      <point x="411" y="286"/>
      <point x="448" y="327"/>
      <point x="457" y="384" type="curve" smooth="yes"/>
      <point x="459" y="397"/>
      <point x="460" y="409"/>
      <point x="460" y="421" type="curve" smooth="yes"/>
      <point x="460" y="485"/>
      <point x="428" y="527"/>
      <point x="327" y="527" type="curve" smooth="yes"/>
      <point x="130" y="527" type="line"/>
    </contour>
    <contour>
      <point x="148" y="79" type="line"/>
      <point x="173" y="237" type="line"/>
      <point x="285" y="237" type="line" smooth="yes"/>
      <point x="328" y="237"/>
      <point x="353" y="216"/>
      <point x="353" y="177" type="curve" smooth="yes"/>
      <point x="353" y="171"/>
      <point x="353" y="163"/>
      <point x="351" y="155" type="curve" smooth="yes"/>
      <point x="342" y="105"/>
      <point x="319" y="79"/>
      <point x="260" y="79" type="curve" smooth="yes"/>
    </contour>
    <contour>
      <point x="183" y="305" type="line"/>
      <point x="206" y="447" type="line"/>
      <point x="309" y="447" type="line" smooth="yes"/>
      <point x="350" y="447"/>
      <point x="372" y="434"/>
      <point x="372" y="398" type="curve" smooth="yes"/>
      <point x="372" y="389"/>
      <point x="371" y="380"/>
      <point x="369" y="369" type="curve" smooth="yes"/>
      <point x="361" y="330"/>
      <point x="339" y="305"/>
      <point x="295" y="305" type="curve" smooth="yes"/>
    </contour>
  </outline>
</glyph>
<glyph name="C" format="2">
  <advance width="421"/>
  <unicode hex="0043"/>
  <note>
GF Latin Plus glyph
</note>
  <outline>
    <contour>
      <point x="235" y="-4" type="curve" smooth="yes"/>
      <point x="284" y="-4"/>
      <point x="340" y="0"/>
      <point x="388" y="15" type="curve"/>
      <point x="399" y="83" type="line"/>
      <point x="359" y="78"/>
      <point x="324" y="75"/>
      <point x="258" y="75" type="curve" smooth="yes"/>
      <point x="184" y="75"/>
      <point x="157" y="103"/>
      <point x="157" y="169" type="curve" smooth="yes"/>
      <point x="157" y="194"/>
      <point x="161" y="228"/>
      <point x="167" y="261" type="curve" smooth="yes"/>
      <point x="192" y="412"/>
      <point x="232" y="452"/>
      <point x="313" y="452" type="curve" smooth="yes"/>
      <point x="363" y="452"/>
      <point x="412" y="445"/>
      <point x="454" y="435" type="curve"/>
      <point x="466" y="504" type="line"/>
      <point x="432" y="516"/>
      <point x="378" y="531"/>
      <point x="299" y="531" type="curve" smooth="yes"/>
      <point x="166" y="531"/>
      <point x="105" y="443"/>
      <point x="79" y="278" type="curve" smooth="yes"/>
      <point x="73" y="242"/>
      <point x="69" y="203"/>
      <point x="69" y="170" type="curve" smooth="yes"/>
      <point x="69" y="59"/>
      <point x="120" y="-4"/>
    </contour>
  </outline>
</glyph>
<glyph name="D" format="2">
  <advance width="487"/>
  <unicode hex="0044"/>
  <note>
GF Latin Plus glyph
</note>
  <outline>
    <contour>
      <point x="46" y="0" type="line"/>
      <point x="242" y="0" type="line" smooth="yes"/>
      <point x="388" y="0"/>
      <point x="465" y="83"/>
      <point x="491" y="248" type="curve" smooth="yes"/>
      <point x="496" y="280"/>
      <point x="499" y="313"/>
      <point x="499" y="343" type="curve" smooth="yes"/>
      <point x="499" y="456"/>
      <point x="460" y="527"/>
      <point x="326" y="527" type="curve" smooth="yes"/>
      <point x="130" y="527" type="line"/>
    </contour>
    <contour>
      <point x="147" y="79" type="line"/>
      <point x="205" y="447" type="line"/>
      <point x="305" y="447" type="line" smooth="yes"/>
      <point x="384" y="447"/>
      <point x="410" y="415"/>
      <point x="410" y="340" type="curve" smooth="yes"/>
      <point x="410" y="323"/>
      <point x="408" y="296"/>
      <point x="403" y="264" type="curve" smooth="yes"/>
      <point x="385" y="151"/>
      <point x="342" y="79"/>
      <point x="251" y="79" type="curve" smooth="yes"/>
    </contour>
  </outline>
</glyph>
<glyph name="E" format="2">
  <advance width="419"/>
  <unicode hex="0045"/>
  <note>
GF Latin Plus glyph
</note>
  <outline>
    <contour>
      <point x="168" y="-4" type="curve" smooth="yes"/>
      <point x="244" y="-3"/>
      <point x="312" y="0"/>
      <point x="380" y="5" type="curve"/>
      <point x="391" y="78" type="line"/>
      <point x="203" y="78" type="line" smooth="yes"/>
      <point x="168" y="78"/>
      <point x="149" y="90"/>
      <point x="156" y="131" type="curve" smooth="yes"/>
      <point x="170" y="223" type="line"/>
      <point x="381" y="228" type="line"/>
      <point x="392" y="297" type="line"/>
      <point x="183" y="303" type="line"/>
      <point x="196" y="390" type="line" smooth="yes"/>
      <point x="203" y="429"/>
      <point x="221" y="445"/>
      <point x="257" y="445" type="curve" smooth="yes"/>
      <point x="449" y="445" type="line"/>
      <point x="461" y="519" type="line"/>
      <point x="387" y="523"/>
      <point x="317" y="526"/>
      <point x="245" y="527" type="curve" smooth="yes"/>
      <point x="181" y="527"/>
      <point x="125" y="500"/>
      <point x="111" y="412" type="curve" smooth="yes"/>
      <point x="63" y="110" type="line" smooth="yes"/>
      <point x="48" y="12"/>
      <point x="118" y="-4"/>
    </contour>
  </outline>
</glyph>
<glyph name="F" format="2">
  <advance width="400"/>
  <unicode hex="0046"/>
  <note>
GF Latin Plus glyph
</note>
  <anchor x="308" y="578" name="top"/>
  <outline>
    <contour>
      <point x="46" y="0" type="line"/>
      <point x="135" y="0" type="line"/>
      <point x="168" y="210" type="line"/>
      <point x="379" y="215" type="line"/>
      <point x="390" y="284" type="line"/>
      <point x="181" y="290" type="line"/>
      <point x="196" y="390" type="line" smooth="yes"/>
      <point x="202" y="428"/>
      <point x="219" y="445"/>
      <point x="256" y="445" type="curve" smooth="yes"/>
      <point x="448" y="445" type="line"/>
      <point x="460" y="518" type="line"/>
      <point x="391" y="523"/>
      <point x="324" y="526"/>
      <point x="244" y="527" type="curve" smooth="yes"/>
      <point x="187" y="527"/>
      <point x="126" y="506"/>
      <point x="111" y="412" type="curve" smooth="yes"/>
    </contour>
  </outline>
</glyph>
<glyph name="G" format="2">
  <advance width="466"/>
  <unicode hex="0047"/>
  <note>
GF Latin Plus glyph
</note>
  <anchor x="212" y="-107" name="bottom"/>
  <anchor x="321" y="578" name="top"/>
  <outline>
    <contour>
      <point x="204" y="-4" type="curve" smooth="yes"/>
      <point x="252" y="-4"/>
      <point x="325" y="21"/>
      <point x="351" y="36" type="curve"/>
      <point x="358" y="0" type="line"/>
      <point x="424" y="0" type="line"/>
      <point x="470" y="292" type="line"/>
      <point x="454" y="293"/>
      <point x="419" y="294"/>
      <point x="398" y="294" type="curve" smooth="yes"/>
      <point x="343" y="294"/>
      <point x="304" y="291"/>
      <point x="278" y="288" type="curve"/>
      <point x="267" y="219" type="line"/>
      <point x="373" y="219" type="line"/>
      <point x="354" y="97" type="line"/>
      <point x="332" y="89"/>
      <point x="274" y="77"/>
      <point x="235" y="77" type="curve" smooth="yes"/>
      <point x="180" y="77"/>
      <point x="157" y="106"/>
      <point x="157" y="166" type="curve" smooth="yes"/>
      <point x="157" y="191"/>
      <point x="160" y="223"/>
      <point x="167" y="262" type="curve" smooth="yes"/>
      <point x="187" y="395"/>
      <point x="219" y="453"/>
      <point x="316" y="453" type="curve" smooth="yes"/>
      <point x="388" y="453"/>
      <point x="440" y="446"/>
      <point x="473" y="439" type="curve"/>
      <point x="484" y="508" type="line"/>
      <point x="441" y="521"/>
      <point x="391" y="532"/>
      <point x="307" y="532" type="curve" smooth="yes"/>
      <point x="174" y="532"/>
      <point x="105" y="443"/>
      <point x="80" y="283" type="curve" smooth="yes"/>
      <point x="73" y="241"/>
      <point x="68" y="199"/>
      <point x="68" y="160" type="curve" smooth="yes"/>
      <point x="68" y="47"/>
      <point x="105" y="-4"/>
    </contour>
  </outline>
</glyph>
<glyph name="H" format="2">
  <advance width="487"/>
  <unicode hex="0048"/>
  <note>
GF Latin Plus glyph
</note>
  <outline>
    <contour>
      <point x="46" y="0" type="line"/>
      <point x="135" y="0" type="line"/>
      <point x="169" y="219" type="line"/>
      <point x="391" y="219" type="line"/>
      <point x="356" y="0" type="line"/>
      <point x="444" y="0" type="line"/>
      <point x="528" y="527" type="line"/>
      <point x="440" y="527" type="line"/>
      <point x="403" y="299" type="line"/>
      <point x="182" y="299" type="line"/>
      <point x="218" y="527" type="line"/>
      <point x="130" y="527" type="line"/>
    </contour>
  </outline>
</glyph>
<glyph name="I" format="2">
  <advance width="181"/>
  <unicode hex="0049"/>
  <note>
GF Latin Plus glyph
</note>
  <anchor x="73" y="-107" name="bottom"/>
  <anchor x="182" y="578" name="top"/>
  <outline>
    <contour>
      <point x="46" y="0" type="line"/>
      <point x="135" y="0" type="line"/>
      <point x="218" y="527" type="line"/>
      <point x="130" y="527" type="line"/>
    </contour>
  </outline>
</glyph>
<glyph name="J" format="2">
  <advance width="268"/>
  <unicode hex="004A"/>
  <note>
GF Latin Plus glyph
</note>
  <anchor x="278" y="578" name="top"/>
  <outline>
    <contour>
      <point x="104" y="-4" type="curve" smooth="yes"/>
      <point x="192" y="-4"/>
      <point x="236" y="33"/>
      <point x="251" y="127" type="curve" smooth="yes"/>
      <point x="314" y="527" type="line"/>
      <point x="226" y="527" type="line"/>
      <point x="165" y="145" type="line" smooth="yes"/>
      <point x="158" y="98"/>
      <point x="134" y="76"/>
      <point x="90" y="76" type="curve" smooth="yes"/>
      <point x="72" y="76"/>
      <point x="52" y="77"/>
      <point x="34" y="81" type="curve"/>
      <point x="23" y="11" type="line"/>
      <point x="41" y="2"/>
      <point x="73" y="-4"/>
    </contour>
  </outline>
</glyph>
<glyph name="K" format="2">
  <advance width="446"/>
  <unicode hex="004B"/>
  <note>
GF Latin Plus glyph
</note>
  <anchor x="202" y="-107" name="bottom"/>
  <anchor x="310" y="578" name="top"/>
  <outline>
    <contour>
      <point x="46" y="0" type="line"/>
      <point x="135" y="0" type="line"/>
      <point x="170" y="224" type="line"/>
      <point x="253" y="224" type="line"/>
      <point x="348" y="0" type="line"/>
      <point x="436" y="0" type="line"/>
      <point x="326" y="262" type="line"/>
      <point x="508" y="527" type="line"/>
      <point x="417" y="527" type="line"/>
      <point x="261" y="304" type="line"/>
      <point x="183" y="304" type="line"/>
      <point x="218" y="527" type="line"/>
      <point x="130" y="527" type="line"/>
    </contour>
  </outline>
</glyph>
<glyph name="L" format="2">
  <advance width="377"/>
  <unicode hex="004C"/>
  <note>
GF Latin Plus glyph
</note>
  <outline>
    <contour>
      <point x="164" y="0" type="curve" smooth="yes"/>
      <point x="361" y="0" type="line"/>
      <point x="374" y="79" type="line"/>
      <point x="200" y="79" type="line" smooth="yes"/>
      <point x="172" y="79"/>
      <point x="154" y="88"/>
      <point x="154" y="116" type="curve" smooth="yes"/>
      <point x="154" y="121"/>
      <point x="155" y="126"/>
      <point x="156" y="131" type="curve" smooth="yes"/>
      <point x="218" y="527" type="line"/>
      <point x="130" y="527" type="line"/>
      <point x="65" y="121" type="line" smooth="yes"/>
      <point x="64" y="109"/>
      <point x="63" y="100"/>
      <point x="63" y="89" type="curve" smooth="yes"/>
      <point x="63" y="25"/>
      <point x="102" y="0"/>
    </contour>
  </outline>
</glyph>
<glyph name="M" format="2">
  <advance width="607"/>
  <unicode hex="004D"/>
  <note>
GF Latin Plus glyph
</note>
  <outline>
    <contour>
      <point x="33" y="0" type="line"/>
      <point x="121" y="0" type="line"/>
      <point x="220" y="365" type="line"/>
      <point x="268" y="0" type="line"/>
      <point x="350" y="0" type="line"/>
      <point x="515" y="368" type="line"/>
      <point x="499" y="0" type="line"/>
      <point x="584" y="0" type="line"/>
      <point x="606" y="527" type="line"/>
      <point x="524" y="527" type="line"/>
      <point x="326" y="107" type="line"/>
      <point x="262" y="527" type="line"/>
      <point x="180" y="527" type="line"/>
    </contour>
  </outline>
</glyph>
<glyph name="N" format="2">
  <advance width="488"/>
  <unicode hex="004E"/>
  <note>
GF Latin Plus glyph
</note>
  <outline>
    <contour>
      <point x="46" y="0" type="line"/>
      <point x="135" y="0" type="line"/>
      <point x="195" y="377" type="line"/>
      <point x="375" y="0" type="line"/>
      <point x="446" y="0" type="line"/>
      <point x="529" y="527" type="line"/>
      <point x="441" y="527" type="line"/>
      <point x="381" y="150" type="line"/>
      <point x="201" y="527" type="line"/>
      <point x="130" y="527" type="line"/>
    </contour>
  </outline>
</glyph>
<glyph name="O" format="2">
  <advance width="495"/>
  <unicode hex="004F"/>
  <note>
GF Latin Plus glyph
</note>
  <anchor x="232" y="-107" name="bottom"/>
  <anchor x="340" y="578" name="top"/>
  <outline>
    <contour>
      <point x="245" y="-4" type="curve" smooth="yes"/>
      <point x="394" y="-4"/>
      <point x="466" y="38"/>
      <point x="498" y="245" type="curve" smooth="yes"/>
      <point x="505" y="288"/>
      <point x="509" y="330"/>
      <point x="509" y="360" type="curve" smooth="yes"/>
      <point x="509" y="501"/>
      <point x="436" y="531"/>
      <point x="331" y="531" type="curve" smooth="yes"/>
      <point x="181" y="531"/>
      <point x="111" y="478"/>
      <point x="78" y="275" type="curve" smooth="yes"/>
      <point x="71" y="232"/>
      <point x="67" y="191"/>
      <point x="67" y="158" type="curve" smooth="yes"/>
      <point x="67" y="23"/>
      <point x="138" y="-4"/>
    </contour>
    <contour>
      <point x="260" y="75" type="curve" smooth="yes"/>
      <point x="187" y="75"/>
      <point x="156" y="92"/>
      <point x="156" y="163" type="curve" smooth="yes"/>
      <point x="156" y="187"/>
      <point x="160" y="223"/>
      <point x="166" y="262" type="curve" smooth="yes"/>
      <point x="191" y="417"/>
      <point x="230" y="452"/>
      <point x="319" y="452" type="curve" smooth="yes"/>
      <point x="386" y="452"/>
      <point x="420" y="436"/>
      <point x="420" y="360" type="curve" smooth="yes"/>
      <point x="420" y="335"/>
      <point x="417" y="298"/>
      <point x="410" y="257" type="curve" smooth="yes"/>
      <point x="388" y="116"/>
      <point x="352" y="75"/>
    </contour>
  </outline>
</glyph>
<glyph name="P" format="2">
  <advance width="432"/>
  <unicode hex="0050"/>
  <note>
GF Latin Plus glyph
</note>
  <anchor x="293" y="578" name="top"/>
  <outline>
    <contour>
      <point x="46" y="0" type="line"/>
      <point x="135" y="0" type="line"/>
      <point x="164" y="185" type="line"/>
      <point x="197" y="180"/>
      <point x="251" y="174"/>
      <point x="297" y="174" type="curve" smooth="yes"/>
      <point x="367" y="174"/>
      <point x="443" y="211"/>
      <point x="463" y="339" type="curve" smooth="yes"/>
      <point x="465" y="356"/>
      <point x="469" y="379"/>
      <point x="469" y="393" type="curve" smooth="yes"/>
      <point x="469" y="497"/>
      <point x="410" y="527"/>
      <point x="337" y="527" type="curve" smooth="yes"/>
      <point x="130" y="527" type="line"/>
    </contour>
    <contour>
      <point x="175" y="254" type="line"/>
      <point x="205" y="447" type="line"/>
      <point x="320" y="447" type="line" smooth="yes"/>
      <point x="357" y="447"/>
      <point x="379" y="431"/>
      <point x="379" y="385" type="curve" smooth="yes"/>
      <point x="379" y="377"/>
      <point x="377" y="361"/>
      <point x="375" y="348" type="curve" smooth="yes"/>
      <point x="364" y="282"/>
      <point x="330" y="254"/>
      <point x="286" y="254" type="curve" smooth="yes"/>
    </contour>
  </outline>
</glyph>
<glyph name="Q" format="2">
  <advance width="495"/>
  <unicode hex="0051"/>
  <note>
GF Latin Plus glyph
</note>
  <outline>
    <component base="O"/>
    <contour>
      <point x="351" y="-133" type="curve" smooth="yes"/>
      <point x="369" y="-133"/>
      <point x="383" y="-131"/>
      <point x="396" y="-128" type="curve"/>
      <point x="406" y="-63" type="line"/>
      <point x="390" y="-67"/>
      <point x="370" y="-70"/>
      <point x="351" y="-70" type="curve" smooth="yes"/>
      <point x="315" y="-70"/>
      <point x="295" y="-59"/>
      <point x="290" y="-26" type="curve"/>
      <point x="229" y="-26" type="line"/>
      <point x="231" y="-102"/>
      <point x="283" y="-133"/>
    </contour>
  </outline>
</glyph>
<glyph name="R" format="2">
  <advance width="448"/>
  <unicode hex="0052"/>
  <note>
GF Latin Plus glyph
</note>
  <outline>
    <contour>
      <point x="46" y="0" type="line"/>
      <point x="135" y="0" type="line"/>
      <point x="167" y="204" type="line"/>
      <point x="196" y="204"/>
      <point x="244" y="203"/>
      <point x="270" y="203" type="curve"/>
      <point x="329" y="0" type="line"/>
      <point x="419" y="0" type="line"/>
      <point x="352" y="216" type="line"/>
      <point x="386" y="226"/>
      <point x="445" y="250"/>
      <point x="461" y="355" type="curve" smooth="yes"/>
      <point x="464" y="371"/>
      <point x="465" y="386"/>
      <point x="465" y="399" type="curve" smooth="yes"/>
      <point x="465" y="495"/>
      <point x="406" y="527"/>
      <point x="328" y="527" type="curve" smooth="yes"/>
      <point x="130" y="527" type="line"/>
    </contour>
    <contour>
      <point x="178" y="274" type="line"/>
      <point x="205" y="447" type="line"/>
      <point x="310" y="447" type="line" smooth="yes"/>
      <point x="346" y="447"/>
      <point x="374" y="434"/>
      <point x="374" y="387" type="curve" smooth="yes"/>
      <point x="374" y="379"/>
      <point x="374" y="370"/>
      <point x="372" y="361" type="curve" smooth="yes"/>
      <point x="362" y="292"/>
      <point x="332" y="274"/>
      <point x="283" y="274" type="curve" smooth="yes"/>
    </contour>
  </outline>
</glyph>
<glyph name="S" format="2">
  <advance width="408"/>
  <unicode hex="0053"/>
  <note>
GF Latin Plus glyph
</note>
  <outline>
    <contour>
      <point x="217" y="-4" type="curve" smooth="yes"/>
      <point x="333" y="-4"/>
      <point x="389" y="30"/>
      <point x="403" y="121" type="curve" smooth="yes"/>
      <point x="411" y="170" type="line" smooth="yes"/>
      <point x="412" y="180"/>
      <point x="413" y="190"/>
      <point x="413" y="198" type="curve" smooth="yes"/>
      <point x="413" y="263"/>
      <point x="370" y="304"/>
      <point x="285" y="304" type="curve" smooth="yes"/>
      <point x="233" y="304" type="line" smooth="yes"/>
      <point x="195" y="304"/>
      <point x="178" y="316"/>
      <point x="178" y="347" type="curve" smooth="yes"/>
      <point x="178" y="352"/>
      <point x="179" y="358"/>
      <point x="180" y="364" type="curve" smooth="yes"/>
      <point x="184" y="388" type="line" smooth="yes"/>
      <point x="192" y="438"/>
      <point x="222" y="451"/>
      <point x="272" y="451" type="curve" smooth="yes"/>
      <point x="313" y="451"/>
      <point x="381" y="449"/>
      <point x="431" y="445" type="curve"/>
      <point x="441" y="514" type="line"/>
      <point x="393" y="525"/>
      <point x="326" y="531"/>
      <point x="282" y="531" type="curve" smooth="yes"/>
      <point x="183" y="531"/>
      <point x="117" y="500"/>
      <point x="101" y="398" type="curve" smooth="yes"/>
      <point x="94" y="355" type="line" smooth="yes"/>
      <point x="93" y="344"/>
      <point x="92" y="335"/>
      <point x="92" y="325" type="curve" smooth="yes"/>
      <point x="92" y="260"/>
      <point x="135" y="221"/>
      <point x="212" y="221" type="curve" smooth="yes"/>
      <point x="262" y="221" type="line" smooth="yes"/>
      <point x="307" y="221"/>
      <point x="327" y="208"/>
      <point x="327" y="177" type="curve" smooth="yes"/>
      <point x="327" y="172"/>
      <point x="326" y="167"/>
      <point x="325" y="161" type="curve" smooth="yes"/>
      <point x="322" y="137" type="line" smooth="yes"/>
      <point x="314" y="87"/>
      <point x="279" y="75"/>
      <point x="216" y="75" type="curve" smooth="yes"/>
      <point x="161" y="75"/>
      <point x="99" y="77"/>
      <point x="57" y="80" type="curve"/>
      <point x="46" y="11" type="line"/>
      <point x="84" y="3"/>
      <point x="148" y="-4"/>
    </contour>
  </outline>
</glyph>
<glyph name="T" format="2">
  <advance width="434"/>
  <unicode hex="0054"/>
  <note>
GF Latin Plus glyph
</note>
  <outline>
    <contour>
      <point x="169" y="0" type="line"/>
      <point x="257" y="0" type="line"/>
      <point x="328" y="447" type="line"/>
      <point x="480" y="447" type="line"/>
      <point x="493" y="527" type="line"/>
      <point x="100" y="527" type="line"/>
      <point x="88" y="447" type="line"/>
      <point x="240" y="447" type="line"/>
    </contour>
  </outline>
</glyph>
<glyph name="U" format="2">
  <advance width="488"/>
  <unicode hex="0055"/>
  <note>
GF Latin Plus glyph
</note>
  <outline>
    <contour>
      <point x="244" y="-4" type="curve" smooth="yes"/>
      <point x="370" y="-4"/>
      <point x="446" y="27"/>
      <point x="476" y="215" type="curve" smooth="yes"/>
      <point x="525" y="527" type="line"/>
      <point x="437" y="527" type="line"/>
      <point x="389" y="228" type="line" smooth="yes"/>
      <point x="369" y="99"/>
      <point x="328" y="75"/>
      <point x="256" y="75" type="curve" smooth="yes"/>
      <point x="192" y="75"/>
      <point x="163" y="98"/>
      <point x="163" y="157" type="curve" smooth="yes"/>
      <point x="163" y="176"/>
      <point x="167" y="202"/>
      <point x="171" y="228" type="curve" smooth="yes"/>
      <point x="218" y="527" type="line"/>
      <point x="130" y="527" type="line"/>
      <point x="84" y="241" type="line" smooth="yes"/>
      <point x="79" y="208"/>
      <point x="75" y="175"/>
      <point x="75" y="150" type="curve" smooth="yes"/>
      <point x="75" y="39"/>
      <point x="133" y="-4"/>
    </contour>
  </outline>
</glyph>
<glyph name="V" format="2">
  <advance width="492"/>
  <unicode hex="0056"/>
  <note>
GF Latin Plus glyph
</note>
  <outline>
    <contour>
      <point x="188" y="0" type="line"/>
      <point x="300" y="0" type="line"/>
      <point x="556" y="527" type="line"/>
      <point x="466" y="527" type="line"/>
      <point x="259" y="96" type="line"/>
      <point x="194" y="527" type="line"/>
      <point x="102" y="527" type="line"/>
    </contour>
  </outline>
</glyph>
<glyph name="W" format="2">
  <advance width="729"/>
  <unicode hex="0057"/>
  <note>
GF Latin Plus glyph
</note>
  <anchor x="454" y="578" name="top"/>
  <outline>
    <contour>
      <point x="159" y="0" type="line"/>
      <point x="250" y="0" type="line"/>
      <point x="419" y="397" type="line"/>
      <point x="458" y="0" type="line"/>
      <point x="550" y="0" type="line"/>
      <point x="777" y="527" type="line"/>
      <point x="685" y="527" type="line"/>
      <point x="514" y="129" type="line"/>
      <point x="481" y="527" type="line"/>
      <point x="398" y="527" type="line"/>
      <point x="236" y="129" type="line"/>
      <point x="194" y="527" type="line"/>
      <point x="103" y="527" type="line"/>
    </contour>
  </outline>
</glyph>
<glyph name="X" format="2">
  <advance width="458"/>
  <unicode hex="0058"/>
  <note>
GF Latin Plus glyph
</note>
  <outline>
    <contour>
      <point x="346" y="0" type="line"/>
      <point x="443" y="0" type="line"/>
      <point x="305" y="289" type="line"/>
      <point x="195" y="527" type="line"/>
      <point x="98" y="527" type="line"/>
      <point x="239" y="232" type="line"/>
    </contour>
    <contour>
      <point x="17" y="0" type="line"/>
      <point x="116" y="0" type="line"/>
      <point x="271" y="208" type="line"/>
      <point x="236" y="285" type="line"/>
    </contour>
    <contour>
      <point x="305" y="236" type="line"/>
      <point x="530" y="527" type="line"/>
      <point x="431" y="527" type="line"/>
      <point x="270" y="311" type="line"/>
    </contour>
  </outline>
</glyph>
<glyph name="Y" format="2">
  <advance width="450"/>
  <unicode hex="0059"/>
  <note>
GF Latin Plus glyph
</note>
  <anchor x="204" y="-107" name="bottom"/>
  <anchor x="312" y="578" name="top"/>
  <outline>
    <contour>
      <point x="175" y="0" type="line"/>
      <point x="264" y="0" type="line"/>
      <point x="289" y="160" type="line"/>
      <point x="521" y="527" type="line"/>
      <point x="421" y="527" type="line"/>
      <point x="259" y="257" type="line"/>
      <point x="193" y="527" type="line"/>
      <point x="96" y="527" type="line"/>
      <point x="201" y="160" type="line"/>
    </contour>
  </outline>
</glyph>
<glyph name="Z" format="2">
  <advance width="403"/>
  <unicode hex="005A"/>
  <note>
GF Latin Plus glyph
</note>
  <outline>
    <contour>
      <point x="25" y="0" type="line"/>
      <point x="377" y="0" type="line"/>
      <point x="390" y="79" type="line"/>
      <point x="140" y="79" type="line"/>
      <point x="442" y="452" type="line"/>
      <point x="454" y="527" type="line"/>
      <point x="109" y="527" type="line"/>
      <point x="96" y="447" type="line"/>
      <point x="339" y="447" type="line"/>
      <point x="37" y="75" type="line"/>
    </contour>
  </outline>
</glyph>
<glyph name="bracketleft" format="2">
  <advance width="240"/>
  <unicode hex="005B"/>
  <note>
GF Latin Plus glyph
</note>
  <outline>
    <contour>
      <point x="152" y="-150" type="curve" smooth="yes"/>
      <point x="205" y="-150" type="line"/>
      <point x="216" y="-78" type="line"/>
      <point x="188" y="-78" type="line" smooth="yes"/>
      <point x="155" y="-78"/>
      <point x="139" y="-60"/>
      <point x="139" y="-25" type="curve" smooth="yes"/>
      <point x="139" y="-18"/>
      <point x="140" y="-10"/>
      <point x="142" y="-1" type="curve" smooth="yes"/>
      <point x="214" y="453" type="line" smooth="yes"/>
      <point x="223" y="509"/>
      <point x="250" y="530"/>
      <point x="285" y="530" type="curve" smooth="yes"/>
      <point x="312" y="530" type="line"/>
      <point x="323" y="601" type="line"/>
      <point x="271" y="601" type="line" smooth="yes"/>
      <point x="177" y="601"/>
      <point x="139" y="539"/>
      <point x="127" y="465" type="curve" smooth="yes"/>
      <point x="53" y="-6" type="line" smooth="yes"/>
      <point x="51" y="-18"/>
      <point x="49" y="-32"/>
      <point x="49" y="-46" type="curve" smooth="yes"/>
      <point x="49" y="-97"/>
      <point x="69" y="-150"/>
    </contour>
  </outline>
</glyph>
<glyph name="backslash" format="2">
  <advance width="314"/>
  <unicode hex="005C"/>
  <note>
GF Latin Plus glyph
</note>
  <outline>
    <contour>
      <point x="205" y="-51" type="line"/>
      <point x="294" y="-51" type="line"/>
      <point x="188" y="550" type="line"/>
      <point x="99" y="550" type="line"/>
    </contour>
  </outline>
</glyph>
<glyph name="bracketright" format="2">
  <advance width="240"/>
  <unicode hex="005D"/>
  <note>
GF Latin Plus glyph
</note>
  <outline>
    <contour>
      <point x="-11" y="-150" type="line"/>
      <point x="41" y="-150" type="line" smooth="yes"/>
      <point x="148" y="-150"/>
      <point x="176" y="-64"/>
      <point x="186" y="-6" type="curve" smooth="yes"/>
      <point x="261" y="465" type="line" smooth="yes"/>
      <point x="263" y="478"/>
      <point x="264" y="491"/>
      <point x="264" y="503" type="curve" smooth="yes"/>
      <point x="264" y="561"/>
      <point x="236" y="601"/>
      <point x="160" y="601" type="curve" smooth="yes"/>
      <point x="107" y="601" type="line"/>
      <point x="96" y="530" type="line"/>
      <point x="123" y="530" type="line" smooth="yes"/>
      <point x="153" y="530"/>
      <point x="172" y="515"/>
      <point x="172" y="477" type="curve" smooth="yes"/>
      <point x="172" y="470"/>
      <point x="172" y="462"/>
      <point x="170" y="453" type="curve" smooth="yes"/>
      <point x="98" y="-1" type="line" smooth="yes"/>
      <point x="90" y="-51"/>
      <point x="67" y="-78"/>
      <point x="27" y="-78" type="curve" smooth="yes"/>
      <point x="0" y="-78" type="line"/>
    </contour>
  </outline>
</glyph>
<glyph name="asciicircum" format="2">
  <advance width="278"/>
  <unicode hex="005E"/>
  <note>
GF Latin Plus glyph
</note>
  <outline>
    <contour>
      <point x="91" y="379" type="line"/>
      <point x="144" y="379" type="line"/>
      <point x="210" y="434" type="line"/>
      <point x="255" y="379" type="line"/>
      <point x="307" y="379" type="line"/>
      <point x="248" y="476" type="line"/>
      <point x="188" y="476" type="line"/>
    </contour>
  </outline>
</glyph>
<glyph name="underscore" format="2">
  <advance width="435"/>
  <unicode hex="005F"/>
  <note>
GF Latin Plus glyph
</note>
  <outline>
    <contour>
      <point x="-20" y="-130" type="line"/>
      <point x="414" y="-130" type="line"/>
      <point x="425" y="-58" type="line"/>
      <point x="-9" y="-58" type="line"/>
    </contour>
  </outline>
</glyph>
<glyph name="grave" format="2">
  <advance width="161"/>
  <unicode hex="0060"/>
  <note>
GF Latin Plus glyph
</note>
  <outline>
    <contour>
      <point x="168" y="450" type="line"/>
      <point x="220" y="450" type="line"/>
      <point x="172" y="549" type="line"/>
      <point x="99" y="549" type="line"/>
    </contour>
  </outline>
</glyph>
<glyph name="a" format="2">
  <advance width="406"/>
  <unicode hex="0061"/>
  <note>
GF Latin Plus glyph
</note>
  <anchor x="182" y="-107" name="bottom"/>
  <anchor x="272" y="464" name="top"/>
  <outline>
    <contour>
      <point x="161" y="-4" type="curve" smooth="yes"/>
      <point x="208" y="-4"/>
      <point x="262" y="22"/>
      <point x="282" y="39" type="curve"/>
      <point x="287" y="0" type="line"/>
      <point x="364" y="0" type="line"/>
      <point x="419" y="342" type="line"/>
      <point x="385" y="370"/>
      <point x="322" y="386"/>
      <point x="262" y="386" type="curve" smooth="yes"/>
      <point x="140" y="386"/>
      <point x="81" y="327"/>
      <point x="62" y="204" type="curve" smooth="yes"/>
      <point x="59" y="184"/>
      <point x="54" y="153"/>
      <point x="54" y="126" type="curve" smooth="yes"/>
      <point x="54" y="34"/>
      <point x="102" y="-4"/>
    </contour>
    <contour>
      <point x="202" y="67" type="curve" smooth="yes"/>
      <point x="163" y="67"/>
      <point x="142" y="95"/>
      <point x="142" y="142" type="curve" smooth="yes"/>
      <point x="142" y="154"/>
      <point x="145" y="173"/>
      <point x="148" y="196" type="curve" smooth="yes"/>
      <point x="161" y="275"/>
      <point x="188" y="315"/>
      <point x="258" y="315" type="curve" smooth="yes"/>
      <point x="288" y="315"/>
      <point x="313" y="306"/>
      <point x="323" y="300" type="curve"/>
      <point x="291" y="96" type="line"/>
      <point x="266" y="82"/>
      <point x="239" y="67"/>
    </contour>
  </outline>
</glyph>
<glyph name="b" format="2">
  <advance width="412"/>
  <unicode hex="0062"/>
  <note>
GF Latin Plus glyph
</note>
  <outline>
    <contour>
      <point x="256" y="-4" type="curve" smooth="yes"/>
      <point x="337" y="-4"/>
      <point x="391" y="60"/>
      <point x="408" y="168" type="curve" smooth="yes"/>
      <point x="413" y="201"/>
      <point x="417" y="232"/>
      <point x="417" y="254" type="curve" smooth="yes"/>
      <point x="417" y="340"/>
      <point x="370" y="386"/>
      <point x="298" y="386" type="curve" smooth="yes"/>
      <point x="269" y="386"/>
      <point x="223" y="375"/>
      <point x="187" y="355" type="curve"/>
      <point x="216" y="545" type="line"/>
      <point x="128" y="545" type="line"/>
      <point x="42" y="0" type="line"/>
      <point x="119" y="0" type="line"/>
      <point x="136" y="37" type="line"/>
      <point x="164" y="14"/>
      <point x="210" y="-4"/>
    </contour>
    <contour>
      <point x="229" y="67" type="curve" smooth="yes"/>
      <point x="191" y="67"/>
      <point x="166" y="78"/>
      <point x="145" y="93" type="curve"/>
      <point x="176" y="291" type="line"/>
      <point x="205" y="305"/>
      <point x="240" y="315"/>
      <point x="269" y="315" type="curve" smooth="yes"/>
      <point x="303" y="315"/>
      <point x="329" y="296"/>
      <point x="329" y="241" type="curve" smooth="yes"/>
      <point x="329" y="227"/>
      <point x="326" y="210"/>
      <point x="324" y="191" type="curve" smooth="yes"/>
      <point x="311" y="104"/>
      <point x="281" y="67"/>
    </contour>
  </outline>
</glyph>
<glyph name="c" format="2">
  <advance width="340"/>
  <unicode hex="0063"/>
  <note>
GF Latin Plus glyph
</note>
  <anchor x="165" y="-107" name="bottom"/>
  <anchor x="255" y="464" name="top"/>
  <outline>
    <contour>
      <point x="194" y="-4" type="curve" smooth="yes"/>
      <point x="249" y="-4"/>
      <point x="288" y="2"/>
      <point x="319" y="12" type="curve"/>
      <point x="327" y="63" type="line"/>
      <point x="222" y="63" type="line" smooth="yes"/>
      <point x="171" y="63"/>
      <point x="144" y="83"/>
      <point x="144" y="146" type="curve" smooth="yes"/>
      <point x="144" y="155"/>
      <point x="146" y="170"/>
      <point x="149" y="190" type="curve" smooth="yes"/>
      <point x="164" y="282"/>
      <point x="197" y="318"/>
      <point x="260" y="318" type="curve" smooth="yes"/>
      <point x="361" y="318" type="line"/>
      <point x="369" y="370" type="line"/>
      <point x="328" y="379"/>
      <point x="280" y="386"/>
      <point x="240" y="386" type="curve" smooth="yes"/>
      <point x="149" y="386"/>
      <point x="83" y="337"/>
      <point x="63" y="206" type="curve" smooth="yes"/>
      <point x="58" y="180"/>
      <point x="56" y="155"/>
      <point x="56" y="138" type="curve" smooth="yes"/>
      <point x="56" y="28"/>
      <point x="110" y="-4"/>
    </contour>
  </outline>
</glyph>
<glyph name="d" format="2">
  <advance width="408"/>
  <unicode hex="0064"/>
  <note>
GF Latin Plus glyph
</note>
  <anchor x="187" y="-107" name="bottom"/>
  <anchor x="418" y="607" name="top"/>
  <outline>
    <contour>
      <point x="164" y="-4" type="curve" smooth="yes"/>
      <point x="210" y="-4"/>
      <point x="254" y="16"/>
      <point x="283" y="39" type="curve"/>
      <point x="288" y="0" type="line"/>
      <point x="365" y="0" type="line"/>
      <point x="452" y="545" type="line"/>
      <point x="363" y="545" type="line"/>
      <point x="336" y="373" type="line"/>
      <point x="312" y="383"/>
      <point x="285" y="386"/>
      <point x="255" y="386" type="curve" smooth="yes"/>
      <point x="123" y="386"/>
      <point x="85" y="317"/>
      <point x="63" y="207" type="curve" smooth="yes"/>
      <point x="58" y="179"/>
      <point x="55" y="152"/>
      <point x="55" y="126" type="curve" smooth="yes"/>
      <point x="55" y="42"/>
      <point x="96" y="-4"/>
    </contour>
    <contour>
      <point x="202" y="67" type="curve" smooth="yes"/>
      <point x="170" y="67"/>
      <point x="144" y="85"/>
      <point x="144" y="141" type="curve" smooth="yes"/>
      <point x="144" y="157"/>
      <point x="146" y="172"/>
      <point x="149" y="191" type="curve" smooth="yes"/>
      <point x="166" y="286"/>
      <point x="196" y="315"/>
      <point x="259" y="315" type="curve" smooth="yes"/>
      <point x="287" y="315"/>
      <point x="307" y="309"/>
      <point x="325" y="300" type="curve"/>
      <point x="292" y="96" type="line"/>
      <point x="266" y="81"/>
      <point x="238" y="67"/>
    </contour>
  </outline>
</glyph>
<glyph name="e" format="2">
  <advance width="391"/>
  <unicode hex="0065"/>
  <note>
GF Latin Plus glyph
</note>
  <outline>
    <contour>
      <point x="209" y="-4" type="curve" smooth="yes"/>
      <point x="266" y="-4"/>
      <point x="320" y="2"/>
      <point x="355" y="9" type="curve"/>
      <point x="363" y="61" type="line"/>
      <point x="243" y="61" type="line" smooth="yes"/>
      <point x="172" y="61"/>
      <point x="143" y="81"/>
      <point x="143" y="125" type="curve" smooth="yes"/>
      <point x="143" y="135"/>
      <point x="144" y="147"/>
      <point x="145" y="157" type="curve"/>
      <point x="163" y="153"/>
      <point x="195" y="149"/>
      <point x="234" y="149" type="curve" smooth="yes"/>
      <point x="324" y="149"/>
      <point x="404" y="171"/>
      <point x="404" y="277" type="curve" smooth="yes"/>
      <point x="404" y="364"/>
      <point x="338" y="388"/>
      <point x="261" y="388" type="curve" smooth="yes"/>
      <point x="146" y="388"/>
      <point x="82" y="332"/>
      <point x="63" y="211" type="curve" smooth="yes"/>
      <point x="59" y="187"/>
      <point x="56" y="162"/>
      <point x="56" y="135" type="curve" smooth="yes"/>
      <point x="56" y="45"/>
      <point x="98" y="-4"/>
    </contour>
    <contour>
      <point x="209" y="199" type="curve" smooth="yes"/>
      <point x="188" y="199"/>
      <point x="167" y="202"/>
      <point x="151" y="205" type="curve"/>
      <point x="162" y="278"/>
      <point x="189" y="319"/>
      <point x="255" y="319" type="curve" smooth="yes"/>
      <point x="300" y="319"/>
      <point x="322" y="303"/>
      <point x="322" y="268" type="curve" smooth="yes"/>
      <point x="322" y="217"/>
      <point x="283" y="199"/>
    </contour>
  </outline>
</glyph>
<glyph name="f" format="2">
  <advance width="274"/>
  <unicode hex="0066"/>
  <note>
GF Latin Plus glyph
</note>
  <outline>
    <contour>
      <point x="68" y="0" type="line"/>
      <point x="157" y="0" type="line"/>
      <point x="206" y="310" type="line"/>
      <point x="307" y="310" type="line"/>
      <point x="318" y="382" type="line"/>
      <point x="217" y="382" type="line"/>
      <point x="222" y="416" type="line" smooth="yes"/>
      <point x="228" y="458"/>
      <point x="242" y="478"/>
      <point x="285" y="478" type="curve" smooth="yes"/>
      <point x="345" y="478" type="line"/>
      <point x="355" y="543" type="line"/>
      <point x="333" y="546"/>
      <point x="301" y="549"/>
      <point x="269" y="549" type="curve" smooth="yes"/>
      <point x="182" y="549"/>
      <point x="149" y="506"/>
      <point x="138" y="440" type="curve" smooth="yes"/>
      <point x="129" y="382" type="line"/>
      <point x="71" y="367" type="line"/>
      <point x="62" y="310" type="line"/>
      <point x="118" y="310" type="line"/>
    </contour>
  </outline>
</glyph>
<glyph name="g" format="2">
  <advance width="408"/>
  <unicode hex="0067"/>
  <note>
GF Latin Plus glyph
</note>
  <anchor x="150" y="-250" name="bottom"/>
  <anchor x="272" y="464" name="top"/>
  <outline>
    <contour>
      <point x="127" y="-167" type="line" smooth="yes"/>
      <point x="254" y="-177"/>
      <point x="342" y="-146"/>
      <point x="358" y="-42" type="curve" smooth="yes"/>
      <point x="423" y="366" type="line"/>
      <point x="391" y="375"/>
      <point x="333" y="386"/>
      <point x="263" y="386" type="curve" smooth="yes"/>
      <point x="156" y="386"/>
      <point x="84" y="341"/>
      <point x="64" y="212" type="curve" smooth="yes"/>
      <point x="59" y="184"/>
      <point x="55" y="149"/>
      <point x="55" y="125" type="curve" smooth="yes"/>
      <point x="55" y="51"/>
      <point x="92" y="-4"/>
      <point x="157" y="-4" type="curve" smooth="yes"/>
      <point x="198" y="-4"/>
      <point x="250" y="13"/>
      <point x="283" y="39" type="curve"/>
      <point x="272" y="-29" type="line" smooth="yes"/>
      <point x="263" y="-83"/>
      <point x="216" y="-100"/>
      <point x="158" y="-100" type="curve" smooth="yes"/>
      <point x="39" y="-100" type="line"/>
      <point x="29" y="-161" type="line"/>
    </contour>
    <contour>
      <point x="200" y="67" type="curve" smooth="yes"/>
      <point x="167" y="67"/>
      <point x="143" y="90"/>
      <point x="143" y="139" type="curve" smooth="yes"/>
      <point x="143" y="158"/>
      <point x="145" y="172"/>
      <point x="150" y="201" type="curve" smooth="yes"/>
      <point x="164" y="283"/>
      <point x="198" y="317"/>
      <point x="259" y="315" type="curve" smooth="yes"/>
      <point x="281" y="314"/>
      <point x="304" y="313"/>
      <point x="325" y="310" type="curve"/>
      <point x="291" y="96" type="line"/>
      <point x="260" y="78"/>
      <point x="233" y="67"/>
    </contour>
  </outline>
</glyph>
<glyph name="h" format="2">
  <advance width="417"/>
  <unicode hex="0068"/>
  <note>
GF Latin Plus glyph
</note>
  <outline>
    <contour>
      <point x="42" y="0" type="line"/>
      <point x="130" y="0" type="line"/>
      <point x="173" y="273" type="line"/>
      <point x="206" y="295"/>
      <point x="235" y="308"/>
      <point x="275" y="308" type="curve" smooth="yes"/>
      <point x="307" y="308"/>
      <point x="327" y="296"/>
      <point x="327" y="260" type="curve" smooth="yes"/>
      <point x="327" y="254"/>
      <point x="327" y="247"/>
      <point x="326" y="240" type="curve" smooth="yes"/>
      <point x="288" y="0" type="line"/>
      <point x="376" y="0" type="line"/>
      <point x="416" y="251" type="line" smooth="yes"/>
      <point x="419" y="267"/>
      <point x="420" y="280"/>
      <point x="420" y="293" type="curve" smooth="yes"/>
      <point x="420" y="358"/>
      <point x="386" y="387"/>
      <point x="324" y="387" type="curve" smooth="yes"/>
      <point x="266" y="387"/>
      <point x="218" y="366"/>
      <point x="184" y="342" type="curve"/>
      <point x="216" y="545" type="line"/>
      <point x="128" y="545" type="line"/>
    </contour>
  </outline>
</glyph>
<glyph name="i" format="2">
  <advance width="171"/>
  <unicode hex="0069"/>
  <note>
GF Latin Plus glyph
</note>
  <anchor x="75" y="-107" name="bottom"/>
  <outline>
    <component base="dotlessi"/>
    <contour>
      <point x="123" y="443" type="curve" smooth="yes"/>
      <point x="190" y="443" type="line" smooth="yes"/>
      <point x="198" y="443"/>
      <point x="203" y="447"/>
      <point x="205" y="456" type="curve" smooth="yes"/>
      <point x="215" y="521" type="line" smooth="yes"/>
      <point x="216" y="529"/>
      <point x="213" y="535"/>
      <point x="205" y="535" type="curve" smooth="yes"/>
      <point x="137" y="535" type="line" smooth="yes"/>
      <point x="128" y="535"/>
      <point x="123" y="529"/>
      <point x="122" y="521" type="curve" smooth="yes"/>
      <point x="112" y="456" type="line" smooth="yes"/>
      <point x="110" y="448"/>
      <point x="115" y="443"/>
    </contour>
  </outline>
</glyph>
<glyph name="k" format="2">
  <advance width="392"/>
  <unicode hex="006B"/>
  <note>
GF Latin Plus glyph
</note>
  <anchor x="186" y="-107" name="bottom"/>
  <outline>
    <contour>
      <point x="42" y="0" type="line"/>
      <point x="130" y="0" type="line"/>
      <point x="158" y="174" type="line"/>
      <point x="171" y="174"/>
      <point x="193" y="176"/>
      <point x="209" y="181" type="curve"/>
      <point x="297" y="0" type="line"/>
      <point x="388" y="0" type="line"/>
      <point x="284" y="208" type="line"/>
      <point x="330" y="231"/>
      <point x="380" y="278"/>
      <point x="409" y="382" type="curve"/>
      <point x="321" y="382" type="line"/>
      <point x="296" y="291"/>
      <point x="242" y="249"/>
      <point x="168" y="241" type="curve"/>
      <point x="216" y="545" type="line"/>
      <point x="128" y="545" type="line"/>
    </contour>
  </outline>
</glyph>
<glyph name="l" format="2">
  <advance width="222"/>
  <unicode hex="006C"/>
  <note>
GF Latin Plus glyph
</note>
  <anchor x="111" y="-107" name="bottom"/>
  <anchor x="182" y="607" name="top"/>
  <outline>
    <contour>
      <point x="164" y="0" type="curve" smooth="yes"/>
      <point x="209" y="0" type="line"/>
      <point x="219" y="63" type="line"/>
      <point x="189" y="67" type="line" smooth="yes"/>
      <point x="164" y="71"/>
      <point x="149" y="79"/>
      <point x="149" y="107" type="curve" smooth="yes"/>
      <point x="149" y="123"/>
      <point x="154" y="149"/>
      <point x="155" y="161" type="curve" smooth="yes"/>
      <point x="216" y="545" type="line"/>
      <point x="128" y="545" type="line"/>
      <point x="62" y="132" type="line" smooth="yes"/>
      <point x="60" y="117"/>
      <point x="58" y="100"/>
      <point x="58" y="82" type="curve" smooth="yes"/>
      <point x="58" y="32"/>
      <point x="95" y="0"/>
    </contour>
  </outline>
</glyph>
<glyph name="m" format="2">
  <advance width="664"/>
  <unicode hex="006D"/>
  <note>
GF Latin Plus glyph
</note>
  <anchor x="315" y="-107" name="bottom"/>
  <anchor x="405" y="464" name="top"/>
  <outline>
    <contour>
      <point x="42" y="0" type="line"/>
      <point x="130" y="0" type="line"/>
      <point x="173" y="273" type="line"/>
      <point x="205" y="292"/>
      <point x="232" y="308"/>
      <point x="273" y="308" type="curve" smooth="yes"/>
      <point x="311" y="308"/>
      <point x="327" y="290"/>
      <point x="327" y="260" type="curve" smooth="yes"/>
      <point x="327" y="252"/>
      <point x="327" y="247"/>
      <point x="326" y="238" type="curve" smooth="yes"/>
      <point x="288" y="0" type="line"/>
      <point x="376" y="0" type="line"/>
      <point x="414" y="237" type="line" smooth="yes"/>
      <point x="416" y="251"/>
      <point x="417" y="261"/>
      <point x="416" y="270" type="curve"/>
      <point x="449" y="293"/>
      <point x="480" y="308"/>
      <point x="519" y="308" type="curve" smooth="yes"/>
      <point x="555" y="308"/>
      <point x="574" y="292"/>
      <point x="574" y="259" type="curve" smooth="yes"/>
      <point x="574" y="253"/>
      <point x="573" y="247"/>
      <point x="572" y="242" type="curve" smooth="yes"/>
      <point x="534" y="0" type="line"/>
      <point x="622" y="0" type="line"/>
      <point x="661" y="244" type="line" smooth="yes"/>
      <point x="664" y="259"/>
      <point x="666" y="278"/>
      <point x="666" y="295" type="curve" smooth="yes"/>
      <point x="666" y="354"/>
      <point x="635" y="387"/>
      <point x="564" y="387" type="curve" smooth="yes"/>
      <point x="517" y="387"/>
      <point x="461" y="369"/>
      <point x="417" y="330" type="curve"/>
      <point x="399" y="369"/>
      <point x="372" y="387"/>
      <point x="323" y="387" type="curve" smooth="yes"/>
      <point x="266" y="387"/>
      <point x="221" y="367"/>
      <point x="184" y="342" type="curve"/>
      <point x="175" y="382" type="line"/>
      <point x="102" y="382" type="line"/>
    </contour>
  </outline>
</glyph>
<glyph name="n" format="2">
  <advance width="417"/>
  <unicode hex="006E"/>
  <note>
GF Latin Plus glyph
</note>
  <anchor x="187" y="-107" name="bottom"/>
  <anchor x="277" y="464" name="top"/>
  <outline>
    <contour>
      <point x="42" y="0" type="line"/>
      <point x="130" y="0" type="line"/>
      <point x="173" y="273" type="line"/>
      <point x="205" y="295"/>
      <point x="235" y="308"/>
      <point x="273" y="308" type="curve" smooth="yes"/>
      <point x="313" y="308"/>
      <point x="327" y="288"/>
      <point x="327" y="260" type="curve" smooth="yes"/>
      <point x="327" y="253"/>
      <point x="326" y="245"/>
      <point x="323" y="222" type="curve" smooth="yes"/>
      <point x="288" y="0" type="line"/>
      <point x="376" y="0" type="line"/>
      <point x="412" y="225" type="line" smooth="yes"/>
      <point x="419" y="271"/>
      <point x="420" y="285"/>
      <point x="420" y="300" type="curve" smooth="yes"/>
      <point x="420" y="350"/>
      <point x="388" y="387"/>
      <point x="322" y="387" type="curve" smooth="yes"/>
      <point x="268" y="387"/>
      <point x="220" y="368"/>
      <point x="184" y="342" type="curve"/>
      <point x="175" y="382" type="line"/>
      <point x="102" y="382" type="line"/>
    </contour>
  </outline>
</glyph>
<glyph name="o" format="2">
  <advance width="407"/>
  <unicode hex="006F"/>
  <note>
GF Latin Plus glyph
</note>
  <anchor x="180" y="-107" name="bottom"/>
  <anchor x="270" y="464" name="top"/>
  <outline>
    <contour>
      <point x="203" y="-4" type="curve" smooth="yes"/>
      <point x="325" y="-4"/>
      <point x="382" y="32"/>
      <point x="405" y="172" type="curve" smooth="yes"/>
      <point x="409" y="200"/>
      <point x="411" y="226"/>
      <point x="411" y="249" type="curve" smooth="yes"/>
      <point x="411" y="341"/>
      <point x="380" y="386"/>
      <point x="264" y="386" type="curve" smooth="yes"/>
      <point x="142" y="386"/>
      <point x="86" y="352"/>
      <point x="61" y="199" type="curve" smooth="yes"/>
      <point x="58" y="176"/>
      <point x="56" y="153"/>
      <point x="56" y="127" type="curve" smooth="yes"/>
      <point x="56" y="37"/>
      <point x="108" y="-4"/>
    </contour>
    <contour>
      <point x="213" y="67" type="curve" smooth="yes"/>
      <point x="169" y="67"/>
      <point x="143" y="79"/>
      <point x="143" y="131" type="curve" smooth="yes"/>
      <point x="143" y="147"/>
      <point x="145" y="164"/>
      <point x="148" y="185" type="curve" smooth="yes"/>
      <point x="165" y="293"/>
      <point x="188" y="317"/>
      <point x="252" y="317" type="curve" smooth="yes"/>
      <point x="303" y="317"/>
      <point x="323" y="300"/>
      <point x="323" y="253" type="curve" smooth="yes"/>
      <point x="323" y="234"/>
      <point x="320" y="212"/>
      <point x="316" y="185" type="curve" smooth="yes"/>
      <point x="301" y="87"/>
      <point x="275" y="67"/>
    </contour>
  </outline>
</glyph>
<glyph name="p" format="2">
  <advance width="406"/>
  <unicode hex="0070"/>
  <note>
GF Latin Plus glyph
</note>
  <anchor x="274" y="464" name="top"/>
  <outline>
    <contour>
      <point x="14" y="-169" type="line"/>
      <point x="103" y="-169" type="line"/>
      <point x="132" y="13" type="line"/>
      <point x="157" y="0"/>
      <point x="189" y="-4"/>
      <point x="226" y="-4" type="curve" smooth="yes"/>
      <point x="323" y="-4"/>
      <point x="385" y="57"/>
      <point x="404" y="176" type="curve" smooth="yes"/>
      <point x="408" y="201"/>
      <point x="411" y="228"/>
      <point x="411" y="252" type="curve" smooth="yes"/>
      <point x="411" y="342"/>
      <point x="374" y="386"/>
      <point x="286" y="386" type="curve" smooth="yes"/>
      <point x="215" y="386"/>
      <point x="158" y="380"/>
      <point x="100" y="370" type="curve"/>
    </contour>
    <contour>
      <point x="216" y="71" type="curve" smooth="yes"/>
      <point x="186" y="71"/>
      <point x="169" y="74"/>
      <point x="143" y="83" type="curve"/>
      <point x="179" y="314" type="line"/>
      <point x="262" y="315" type="line" smooth="yes"/>
      <point x="305" y="315"/>
      <point x="324" y="289"/>
      <point x="324" y="237" type="curve" smooth="yes"/>
      <point x="324" y="222"/>
      <point x="321" y="207"/>
      <point x="319" y="193" type="curve" smooth="yes"/>
      <point x="305" y="109"/>
      <point x="277" y="71"/>
    </contour>
  </outline>
</glyph>
<glyph name="q" format="2">
  <advance width="405"/>
  <unicode hex="0071"/>
  <note>
GF Latin Plus glyph
</note>
  <outline>
    <contour>
      <point x="249" y="-169" type="line"/>
      <point x="337" y="-169" type="line"/>
      <point x="422" y="366" type="line"/>
      <point x="388" y="377"/>
      <point x="323" y="386"/>
      <point x="262" y="386" type="curve" smooth="yes"/>
      <point x="151" y="386"/>
      <point x="84" y="338"/>
      <point x="62" y="202" type="curve" smooth="yes"/>
      <point x="58" y="174"/>
      <point x="55" y="148"/>
      <point x="55" y="124" type="curve" smooth="yes"/>
      <point x="55" y="43"/>
      <point x="89" y="-4"/>
      <point x="157" y="-4" type="curve" smooth="yes"/>
      <point x="197" y="-4"/>
      <point x="247" y="12"/>
      <point x="282" y="39" type="curve"/>
    </contour>
    <contour>
      <point x="199" y="67" type="curve" smooth="yes"/>
      <point x="165" y="67"/>
      <point x="143" y="92"/>
      <point x="143" y="140" type="curve" smooth="yes"/>
      <point x="143" y="154"/>
      <point x="145" y="172"/>
      <point x="148" y="195" type="curve" smooth="yes"/>
      <point x="162" y="276"/>
      <point x="189" y="317"/>
      <point x="264" y="315" type="curve" smooth="yes"/>
      <point x="284" y="314"/>
      <point x="304" y="313"/>
      <point x="325" y="310" type="curve"/>
      <point x="291" y="96" type="line"/>
      <point x="262" y="79"/>
      <point x="232" y="67"/>
    </contour>
  </outline>
</glyph>
<glyph name="r" format="2">
  <advance width="293"/>
  <unicode hex="0072"/>
  <note>
GF Latin Plus glyph
</note>
  <anchor x="70" y="-107" name="bottom"/>
  <anchor x="221" y="465" name="top"/>
  <outline>
    <contour>
      <point x="42" y="0" type="line"/>
      <point x="130" y="0" type="line"/>
      <point x="172" y="263" type="line"/>
      <point x="197" y="280"/>
      <point x="231" y="296"/>
      <point x="274" y="296" type="curve" smooth="yes"/>
      <point x="291" y="296"/>
      <point x="306" y="295"/>
      <point x="321" y="293" type="curve"/>
      <point x="334" y="382" type="line"/>
      <point x="322" y="385"/>
      <point x="309" y="386"/>
      <point x="293" y="386" type="curve" smooth="yes"/>
      <point x="247" y="386"/>
      <point x="212" y="362"/>
      <point x="183" y="334" type="curve"/>
      <point x="180" y="382" type="line"/>
      <point x="102" y="382" type="line"/>
    </contour>
  </outline>
</glyph>
<glyph name="s" format="2">
  <advance width="364"/>
  <unicode hex="0073"/>
  <note>
GF Latin Plus glyph
</note>
  <outline>
    <contour>
      <point x="191" y="-4" type="curve" smooth="yes"/>
      <point x="279" y="-4"/>
      <point x="337" y="20"/>
      <point x="348" y="89" type="curve" smooth="yes"/>
      <point x="353" y="123" type="line" smooth="yes"/>
      <point x="355" y="133"/>
      <point x="355" y="142"/>
      <point x="355" y="151" type="curve" smooth="yes"/>
      <point x="355" y="198"/>
      <point x="316" y="226"/>
      <point x="258" y="226" type="curve" smooth="yes"/>
      <point x="191" y="226" type="line" smooth="yes"/>
      <point x="161" y="226"/>
      <point x="150" y="233"/>
      <point x="150" y="249" type="curve" smooth="yes"/>
      <point x="150" y="253"/>
      <point x="151" y="258"/>
      <point x="152" y="266" type="curve" smooth="yes"/>
      <point x="155" y="282" type="line" smooth="yes"/>
      <point x="160" y="308"/>
      <point x="174" y="319"/>
      <point x="209" y="319" type="curve" smooth="yes"/>
      <point x="362" y="319" type="line"/>
      <point x="371" y="371" type="line"/>
      <point x="335" y="380"/>
      <point x="269" y="386"/>
      <point x="226" y="386" type="curve" smooth="yes"/>
      <point x="123" y="386"/>
      <point x="86" y="346"/>
      <point x="76" y="288" type="curve" smooth="yes"/>
      <point x="71" y="259" type="line" smooth="yes"/>
      <point x="69" y="248"/>
      <point x="69" y="237"/>
      <point x="69" y="227" type="curve" smooth="yes"/>
      <point x="69" y="176"/>
      <point x="111" y="154"/>
      <point x="174" y="154" type="curve" smooth="yes"/>
      <point x="236" y="154" type="line" smooth="yes"/>
      <point x="260" y="154"/>
      <point x="273" y="145"/>
      <point x="273" y="127" type="curve" smooth="yes"/>
      <point x="273" y="124"/>
      <point x="273" y="122"/>
      <point x="272" y="118" type="curve" smooth="yes"/>
      <point x="269" y="98" type="line" smooth="yes"/>
      <point x="264" y="72"/>
      <point x="243" y="62"/>
      <point x="211" y="62" type="curve" smooth="yes"/>
      <point x="47" y="62" type="line"/>
      <point x="39" y="10" type="line"/>
      <point x="72" y="1"/>
      <point x="135" y="-4"/>
    </contour>
  </outline>
</glyph>
<glyph name="t" format="2">
  <advance width="285"/>
  <unicode hex="0074"/>
  <note>
GF Latin Plus glyph
</note>
  <anchor x="159" y="-107" name="bottom"/>
  <anchor x="209" y="535" name="top"/>
  <outline>
    <contour>
      <point x="197" y="0" type="curve" smooth="yes"/>
      <point x="251" y="0" type="line"/>
      <point x="262" y="65" type="line"/>
      <point x="218" y="69" type="line" smooth="yes"/>
      <point x="190" y="72"/>
      <point x="177" y="82"/>
      <point x="177" y="108" type="curve" smooth="yes"/>
      <point x="177" y="121"/>
      <point x="180" y="138"/>
      <point x="182" y="149" type="curve" smooth="yes"/>
      <point x="208" y="311" type="line"/>
      <point x="305" y="311" type="line"/>
      <point x="316" y="382" type="line"/>
      <point x="219" y="382" type="line"/>
      <point x="236" y="489" type="line"/>
      <point x="167" y="489" type="line"/>
      <point x="137" y="382" type="line"/>
      <point x="72" y="368" type="line"/>
      <point x="63" y="311" type="line"/>
      <point x="123" y="311" type="line"/>
      <point x="95" y="149" type="line" smooth="yes"/>
      <point x="90" y="124"/>
      <point x="88" y="102"/>
      <point x="88" y="84" type="curve" smooth="yes"/>
      <point x="88" y="28"/>
      <point x="124" y="0"/>
    </contour>
  </outline>
</glyph>
<glyph name="u" format="2">
  <advance width="417"/>
  <unicode hex="0075"/>
  <note>
GF Latin Plus glyph
</note>
  <outline>
    <contour>
      <point x="153" y="-4" type="curve" smooth="yes"/>
      <point x="215" y="-4"/>
      <point x="251" y="12"/>
      <point x="293" y="40" type="curve"/>
      <point x="298" y="0" type="line"/>
      <point x="375" y="0" type="line"/>
      <point x="436" y="382" type="line"/>
      <point x="347" y="382" type="line"/>
      <point x="304" y="109" type="line"/>
      <point x="272" y="88"/>
      <point x="243" y="75"/>
      <point x="203" y="75" type="curve" smooth="yes"/>
      <point x="169" y="75"/>
      <point x="150" y="89"/>
      <point x="150" y="120" type="curve" smooth="yes"/>
      <point x="150" y="127"/>
      <point x="151" y="133"/>
      <point x="152" y="139" type="curve" smooth="yes"/>
      <point x="190" y="382" type="line"/>
      <point x="101" y="382" type="line"/>
      <point x="61" y="129" type="line" smooth="yes"/>
      <point x="59" y="117"/>
      <point x="58" y="103"/>
      <point x="58" y="85" type="curve" smooth="yes"/>
      <point x="58" y="29"/>
      <point x="87" y="-4"/>
    </contour>
  </outline>
</glyph>
<glyph name="v" format="2">
  <advance width="389"/>
  <unicode hex="0076"/>
  <note>
GF Latin Plus glyph
</note>
  <outline>
    <contour>
      <point x="135" y="0" type="line"/>
      <point x="236" y="0" type="line"/>
      <point x="368" y="246" type="line" smooth="yes"/>
      <point x="390" y="290"/>
      <point x="411" y="339"/>
      <point x="412" y="388" type="curve"/>
      <point x="331" y="388" type="line"/>
      <point x="327" y="348"/>
      <point x="317" y="318"/>
      <point x="301" y="284" type="curve" smooth="yes"/>
      <point x="200" y="83" type="line"/>
      <point x="153" y="382" type="line"/>
      <point x="62" y="382" type="line"/>
    </contour>
  </outline>
</glyph>
<glyph name="w" format="2">
  <advance width="599"/>
  <unicode hex="0077"/>
  <note>
GF Latin Plus glyph
</note>
  <outline>
    <contour>
      <point x="127" y="0" type="line"/>
      <point x="221" y="0" type="line"/>
      <point x="326" y="240" type="line"/>
      <point x="370" y="0" type="line"/>
      <point x="464" y="0" type="line"/>
      <point x="589" y="262" type="line" smooth="yes"/>
      <point x="604" y="294"/>
      <point x="622" y="347"/>
      <point x="622" y="388" type="curve"/>
      <point x="537" y="388" type="line"/>
      <point x="534" y="358"/>
      <point x="520" y="315"/>
      <point x="513" y="296" type="curve" smooth="yes"/>
      <point x="428" y="83" type="line"/>
      <point x="375" y="382" type="line"/>
      <point x="316" y="382" type="line"/>
      <point x="194" y="84" type="line"/>
      <point x="153" y="382" type="line"/>
      <point x="62" y="382" type="line"/>
    </contour>
  </outline>
</glyph>
<glyph name="x" format="2">
  <advance width="390"/>
  <unicode hex="0078"/>
  <note>
GF Latin Plus glyph
</note>
  <outline>
    <contour>
      <point x="288" y="0" type="line"/>
      <point x="379" y="0" type="line"/>
      <point x="259" y="207" type="line"/>
      <point x="157" y="382" type="line"/>
      <point x="66" y="382" type="line"/>
      <point x="194" y="162" type="line"/>
    </contour>
    <contour>
      <point x="10" y="0" type="line"/>
      <point x="102" y="0" type="line"/>
      <point x="217" y="134" type="line"/>
      <point x="193" y="215" type="line"/>
    </contour>
    <contour>
      <point x="254" y="161" type="line"/>
      <point x="435" y="382" type="line"/>
      <point x="339" y="382" type="line"/>
      <point x="223" y="233" type="line"/>
    </contour>
  </outline>
</glyph>
<glyph name="y" format="2">
  <advance width="406"/>
  <unicode hex="0079"/>
  <note>
GF Latin Plus glyph
</note>
  <outline>
    <contour>
      <point x="68" y="-169" type="line"/>
      <point x="157" y="-160"/>
      <point x="222" y="-118"/>
      <point x="281" y="4" type="curve" smooth="yes"/>
      <point x="392" y="239" type="line" smooth="yes"/>
      <point x="418" y="294"/>
      <point x="429" y="342"/>
      <point x="429" y="388" type="curve"/>
      <point x="347" y="388" type="line"/>
      <point x="346" y="357"/>
      <point x="335" y="324"/>
      <point x="325" y="299" type="curve" smooth="yes"/>
      <point x="228" y="72" type="line"/>
      <point x="208" y="74"/>
      <point x="187" y="81"/>
      <point x="183" y="116" type="curve" smooth="yes"/>
      <point x="157" y="382" type="line"/>
      <point x="66" y="382" type="line"/>
      <point x="104" y="97" type="line" smooth="yes"/>
      <point x="113" y="31"/>
      <point x="140" y="5"/>
      <point x="200" y="0" type="curve"/>
      <point x="168" y="-66"/>
      <point x="122" y="-94"/>
      <point x="68" y="-105" type="curve"/>
    </contour>
  </outline>
</glyph>
<glyph name="z" format="2">
  <advance width="357"/>
  <unicode hex="007A"/>
  <note>
GF Latin Plus glyph
</note>
  <anchor x="148" y="-107" name="bottom"/>
  <anchor x="238" y="464" name="top"/>
  <outline>
    <contour>
      <point x="32" y="0" type="line"/>
      <point x="329" y="0" type="line"/>
      <point x="329" y="0"/>
      <point x="341" y="70"/>
      <point x="340" y="71" type="curve"/>
      <point x="145" y="71" type="line"/>
      <point x="374" y="318" type="line"/>
      <point x="384" y="382" type="line"/>
      <point x="83" y="382" type="line"/>
      <point x="72" y="311" type="line"/>
      <point x="271" y="311" type="line"/>
      <point x="42" y="64" type="line"/>
    </contour>
  </outline>
</glyph>
<glyph name="braceleft" format="2">
  <advance width="224"/>
  <unicode hex="007B"/>
  <note>
GF Latin Plus glyph
</note>
  <outline>
    <contour>
      <point x="200" y="-150" type="curve"/>
      <point x="211" y="-83" type="line"/>
      <point x="176" y="-83"/>
      <point x="160" y="-70"/>
      <point x="160" y="-36" type="curve" smooth="yes"/>
      <point x="160" y="-12"/>
      <point x="193" y="157"/>
      <point x="193" y="180" type="curve" smooth="yes"/>
      <point x="193" y="210"/>
      <point x="172" y="232"/>
      <point x="135" y="238" type="curve"/>
      <point x="175" y="242"/>
      <point x="207" y="263"/>
      <point x="214" y="308" type="curve" smooth="yes"/>
      <point x="236" y="450" type="line" smooth="yes"/>
      <point x="246" y="515"/>
      <point x="264" y="530"/>
      <point x="308" y="530" type="curve"/>
      <point x="320" y="601" type="line"/>
      <point x="212" y="601"/>
      <point x="166" y="565"/>
      <point x="150" y="468" type="curve" smooth="yes"/>
      <point x="127" y="323" type="line" smooth="yes"/>
      <point x="122" y="290"/>
      <point x="93" y="281"/>
      <point x="69" y="279" type="curve"/>
      <point x="56" y="197" type="line"/>
      <point x="89" y="197"/>
      <point x="101" y="186"/>
      <point x="101" y="160" type="curve" smooth="yes"/>
      <point x="101" y="139"/>
      <point x="68" y="-22"/>
      <point x="68" y="-61" type="curve" smooth="yes"/>
      <point x="68" y="-118"/>
      <point x="102" y="-150"/>
    </contour>
  </outline>
</glyph>
<glyph name="bar" format="2">
  <advance width="179"/>
  <unicode hex="007C"/>
  <note>
GF Latin Plus glyph
</note>
  <outline>
    <contour>
      <point x="46" y="-51" type="line"/>
      <point x="117" y="-51" type="line"/>
      <point x="212" y="550" type="line"/>
      <point x="141" y="550" type="line"/>
    </contour>
  </outline>
</glyph>
<glyph name="braceright" format="2">
  <advance width="224"/>
  <unicode hex="007D"/>
  <note>
GF Latin Plus glyph
</note>
  <outline>
    <contour>
      <point x="-10" y="-150" type="line"/>
      <point x="107" y="-150"/>
      <point x="144" y="-110"/>
      <point x="157" y="-27" type="curve" smooth="yes"/>
      <point x="183" y="139" type="line" smooth="yes"/>
      <point x="189" y="170"/>
      <point x="212" y="182"/>
      <point x="241" y="182" type="curve"/>
      <point x="254" y="265" type="line"/>
      <point x="233" y="267"/>
      <point x="209" y="274"/>
      <point x="209" y="301" type="curve" smooth="yes"/>
      <point x="209" y="317"/>
      <point x="237" y="489"/>
      <point x="237" y="501" type="curve" smooth="yes"/>
      <point x="237" y="562"/>
      <point x="200" y="601"/>
      <point x="108" y="601" type="curve"/>
      <point x="97" y="530" type="line"/>
      <point x="129" y="530"/>
      <point x="146" y="518"/>
      <point x="146" y="482" type="curve" smooth="yes"/>
      <point x="146" y="462"/>
      <point x="118" y="306"/>
      <point x="118" y="279" type="curve" smooth="yes"/>
      <point x="118" y="244"/>
      <point x="141" y="227"/>
      <point x="175" y="224" type="curve"/>
      <point x="131" y="217"/>
      <point x="104" y="192"/>
      <point x="98" y="156" type="curve" smooth="yes"/>
      <point x="70" y="-12" type="line" smooth="yes"/>
      <point x="63" y="-59"/>
      <point x="46" y="-83"/>
      <point x="0" y="-83" type="curve"/>
    </contour>
  </outline>
</glyph>
<glyph name="asciitilde" format="2">
  <advance width="308"/>
  <unicode hex="007E"/>
  <note>
GF Latin Plus glyph
</note>
  <outline>
    <contour>
      <point x="259" y="382" type="curve" smooth="yes"/>
      <point x="293" y="382"/>
      <point x="322" y="407"/>
      <point x="345" y="430" type="curve"/>
      <point x="338" y="463" type="line"/>
      <point x="320" y="449"/>
      <point x="294" y="431"/>
      <point x="267" y="431" type="curve" smooth="yes"/>
      <point x="244" y="431"/>
      <point x="216" y="467"/>
      <point x="188" y="467" type="curve" smooth="yes"/>
      <point x="153" y="467"/>
      <point x="122" y="443"/>
      <point x="98" y="419" type="curve"/>
      <point x="105" y="389" type="line"/>
      <point x="132" y="406"/>
      <point x="152" y="418"/>
      <point x="179" y="418" type="curve" smooth="yes"/>
      <point x="205" y="418"/>
      <point x="229" y="382"/>
    </contour>
  </outline>
</glyph>
<glyph name="cent" format="2">
  <advance width="347"/>
  <unicode hex="00A2"/>
  <note>
GF Latin Plus glyph
</note>
  <outline>
    <contour>
      <point x="153" y="-64" type="line"/>
      <point x="203" y="-64" type="line"/>
      <point x="213" y="-3" type="line"/>
      <point x="252" y="0"/>
      <point x="285" y="3"/>
      <point x="325" y="20" type="curve"/>
      <point x="333" y="73" type="line"/>
      <point x="312" y="69"/>
      <point x="272" y="63"/>
      <point x="211" y="63" type="curve" smooth="yes"/>
      <point x="163" y="63"/>
      <point x="138" y="76"/>
      <point x="138" y="133" type="curve" smooth="yes"/>
      <point x="138" y="233"/>
      <point x="178" y="315"/>
      <point x="253" y="315" type="curve" smooth="yes"/>
      <point x="308" y="315"/>
      <point x="349" y="311"/>
      <point x="366" y="308" type="curve"/>
      <point x="374" y="360" type="line"/>
      <point x="342" y="371"/>
      <point x="306" y="379"/>
      <point x="276" y="381" type="curve"/>
      <point x="286" y="448" type="line"/>
      <point x="235" y="448" type="line"/>
      <point x="225" y="382" type="line"/>
      <point x="125" y="380"/>
      <point x="49" y="280"/>
      <point x="49" y="131" type="curve" smooth="yes"/>
      <point x="49" y="25"/>
      <point x="98" y="1"/>
      <point x="162" y="-3" type="curve"/>
    </contour>
  </outline>
</glyph>
<glyph name="sterling" format="2">
  <advance width="435"/>
  <unicode hex="00A3"/>
  <note>
GF Latin Plus glyph
</note>
  <outline>
    <contour>
      <point x="42" y="0" type="line"/>
      <point x="395" y="0" type="line"/>
      <point x="408" y="79" type="line"/>
      <point x="214" y="79" type="line"/>
      <point x="237" y="230" type="line"/>
      <point x="377" y="236" type="line"/>
      <point x="385" y="285" type="line"/>
      <point x="248" y="293" type="line"/>
      <point x="260" y="369" type="line" smooth="yes"/>
      <point x="270" y="435"/>
      <point x="298" y="450"/>
      <point x="353" y="450" type="curve" smooth="yes"/>
      <point x="461" y="450" type="line"/>
      <point x="473" y="521" type="line"/>
      <point x="447" y="525"/>
      <point x="406" y="529"/>
      <point x="362" y="529" type="curve" smooth="yes"/>
      <point x="252" y="529"/>
      <point x="190" y="487"/>
      <point x="169" y="359" type="curve" smooth="yes"/>
      <point x="159" y="293" type="line"/>
      <point x="87" y="281" type="line"/>
      <point x="80" y="236" type="line"/>
      <point x="149" y="230" type="line"/>
      <point x="125" y="79" type="line"/>
      <point x="53" y="67" type="line"/>
    </contour>
  </outline>
</glyph>
<glyph name="currency" format="2">
  <advance width="435"/>
  <unicode hex="00A4"/>
  <note>
GF Latin Plus glyph
</note>
  <outline>
    <contour>
      <point x="241" y="130" type="curve" smooth="yes"/>
      <point x="321" y="130"/>
      <point x="382" y="194"/>
      <point x="382" y="270" type="curve" smooth="yes"/>
      <point x="382" y="328"/>
      <point x="335" y="377"/>
      <point x="273" y="377" type="curve" smooth="yes"/>
      <point x="194" y="377"/>
      <point x="133" y="313"/>
      <point x="133" y="238" type="curve" smooth="yes"/>
      <point x="133" y="179"/>
      <point x="180" y="130"/>
    </contour>
    <contour>
      <point x="101" y="86" type="line"/>
      <point x="193" y="163" type="line"/>
      <point x="158" y="201" type="line"/>
      <point x="69" y="124" type="line"/>
    </contour>
    <contour>
      <point x="361" y="86" type="line"/>
      <point x="404" y="124" type="line"/>
      <point x="341" y="199" type="line"/>
      <point x="297" y="162" type="line"/>
    </contour>
    <contour>
      <point x="245" y="177" type="curve" smooth="yes"/>
      <point x="208" y="177"/>
      <point x="181" y="206"/>
      <point x="181" y="242" type="curve" smooth="yes"/>
      <point x="181" y="297"/>
      <point x="221" y="331"/>
      <point x="269" y="331" type="curve" smooth="yes"/>
      <point x="307" y="331"/>
      <point x="335" y="302"/>
      <point x="335" y="266" type="curve" smooth="yes"/>
      <point x="335" y="209"/>
      <point x="295" y="177"/>
    </contour>
    <contour>
      <point x="173" y="310" type="line"/>
      <point x="216" y="347" type="line"/>
      <point x="153" y="421" type="line"/>
      <point x="111" y="384" type="line"/>
    </contour>
    <contour>
      <point x="358" y="308" type="line"/>
      <point x="446" y="384" type="line"/>
      <point x="414" y="421" type="line"/>
      <point x="326" y="346" type="line"/>
    </contour>
  </outline>
</glyph>
<glyph name="yen" format="2">
  <advance width="435"/>
  <unicode hex="00A5"/>
  <note>
GF Latin Plus glyph
</note>
  <outline>
    <component base="Y" xOffset="-12"/>
    <contour>
      <point x="74" y="186" type="line"/>
      <point x="397" y="186" type="line"/>
      <point x="405" y="232" type="line"/>
      <point x="82" y="232" type="line"/>
    </contour>
    <contour>
      <point x="59" y="90" type="line"/>
      <point x="382" y="90" type="line"/>
      <point x="390" y="136" type="line"/>
      <point x="67" y="136" type="line"/>
    </contour>
  </outline>
</glyph>
<glyph name="brokenbar" format="2">
  <advance width="179"/>
  <unicode hex="00A6"/>
  <note>
GF Latin Plus glyph
</note>
  <outline>
    <contour>
      <point x="102" y="306" type="line"/>
      <point x="174" y="306" type="line"/>
      <point x="212" y="550" type="line"/>
      <point x="141" y="550" type="line"/>
    </contour>
    <contour>
      <point x="46" y="-51" type="line"/>
      <point x="117" y="-51" type="line"/>
      <point x="155" y="182" type="line"/>
      <point x="83" y="182" type="line"/>
    </contour>
  </outline>
</glyph>
<glyph name="section" format="2">
  <advance width="387"/>
  <unicode hex="00A7"/>
  <note>
GF Latin Plus glyph
</note>
  <outline>
    <contour>
      <point x="224" y="-4" type="curve" smooth="yes"/>
      <point x="302" y="-4"/>
      <point x="355" y="19"/>
      <point x="367" y="99" type="curve" smooth="yes"/>
      <point x="372" y="133" type="line" smooth="yes"/>
      <point x="375" y="146"/>
      <point x="376" y="153"/>
      <point x="376" y="161" type="curve" smooth="yes"/>
      <point x="376" y="185"/>
      <point x="366" y="202"/>
      <point x="342" y="210" type="curve"/>
      <point x="378" y="221"/>
      <point x="395" y="245"/>
      <point x="401" y="279" type="curve" smooth="yes"/>
      <point x="406" y="311" type="line" smooth="yes"/>
      <point x="407" y="319"/>
      <point x="408" y="326"/>
      <point x="408" y="332" type="curve" smooth="yes"/>
      <point x="408" y="376"/>
      <point x="377" y="393"/>
      <point x="310" y="393" type="curve" smooth="yes"/>
      <point x="228" y="393" type="line" smooth="yes"/>
      <point x="201" y="393"/>
      <point x="189" y="398"/>
      <point x="189" y="416" type="curve" smooth="yes"/>
      <point x="189" y="420"/>
      <point x="191" y="428"/>
      <point x="194" y="448" type="curve" smooth="yes"/>
      <point x="199" y="480"/>
      <point x="218" y="488"/>
      <point x="253" y="488" type="curve" smooth="yes"/>
      <point x="404" y="488" type="line"/>
      <point x="414" y="549" type="line"/>
      <point x="380" y="557"/>
      <point x="293" y="560"/>
      <point x="251" y="560" type="curve" smooth="yes"/>
      <point x="164" y="560"/>
      <point x="122" y="524"/>
      <point x="112" y="462" type="curve" smooth="yes"/>
      <point x="106" y="424" type="line" smooth="yes"/>
      <point x="104" y="413"/>
      <point x="104" y="405"/>
      <point x="104" y="397" type="curve" smooth="yes"/>
      <point x="104" y="372"/>
      <point x="111" y="353"/>
      <point x="136" y="341" type="curve"/>
      <point x="100" y="330"/>
      <point x="81" y="314"/>
      <point x="75" y="271" type="curve" smooth="yes"/>
      <point x="70" y="243" type="line" smooth="yes"/>
      <point x="69" y="234"/>
      <point x="68" y="226"/>
      <point x="68" y="221" type="curve" smooth="yes"/>
      <point x="68" y="175"/>
      <point x="104" y="159"/>
      <point x="169" y="159" type="curve" smooth="yes"/>
      <point x="247" y="159" type="line" smooth="yes"/>
      <point x="278" y="159"/>
      <point x="287" y="154"/>
      <point x="287" y="141" type="curve" smooth="yes"/>
      <point x="287" y="136"/>
      <point x="285" y="125"/>
      <point x="281" y="102" type="curve" smooth="yes"/>
      <point x="277" y="80"/>
      <point x="266" y="66"/>
      <point x="218" y="66" type="curve" smooth="yes"/>
      <point x="71" y="66" type="line"/>
      <point x="62" y="4" type="line"/>
      <point x="101" y="-2"/>
      <point x="178" y="-4"/>
    </contour>
    <contour>
      <point x="201" y="225" type="line" smooth="yes"/>
      <point x="169" y="225"/>
      <point x="157" y="235"/>
      <point x="157" y="252" type="curve" smooth="yes"/>
      <point x="157" y="255"/>
      <point x="157" y="257"/>
      <point x="157" y="260" type="curve" smooth="yes"/>
      <point x="162" y="290" type="line" smooth="yes"/>
      <point x="166" y="317"/>
      <point x="180" y="326"/>
      <point x="217" y="326" type="curve" smooth="yes"/>
      <point x="279" y="326" type="line" smooth="yes"/>
      <point x="308" y="326"/>
      <point x="319" y="320"/>
      <point x="319" y="302" type="curve" smooth="yes"/>
      <point x="319" y="299"/>
      <point x="319" y="295"/>
      <point x="318" y="291" type="curve" smooth="yes"/>
      <point x="313" y="261" type="line" smooth="yes"/>
      <point x="308" y="229"/>
      <point x="299" y="225"/>
      <point x="257" y="225" type="curve" smooth="yes"/>
    </contour>
  </outline>
</glyph>
<glyph name="copyright" format="2">
  <advance width="586"/>
  <unicode hex="00A9"/>
  <note>
GF Latin Plus glyph
</note>
  <outline>
    <contour>
      <point x="234" y="0" type="curve" smooth="yes"/>
      <point x="381" y="0" type="line" smooth="yes"/>
      <point x="505" y="0"/>
      <point x="603" y="172"/>
      <point x="603" y="357" type="curve" smooth="yes"/>
      <point x="603" y="451"/>
      <point x="555" y="522"/>
      <point x="451" y="522" type="curve" smooth="yes"/>
      <point x="304" y="522" type="line" smooth="yes"/>
      <point x="145" y="522"/>
      <point x="69" y="344"/>
      <point x="69" y="190" type="curve" smooth="yes"/>
      <point x="69" y="86"/>
      <point x="124" y="0"/>
    </contour>
    <contour>
      <point x="287" y="105" type="curve" smooth="yes"/>
      <point x="333" y="105"/>
      <point x="375" y="106"/>
      <point x="418" y="122" type="curve"/>
      <point x="424" y="164" type="line"/>
      <point x="394" y="158"/>
      <point x="355" y="152"/>
      <point x="311" y="152" type="curve" smooth="yes"/>
      <point x="269" y="152"/>
      <point x="250" y="173"/>
      <point x="250" y="219" type="curve" smooth="yes"/>
      <point x="250" y="294"/>
      <point x="285" y="368"/>
      <point x="346" y="368" type="curve" smooth="yes"/>
      <point x="368" y="368"/>
      <point x="411" y="366"/>
      <point x="451" y="360" type="curve"/>
      <point x="458" y="401" type="line"/>
      <point x="421" y="412"/>
      <point x="365" y="416"/>
      <point x="337" y="416" type="curve" smooth="yes"/>
      <point x="258" y="416"/>
      <point x="197" y="316"/>
      <point x="197" y="207" type="curve" smooth="yes"/>
      <point x="197" y="125"/>
      <point x="238" y="105"/>
    </contour>
    <contour>
      <point x="229" y="47" type="line" smooth="yes"/>
      <point x="151" y="47"/>
      <point x="118" y="114"/>
      <point x="118" y="198" type="curve" smooth="yes"/>
      <point x="118" y="347"/>
      <point x="198" y="475"/>
      <point x="297" y="475" type="curve" smooth="yes"/>
      <point x="456" y="475" type="line" smooth="yes"/>
      <point x="527" y="475"/>
      <point x="554" y="420"/>
      <point x="554" y="349" type="curve" smooth="yes"/>
      <point x="554" y="179"/>
      <point x="471" y="47"/>
      <point x="384" y="47" type="curve" smooth="yes"/>
    </contour>
  </outline>
</glyph>
<glyph name="logicalnot" format="2">
  <advance width="435"/>
  <unicode hex="00AC"/>
  <note>
GF Latin Plus glyph
</note>
  <outline>
    <component base="minus" xOffset="13" yOffset="85"/>
    <contour>
      <point x="326" y="132" type="line"/>
      <point x="398" y="132" type="line"/>
      <point x="431" y="339" type="line"/>
      <point x="359" y="339" type="line"/>
    </contour>
  </outline>
</glyph>
<glyph name="registered" format="2">
  <advance width="586"/>
  <unicode hex="00AE"/>
  <note>
GF Latin Plus glyph
</note>
  <outline>
    <contour>
      <point x="234" y="0" type="curve" smooth="yes"/>
      <point x="381" y="0" type="line" smooth="yes"/>
      <point x="505" y="0"/>
      <point x="603" y="172"/>
      <point x="603" y="357" type="curve" smooth="yes"/>
      <point x="603" y="451"/>
      <point x="555" y="522"/>
      <point x="451" y="522" type="curve" smooth="yes"/>
      <point x="304" y="522" type="line" smooth="yes"/>
      <point x="145" y="522"/>
      <point x="69" y="344"/>
      <point x="69" y="190" type="curve" smooth="yes"/>
      <point x="69" y="86"/>
      <point x="124" y="0"/>
    </contour>
    <contour>
      <point x="200" y="109" type="line"/>
      <point x="252" y="109" type="line"/>
      <point x="272" y="235" type="line"/>
      <point x="335" y="233" type="line"/>
      <point x="380" y="109" type="line"/>
      <point x="432" y="109" type="line"/>
      <point x="384" y="232" type="line"/>
      <point x="429" y="241"/>
      <point x="459" y="292"/>
      <point x="459" y="344" type="curve" smooth="yes"/>
      <point x="459" y="401"/>
      <point x="421" y="414"/>
      <point x="379" y="414" type="curve" smooth="yes"/>
      <point x="249" y="414" type="line"/>
    </contour>
    <contour>
      <point x="229" y="47" type="line" smooth="yes"/>
      <point x="151" y="47"/>
      <point x="118" y="114"/>
      <point x="118" y="198" type="curve" smooth="yes"/>
      <point x="118" y="347"/>
      <point x="198" y="475"/>
      <point x="297" y="475" type="curve" smooth="yes"/>
      <point x="456" y="475" type="line" smooth="yes"/>
      <point x="527" y="475"/>
      <point x="554" y="420"/>
      <point x="554" y="349" type="curve" smooth="yes"/>
      <point x="554" y="179"/>
      <point x="471" y="47"/>
      <point x="384" y="47" type="curve" smooth="yes"/>
    </contour>
    <contour>
      <point x="278" y="273" type="line"/>
      <point x="293" y="366" type="line"/>
      <point x="372" y="366" type="line" smooth="yes"/>
      <point x="393" y="366"/>
      <point x="406" y="358"/>
      <point x="406" y="333" type="curve" smooth="yes"/>
      <point x="406" y="303"/>
      <point x="385" y="273"/>
      <point x="357" y="273" type="curve" smooth="yes"/>
    </contour>
  </outline>
</glyph>
<glyph name="macron" format="2">
  <advance width="260"/>
  <unicode hex="00AF"/>
  <note>
GF Latin Plus glyph
</note>
  <outline>
    <contour>
      <point x="105" y="468" type="line"/>
      <point x="302" y="468" type="line"/>
      <point x="311" y="520" type="line"/>
      <point x="114" y="520" type="line"/>
    </contour>
  </outline>
</glyph>
<glyph name="degree" format="2">
  <advance width="230"/>
  <unicode hex="00B0"/>
  <note>
GF Latin Plus glyph
</note>
  <outline>
    <contour>
      <point x="170" y="347" type="curve" smooth="yes"/>
      <point x="247" y="347"/>
      <point x="286" y="399"/>
      <point x="286" y="462" type="curve" smooth="yes"/>
      <point x="286" y="513"/>
      <point x="254" y="547"/>
      <point x="202" y="547" type="curve" smooth="yes"/>
      <point x="126" y="547"/>
      <point x="84" y="494"/>
      <point x="84" y="433" type="curve" smooth="yes"/>
      <point x="84" y="381"/>
      <point x="119" y="347"/>
    </contour>
    <contour>
      <point x="176" y="388" type="curve" smooth="yes"/>
      <point x="145" y="388"/>
      <point x="126" y="407"/>
      <point x="126" y="436" type="curve" smooth="yes"/>
      <point x="126" y="476"/>
      <point x="154" y="507"/>
      <point x="195" y="507" type="curve" smooth="yes"/>
      <point x="226" y="507"/>
      <point x="245" y="487"/>
      <point x="245" y="459" type="curve" smooth="yes"/>
      <point x="245" y="416"/>
      <point x="217" y="388"/>
    </contour>
  </outline>
</glyph>
<glyph name="twosuperior" format="2">
  <advance width="297"/>
  <unicode hex="00B2"/>
  <note>
GF Latin Plus glyph
</note>
  <outline>
    <contour>
      <point x="71" y="253" type="line"/>
      <point x="310" y="253" type="line"/>
      <point x="320" y="316" type="line"/>
      <point x="176" y="316" type="line"/>
      <point x="261" y="389" type="line" smooth="yes"/>
      <point x="322" y="443"/>
      <point x="341" y="486"/>
      <point x="341" y="534" type="curve" smooth="yes"/>
      <point x="341" y="578"/>
      <point x="316" y="604"/>
      <point x="246" y="604" type="curve" smooth="yes"/>
      <point x="201" y="604"/>
      <point x="163" y="597"/>
      <point x="133" y="593" type="curve"/>
      <point x="125" y="538" type="line"/>
      <point x="220" y="538" type="line" smooth="yes"/>
      <point x="255" y="538"/>
      <point x="266" y="527"/>
      <point x="266" y="508" type="curve" smooth="yes"/>
      <point x="266" y="487"/>
      <point x="250" y="457"/>
      <point x="212" y="424" type="curve" smooth="yes"/>
      <point x="80" y="309" type="line"/>
    </contour>
  </outline>
</glyph>
<glyph name="threesuperior" format="2">
  <advance width="297"/>
  <unicode hex="00B3"/>
  <note>
GF Latin Plus glyph
</note>
  <outline>
    <contour>
      <point x="203" y="250" type="curve" smooth="yes"/>
      <point x="267" y="250"/>
      <point x="309" y="279"/>
      <point x="317" y="334" type="curve" smooth="yes"/>
      <point x="321" y="353" type="line" smooth="yes"/>
      <point x="322" y="360"/>
      <point x="323" y="366"/>
      <point x="323" y="372" type="curve" smooth="yes"/>
      <point x="323" y="403"/>
      <point x="304" y="422"/>
      <point x="283" y="428" type="curve"/>
      <point x="310" y="436"/>
      <point x="332" y="456"/>
      <point x="338" y="492" type="curve" smooth="yes"/>
      <point x="342" y="518" type="line" smooth="yes"/>
      <point x="343" y="524"/>
      <point x="343" y="531"/>
      <point x="343" y="536" type="curve" smooth="yes"/>
      <point x="343" y="580"/>
      <point x="313" y="604"/>
      <point x="259" y="604" type="curve" smooth="yes"/>
      <point x="212" y="604"/>
      <point x="170" y="599"/>
      <point x="129" y="593" type="curve"/>
      <point x="120" y="538" type="line"/>
      <point x="220" y="538" type="line" smooth="yes"/>
      <point x="255" y="538"/>
      <point x="270" y="528"/>
      <point x="270" y="511" type="curve" smooth="yes"/>
      <point x="270" y="508"/>
      <point x="270" y="506"/>
      <point x="269" y="504" type="curve" smooth="yes"/>
      <point x="267" y="489" type="line" smooth="yes"/>
      <point x="263" y="469"/>
      <point x="245" y="461"/>
      <point x="217" y="459" type="curve" smooth="yes"/>
      <point x="132" y="455" type="line"/>
      <point x="123" y="401" type="line"/>
      <point x="210" y="398" type="line" smooth="yes"/>
      <point x="233" y="397"/>
      <point x="251" y="390"/>
      <point x="252" y="369" type="curve" smooth="yes"/>
      <point x="252" y="367"/>
      <point x="251" y="365"/>
      <point x="251" y="362" type="curve" smooth="yes"/>
      <point x="249" y="348" type="line" smooth="yes"/>
      <point x="245" y="323"/>
      <point x="226" y="316"/>
      <point x="187" y="316" type="curve" smooth="yes"/>
      <point x="78" y="316" type="line"/>
      <point x="69" y="261" type="line"/>
      <point x="106" y="254"/>
      <point x="152" y="250"/>
    </contour>
  </outline>
</glyph>
<glyph name="acute" format="2">
  <advance width="161"/>
  <unicode hex="00B4"/>
  <note>
GF Latin Plus glyph
</note>
  <outline>
    <contour>
      <point x="84" y="450" type="line"/>
      <point x="140" y="450" type="line"/>
      <point x="236" y="549" type="line"/>
      <point x="159" y="549" type="line"/>
    </contour>
  </outline>
</glyph>
<glyph name="paragraph" format="2">
  <advance width="409"/>
  <unicode hex="00B6"/>
  <note>
GF Latin Plus glyph
</note>
  <outline>
    <contour>
      <point x="153" y="-192" type="line"/>
      <point x="212" y="-192" type="line"/>
      <point x="317" y="468" type="line"/>
      <point x="373" y="468" type="line"/>
      <point x="299" y="0" type="line"/>
      <point x="358" y="0" type="line"/>
      <point x="432" y="466" type="line"/>
      <point x="479" y="466" type="line"/>
      <point x="489" y="527" type="line"/>
      <point x="220" y="527" type="line" smooth="yes"/>
      <point x="156" y="527"/>
      <point x="100" y="495"/>
      <point x="90" y="427" type="curve" smooth="yes"/>
      <point x="75" y="333" type="line" smooth="yes"/>
      <point x="72" y="318"/>
      <point x="71" y="310"/>
      <point x="71" y="304" type="curve" smooth="yes"/>
      <point x="71" y="256"/>
      <point x="100" y="219"/>
      <point x="165" y="219" type="curve" smooth="yes"/>
      <point x="191" y="219"/>
      <point x="212" y="224"/>
      <point x="220" y="229" type="curve"/>
    </contour>
    <contour>
      <point x="184" y="278" type="line" smooth="yes"/>
      <point x="158" y="278"/>
      <point x="132" y="283"/>
      <point x="132" y="319" type="curve" smooth="yes"/>
      <point x="132" y="324"/>
      <point x="133" y="331"/>
      <point x="135" y="341" type="curve" smooth="yes"/>
      <point x="146" y="412" type="line" smooth="yes"/>
      <point x="152" y="448"/>
      <point x="172" y="468"/>
      <point x="214" y="468" type="curve" smooth="yes"/>
      <point x="258" y="468" type="line"/>
      <point x="228" y="278" type="line"/>
    </contour>
  </outline>
</glyph>
<glyph name="periodcentered" format="2">
  <advance width="190"/>
  <unicode hex="00B7"/>
  <note>
GF Latin Plus glyph
</note>
  <outline>
    <contour>
      <point x="94" y="235" type="curve" smooth="yes"/>
      <point x="145" y="235" type="line" smooth="yes"/>
      <point x="153" y="235"/>
      <point x="159" y="238"/>
      <point x="160" y="248" type="curve" smooth="yes"/>
      <point x="169" y="301" type="line" smooth="yes"/>
      <point x="170" y="309"/>
      <point x="167" y="315"/>
      <point x="157" y="315" type="curve" smooth="yes"/>
      <point x="106" y="315" type="line" smooth="yes"/>
      <point x="97" y="315"/>
      <point x="92" y="309"/>
      <point x="91" y="301" type="curve" smooth="yes"/>
      <point x="82" y="248" type="line" smooth="yes"/>
      <point x="81" y="240"/>
      <point x="86" y="235"/>
    </contour>
  </outline>
</glyph>
<glyph name="cedilla" format="2">
  <advance width="178"/>
  <unicode hex="00B8"/>
  <note>
GF Latin Plus glyph
</note>
  <outline>
    <contour>
      <point x="9" y="-139" type="line"/>
      <point x="40" y="-139" type="line" smooth="yes"/>
      <point x="97" y="-139"/>
      <point x="123" y="-107"/>
      <point x="123" y="-78" type="curve" smooth="yes"/>
      <point x="123" y="-49"/>
      <point x="102" y="-36"/>
      <point x="71" y="-36" type="curve"/>
      <point x="33" y="-46" type="line"/>
      <point x="59" y="-48"/>
      <point x="67" y="-58"/>
      <point x="67" y="-69" type="curve" smooth="yes"/>
      <point x="67" y="-80"/>
      <point x="56" y="-97"/>
      <point x="29" y="-101" type="curve" smooth="yes"/>
      <point x="15" y="-103" type="line"/>
    </contour>
    <contour>
      <point x="33" y="-46" type="line"/>
      <point x="73" y="-46" type="line"/>
      <point x="119" y="11" type="line"/>
      <point x="79" y="11" type="line"/>
    </contour>
  </outline>
</glyph>
<glyph name="onesuperior" format="2">
  <advance width="297"/>
  <unicode hex="00B9"/>
  <note>
GF Latin Plus glyph
</note>
  <outline>
    <contour>
      <point x="159" y="253" type="line"/>
      <point x="230" y="253" type="line"/>
      <point x="285" y="604" type="line"/>
      <point x="222" y="604" type="line"/>
      <point x="137" y="574" type="line"/>
      <point x="130" y="530" type="line"/>
      <point x="204" y="541" type="line"/>
    </contour>
    <contour>
      <point x="81" y="253" type="line"/>
      <point x="307" y="253" type="line"/>
      <point x="317" y="316" type="line"/>
      <point x="91" y="316" type="line"/>
    </contour>
  </outline>
</glyph>
<glyph name="ordmasculine" format="2">
  <advance width="306"/>
  <unicode hex="00BA"/>
  <note>
GF Latin Plus glyph
</note>
  <outline>
    <component base="o.superior" yOffset="57"/>
    <contour>
      <point x="54" y="183" type="line"/>
      <point x="302" y="183" type="line"/>
      <point x="309" y="226" type="line"/>
      <point x="61" y="226" type="line"/>
    </contour>
  </outline>
</glyph>
<glyph name="AE" format="2">
  <advance width="688"/>
  <unicode hex="00C6"/>
  <note>
GF Latin Plus glyph
</note>
  <outline>
    <contour>
      <point x="458" y="-3" type="curve" smooth="yes"/>
      <point x="482" y="-2"/>
      <point x="590" y="0"/>
      <point x="659" y="6" type="curve"/>
      <point x="670" y="79" type="line"/>
      <point x="491" y="79" type="line" smooth="yes"/>
      <point x="462" y="79"/>
      <point x="428" y="82"/>
      <point x="436" y="131" type="curve" smooth="yes"/>
      <point x="451" y="222" type="line"/>
      <point x="661" y="227" type="line"/>
      <point x="672" y="297" type="line"/>
      <point x="463" y="302" type="line"/>
      <point x="476" y="382" type="line" smooth="yes"/>
      <point x="482" y="426"/>
      <point x="485" y="445"/>
      <point x="541" y="445" type="curve" smooth="yes"/>
      <point x="728" y="445" type="line"/>
      <point x="740" y="518" type="line"/>
      <point x="666" y="524"/>
      <point x="592" y="526"/>
      <point x="537" y="527" type="curve" smooth="yes"/>
      <point x="447" y="528"/>
      <point x="373" y="503"/>
      <point x="304" y="405" type="curve" smooth="yes"/>
      <point x="11" y="0" type="line"/>
      <point x="99" y="0" type="line"/>
      <point x="194" y="123" type="line"/>
      <point x="355" y="123" type="line"/>
      <point x="349" y="78" type="line" smooth="yes"/>
      <point x="343" y="11"/>
      <point x="389" y="-3"/>
    </contour>
    <contour>
      <point x="246" y="199" type="line"/>
      <point x="401" y="415" type="line"/>
      <point x="367" y="199" type="line"/>
    </contour>
  </outline>
</glyph>
<glyph name="Eth" format="2">
  <advance width="487"/>
  <unicode hex="00D0"/>
  <note>
GF Latin Plus glyph
</note>
  <outline>
    <component base="D"/>
    <contour>
      <point x="40" y="237" type="line"/>
      <point x="272" y="237" type="line"/>
      <point x="281" y="295" type="line"/>
      <point x="50" y="295" type="line"/>
    </contour>
  </outline>
</glyph>
<glyph name="multiply" format="2">
  <advance width="435"/>
  <unicode hex="00D7"/>
  <note>
GF Latin Plus glyph
</note>
  <outline>
    <contour>
      <point x="149" y="115" type="line"/>
      <point x="411" y="342" type="line"/>
      <point x="368" y="392" type="line"/>
      <point x="106" y="166" type="line"/>
    </contour>
    <contour>
      <point x="325" y="115" type="line"/>
      <point x="383" y="166" type="line"/>
      <point x="193" y="392" type="line"/>
      <point x="134" y="342" type="line"/>
    </contour>
  </outline>
</glyph>
<glyph name="Oslash" format="2">
  <advance width="496"/>
  <unicode hex="00D8"/>
  <note>
GF Latin Plus glyph
</note>
  <outline>
    <component base="O"/>
    <contour>
      <point x="33" y="0" type="line"/>
      <point x="85" y="0" type="line"/>
      <point x="546" y="527" type="line"/>
      <point x="494" y="527" type="line"/>
    </contour>
  </outline>
</glyph>
<glyph name="Thorn" format="2">
  <advance width="401"/>
  <unicode hex="00DE"/>
  <note>
GF Latin Plus glyph
</note>
  <outline>
    <contour>
      <point x="46" y="0" type="line"/>
      <point x="135" y="0" type="line"/>
      <point x="218" y="527" type="line"/>
      <point x="130" y="527" type="line"/>
    </contour>
    <contour>
      <point x="252" y="105" type="curve" smooth="yes"/>
      <point x="323" y="105"/>
      <point x="400" y="138"/>
      <point x="418" y="253" type="curve" smooth="yes"/>
      <point x="421" y="269"/>
      <point x="424" y="293"/>
      <point x="424" y="307" type="curve" smooth="yes"/>
      <point x="424" y="405"/>
      <point x="363" y="434"/>
      <point x="285" y="434" type="curve" smooth="yes"/>
      <point x="178" y="434" type="line"/>
      <point x="166" y="355" type="line"/>
      <point x="268" y="355" type="line" smooth="yes"/>
      <point x="310" y="355"/>
      <point x="334" y="340"/>
      <point x="334" y="298" type="curve" smooth="yes"/>
      <point x="334" y="291"/>
      <point x="332" y="275"/>
      <point x="330" y="262" type="curve" smooth="yes"/>
      <point x="321" y="207"/>
      <point x="286" y="185"/>
      <point x="241" y="185" type="curve" smooth="yes"/>
      <point x="144" y="185" type="line"/>
      <point x="133" y="118" type="line"/>
      <point x="169" y="113"/>
      <point x="211" y="105"/>
    </contour>
  </outline>
</glyph>
<glyph name="germandbls" format="2">
  <advance width="426"/>
  <unicode hex="00DF"/>
  <note>
GF Latin Plus glyph
</note>
  <outline>
    <contour>
      <point x="284" y="-4" type="curve" smooth="yes"/>
      <point x="339" y="-4"/>
      <point x="407" y="16"/>
      <point x="419" y="95" type="curve" smooth="yes"/>
      <point x="425" y="127"/>
      <point x="425" y="134"/>
      <point x="425" y="140" type="curve" smooth="yes"/>
      <point x="425" y="213"/>
      <point x="336" y="219"/>
      <point x="336" y="262" type="curve" smooth="yes"/>
      <point x="336" y="308"/>
      <point x="430" y="347"/>
      <point x="430" y="430" type="curve" smooth="yes"/>
      <point x="430" y="492"/>
      <point x="390" y="549"/>
      <point x="288" y="549" type="curve" smooth="yes"/>
      <point x="176" y="549"/>
      <point x="115" y="488"/>
      <point x="101" y="397" type="curve" smooth="yes"/>
      <point x="38" y="0" type="line"/>
      <point x="126" y="0" type="line"/>
      <point x="183" y="360" type="line" smooth="yes"/>
      <point x="196" y="441"/>
      <point x="226" y="471"/>
      <point x="280" y="471" type="curve" smooth="yes"/>
      <point x="323" y="471"/>
      <point x="349" y="451"/>
      <point x="349" y="416" type="curve" smooth="yes"/>
      <point x="349" y="356"/>
      <point x="248" y="309"/>
      <point x="248" y="236" type="curve" smooth="yes"/>
      <point x="248" y="164"/>
      <point x="339" y="164"/>
      <point x="339" y="121" type="curve" smooth="yes"/>
      <point x="339" y="116"/>
      <point x="338" y="111"/>
      <point x="336" y="101" type="curve" smooth="yes"/>
      <point x="334" y="84"/>
      <point x="321" y="62"/>
      <point x="273" y="62" type="curve" smooth="yes"/>
      <point x="243" y="62"/>
      <point x="213" y="63"/>
      <point x="185" y="65" type="curve"/>
      <point x="176" y="6" type="line"/>
      <point x="198" y="0"/>
      <point x="240" y="-4"/>
    </contour>
  </outline>
</glyph>
<glyph name="ae" format="2">
  <advance width="631"/>
  <unicode hex="00E6"/>
  <note>
GF Latin Plus glyph
</note>
  <anchor x="386" y="464" name="top"/>
  <outline>
    <contour>
      <point x="162" y="-4" type="curve" smooth="yes"/>
      <point x="218" y="-4"/>
      <point x="269" y="21"/>
      <point x="312" y="53" type="curve"/>
      <point x="328" y="18"/>
      <point x="373" y="-4"/>
      <point x="430" y="-4" type="curve" smooth="yes"/>
      <point x="486" y="-4"/>
      <point x="551" y="1"/>
      <point x="593" y="9" type="curve"/>
      <point x="602" y="61" type="line"/>
      <point x="464" y="61" type="line" smooth="yes"/>
      <point x="398" y="61"/>
      <point x="381" y="86"/>
      <point x="381" y="127" type="curve" smooth="yes"/>
      <point x="381" y="137"/>
      <point x="381" y="144"/>
      <point x="383" y="158" type="curve"/>
      <point x="394" y="154"/>
      <point x="440" y="149"/>
      <point x="479" y="149" type="curve" smooth="yes"/>
      <point x="588" y="149"/>
      <point x="642" y="195"/>
      <point x="642" y="272" type="curve" smooth="yes"/>
      <point x="642" y="351"/>
      <point x="593" y="388"/>
      <point x="494" y="388" type="curve" smooth="yes"/>
      <point x="466" y="388"/>
      <point x="407" y="378"/>
      <point x="382" y="357" type="curve"/>
      <point x="347" y="378"/>
      <point x="295" y="386"/>
      <point x="258" y="386" type="curve" smooth="yes"/>
      <point x="134" y="386"/>
      <point x="56" y="301"/>
      <point x="56" y="125" type="curve" smooth="yes"/>
      <point x="56" y="31"/>
      <point x="102" y="-4"/>
    </contour>
    <contour>
      <point x="198" y="68" type="curve" smooth="yes"/>
      <point x="160" y="68"/>
      <point x="144" y="95"/>
      <point x="144" y="141" type="curve" smooth="yes"/>
      <point x="144" y="232"/>
      <point x="172" y="315"/>
      <point x="265" y="315" type="curve" smooth="yes"/>
      <point x="291" y="315"/>
      <point x="319" y="306"/>
      <point x="331" y="299" type="curve"/>
      <point x="305" y="254"/>
      <point x="294" y="192"/>
      <point x="294" y="139" type="curve" smooth="yes"/>
      <point x="294" y="130"/>
      <point x="295" y="120"/>
      <point x="296" y="112" type="curve"/>
      <point x="277" y="91"/>
      <point x="236" y="68"/>
    </contour>
    <contour>
      <point x="457" y="199" type="curve" smooth="yes"/>
      <point x="424" y="199"/>
      <point x="393" y="203"/>
      <point x="389" y="204" type="curve"/>
      <point x="402" y="277"/>
      <point x="421" y="319"/>
      <point x="497" y="319" type="curve" smooth="yes"/>
      <point x="537" y="319"/>
      <point x="559" y="299"/>
      <point x="559" y="262" type="curve" smooth="yes"/>
      <point x="559" y="223"/>
      <point x="526" y="199"/>
    </contour>
  </outline>
</glyph>
<glyph name="eth" format="2">
  <advance width="407"/>
  <unicode hex="00F0"/>
  <note>
GF Latin Plus glyph
</note>
  <outline>
    <contour>
      <point x="60" y="190" type="curve" smooth="yes"/>
      <point x="57" y="170"/>
      <point x="56" y="150"/>
      <point x="56" y="127" type="curve" smooth="yes"/>
      <point x="56" y="37"/>
      <point x="108" y="-4"/>
      <point x="203" y="-4" type="curve" smooth="yes"/>
      <point x="325" y="-4"/>
      <point x="383" y="32"/>
      <point x="405" y="176" type="curve" smooth="yes"/>
      <point x="396" y="203"/>
      <point x="385" y="233"/>
      <point x="375" y="261" type="curve" smooth="yes"/>
      <point x="375" y="332"/>
      <point x="321" y="378"/>
      <point x="243" y="378" type="curve" smooth="yes"/>
      <point x="137" y="378"/>
      <point x="84" y="344"/>
    </contour>
    <contour>
      <point x="147" y="177" type="curve" smooth="yes"/>
      <point x="163" y="285"/>
      <point x="186" y="308"/>
      <point x="251" y="308" type="curve" smooth="yes"/>
      <point x="301" y="308"/>
      <point x="322" y="292"/>
      <point x="322" y="247" type="curve" smooth="yes"/>
      <point x="322" y="230"/>
      <point x="320" y="211"/>
      <point x="317" y="187" type="curve" smooth="yes"/>
      <point x="301" y="87"/>
      <point x="275" y="67"/>
      <point x="213" y="67" type="curve" smooth="yes"/>
      <point x="169" y="67"/>
      <point x="143" y="79"/>
      <point x="143" y="131" type="curve" smooth="yes"/>
      <point x="143" y="144"/>
      <point x="144" y="159"/>
    </contour>
    <contour>
      <point x="165" y="545" type="curve"/>
      <point x="156" y="486" type="line"/>
      <point x="281" y="485"/>
      <point x="346" y="447"/>
      <point x="346" y="322" type="curve" smooth="yes"/>
      <point x="346" y="293"/>
      <point x="343" y="260"/>
      <point x="338" y="222" type="curve"/>
      <point x="405" y="176" type="line"/>
      <point x="414" y="230"/>
      <point x="418" y="277"/>
      <point x="418" y="319" type="curve" smooth="yes"/>
      <point x="418" y="481"/>
      <point x="332" y="544"/>
    </contour>
    <contour>
      <point x="434" y="542" type="line"/>
      <point x="172" y="439" type="line"/>
      <point x="180" y="410" type="line"/>
      <point x="442" y="513" type="line"/>
    </contour>
  </outline>
</glyph>
<glyph name="divide" format="2">
  <advance width="435"/>
  <unicode hex="00F7"/>
  <note>
GF Latin Plus glyph
</note>
  <outline>
    <component base="minus"/>
    <contour>
      <point x="203" y="67" type="curve" smooth="yes"/>
      <point x="254" y="67" type="line" smooth="yes"/>
      <point x="264" y="67"/>
      <point x="272" y="71"/>
      <point x="275" y="84" type="curve" smooth="yes"/>
      <point x="282" y="132" type="line" smooth="yes"/>
      <point x="284" y="144"/>
      <point x="280" y="150"/>
      <point x="267" y="150" type="curve" smooth="yes"/>
      <point x="216" y="150" type="line" smooth="yes"/>
      <point x="205" y="150"/>
      <point x="199" y="143"/>
      <point x="196" y="132" type="curve" smooth="yes"/>
      <point x="189" y="84" type="line" smooth="yes"/>
      <point x="188" y="74"/>
      <point x="193" y="67"/>
    </contour>
    <contour>
      <point x="250" y="358" type="curve" smooth="yes"/>
      <point x="300" y="358" type="line" smooth="yes"/>
      <point x="310" y="358"/>
      <point x="318" y="361"/>
      <point x="320" y="374" type="curve" smooth="yes"/>
      <point x="328" y="423" type="line" smooth="yes"/>
      <point x="330" y="434"/>
      <point x="326" y="440"/>
      <point x="313" y="440" type="curve" smooth="yes"/>
      <point x="263" y="440" type="line" smooth="yes"/>
      <point x="251" y="440"/>
      <point x="244" y="433"/>
      <point x="243" y="423" type="curve" smooth="yes"/>
      <point x="235" y="374" type="line" smooth="yes"/>
      <point x="233" y="364"/>
      <point x="240" y="358"/>
    </contour>
  </outline>
</glyph>
<glyph name="oslash" format="2">
  <advance width="405"/>
  <unicode hex="00F8"/>
  <note>
GF Latin Plus glyph
</note>
  <anchor x="248" y="464" name="top"/>
  <outline>
    <component base="o"/>
    <contour>
      <point x="26" y="0" type="line"/>
      <point x="69" y="0" type="line"/>
      <point x="439" y="382" type="line"/>
      <point x="396" y="382" type="line"/>
    </contour>
  </outline>
</glyph>
<glyph name="thorn" format="2">
  <advance width="408"/>
  <unicode hex="00FE"/>
  <note>
GF Latin Plus glyph
</note>
  <outline>
    <contour>
      <point x="14" y="-169" type="line"/>
      <point x="103" y="-169" type="line"/>
      <point x="132" y="13" type="line"/>
      <point x="157" y="0"/>
      <point x="189" y="-4"/>
      <point x="226" y="-4" type="curve" smooth="yes"/>
      <point x="323" y="-4"/>
      <point x="385" y="57"/>
      <point x="404" y="176" type="curve" smooth="yes"/>
      <point x="408" y="201"/>
      <point x="411" y="228"/>
      <point x="411" y="252" type="curve" smooth="yes"/>
      <point x="411" y="342"/>
      <point x="374" y="386"/>
      <point x="286" y="386" type="curve" smooth="yes"/>
      <point x="248" y="386"/>
      <point x="216" y="385"/>
      <point x="191" y="383" type="curve"/>
      <point x="216" y="545" type="line"/>
      <point x="128" y="545" type="line"/>
    </contour>
    <contour>
      <point x="215" y="71" type="curve" smooth="yes"/>
      <point x="185" y="71"/>
      <point x="169" y="74"/>
      <point x="143" y="83" type="curve"/>
      <point x="179" y="314" type="line"/>
      <point x="262" y="315" type="line" smooth="yes"/>
      <point x="305" y="315"/>
      <point x="324" y="289"/>
      <point x="324" y="237" type="curve" smooth="yes"/>
      <point x="324" y="222"/>
      <point x="321" y="207"/>
      <point x="319" y="193" type="curve" smooth="yes"/>
      <point x="305" y="109"/>
      <point x="277" y="71"/>
    </contour>
  </outline>
</glyph>
<glyph name="dotlessi" format="2">
  <advance width="172"/>
  <unicode hex="0131"/>
  <note>
GF Latin Plus glyph
</note>
  <anchor x="68" y="-107" name="bottom"/>
  <anchor x="159" y="464" name="top"/>
  <outline>
    <contour>
      <point x="42" y="0" type="line"/>
      <point x="130" y="0" type="line"/>
      <point x="191" y="382" type="line"/>
      <point x="102" y="382" type="line"/>
    </contour>
  </outline>
</glyph>
<glyph name="oe" format="2">
  <advance width="649"/>
  <unicode hex="0153"/>
  <note>
GF Latin Plus glyph
</note>
  <outline>
    <contour>
      <point x="199" y="-4" type="curve" smooth="yes"/>
      <point x="272" y="-4"/>
      <point x="314" y="20"/>
      <point x="348" y="65" type="curve"/>
      <point x="365" y="19"/>
      <point x="404" y="-4"/>
      <point x="481" y="-4" type="curve" smooth="yes"/>
      <point x="526" y="-4"/>
      <point x="579" y="2"/>
      <point x="613" y="9" type="curve"/>
      <point x="621" y="61" type="line"/>
      <point x="501" y="61" type="line" smooth="yes"/>
      <point x="431" y="61"/>
      <point x="401" y="80"/>
      <point x="401" y="125" type="curve" smooth="yes"/>
      <point x="401" y="135"/>
      <point x="402" y="147"/>
      <point x="403" y="157" type="curve"/>
      <point x="420" y="153"/>
      <point x="453" y="149"/>
      <point x="491" y="149" type="curve" smooth="yes"/>
      <point x="582" y="149"/>
      <point x="662" y="171"/>
      <point x="662" y="277" type="curve" smooth="yes"/>
      <point x="662" y="364"/>
      <point x="598" y="388"/>
      <point x="523" y="388" type="curve" smooth="yes"/>
      <point x="457" y="388"/>
      <point x="413" y="362"/>
      <point x="382" y="312" type="curve"/>
      <point x="361" y="360"/>
      <point x="324" y="386"/>
      <point x="260" y="386" type="curve" smooth="yes"/>
      <point x="142" y="386"/>
      <point x="86" y="352"/>
      <point x="61" y="199" type="curve" smooth="yes"/>
      <point x="58" y="176"/>
      <point x="56" y="153"/>
      <point x="56" y="127" type="curve" smooth="yes"/>
      <point x="56" y="37"/>
      <point x="107" y="-4"/>
    </contour>
    <contour>
      <point x="213" y="67" type="curve" smooth="yes"/>
      <point x="169" y="67"/>
      <point x="143" y="80"/>
      <point x="143" y="131" type="curve" smooth="yes"/>
      <point x="143" y="147"/>
      <point x="145" y="164"/>
      <point x="148" y="185" type="curve" smooth="yes"/>
      <point x="165" y="293"/>
      <point x="188" y="317"/>
      <point x="252" y="317" type="curve" smooth="yes"/>
      <point x="303" y="317"/>
      <point x="323" y="300"/>
      <point x="323" y="253" type="curve" smooth="yes"/>
      <point x="323" y="234"/>
      <point x="320" y="213"/>
      <point x="316" y="185" type="curve" smooth="yes"/>
      <point x="301" y="87"/>
      <point x="272" y="67"/>
    </contour>
    <contour>
      <point x="467" y="199" type="curve" smooth="yes"/>
      <point x="446" y="199"/>
      <point x="425" y="202"/>
      <point x="409" y="205" type="curve"/>
      <point x="420" y="278"/>
      <point x="447" y="319"/>
      <point x="513" y="319" type="curve" smooth="yes"/>
      <point x="558" y="319"/>
      <point x="579" y="303"/>
      <point x="579" y="268" type="curve" smooth="yes"/>
      <point x="579" y="217"/>
      <point x="541" y="199"/>
    </contour>
  </outline>
</glyph>
<glyph name="florin" format="2">
  <advance width="435"/>
  <unicode hex="0192"/>
  <note>
GF Latin Plus glyph
</note>
  <outline>
    <contour>
      <point x="63" y="-145" type="curve" smooth="yes"/>
      <point x="150" y="-145"/>
      <point x="197" y="-78"/>
      <point x="243" y="62" type="curve" smooth="yes"/>
      <point x="312" y="274" type="line"/>
      <point x="393" y="274" type="line"/>
      <point x="412" y="337" type="line"/>
      <point x="330" y="337" type="line"/>
      <point x="354" y="406" type="line" smooth="yes"/>
      <point x="376" y="473"/>
      <point x="396" y="503"/>
      <point x="446" y="503" type="curve" smooth="yes"/>
      <point x="485" y="503" type="line"/>
      <point x="502" y="558" type="line"/>
      <point x="492" y="562"/>
      <point x="471" y="570"/>
      <point x="427" y="570" type="curve" smooth="yes"/>
      <point x="344" y="570"/>
      <point x="302" y="517"/>
      <point x="273" y="429" type="curve" smooth="yes"/>
      <point x="242" y="337" type="line"/>
      <point x="180" y="337" type="line"/>
      <point x="161" y="274" type="line"/>
      <point x="224" y="274" type="line"/>
      <point x="148" y="41" type="line" smooth="yes"/>
      <point x="119" y="-49"/>
      <point x="93" y="-78"/>
      <point x="47" y="-78" type="curve" smooth="yes"/>
      <point x="8" y="-78" type="line"/>
      <point x="-8" y="-133" type="line"/>
      <point x="3" y="-139"/>
      <point x="31" y="-145"/>
    </contour>
  </outline>
</glyph>
<glyph name="glottalstopsmall" format="2">
  <advance width="276"/>
  <unicode hex="0242"/>
  <outline>
    <contour>
      <point x="266" y="271" type="curve" smooth="yes"/>
      <point x="266" y="320"/>
      <point x="230" y="352"/>
      <point x="154" y="352" type="curve" smooth="yes"/>
      <point x="119" y="352"/>
      <point x="43" y="332"/>
      <point x="43" y="286" type="curve" smooth="yes"/>
      <point x="43" y="268"/>
      <point x="59" y="254"/>
      <point x="78" y="254" type="curve" smooth="yes"/>
      <point x="79" y="254"/>
      <point x="88" y="255"/>
      <point x="88" y="255" type="curve"/>
      <point x="123" y="317" type="line"/>
      <point x="131" y="322"/>
      <point x="142" y="322"/>
      <point x="149" y="322" type="curve" smooth="yes"/>
      <point x="181" y="322"/>
      <point x="197" y="303"/>
      <point x="197" y="270" type="curve" smooth="yes"/>
      <point x="197" y="207"/>
      <point x="152" y="171"/>
      <point x="94" y="157" type="curve"/>
      <point x="72" y="41" type="line" smooth="yes"/>
      <point x="70" y="33"/>
      <point x="62" y="29"/>
      <point x="57" y="29" type="curve" smooth="yes"/>
      <point x="14" y="27" type="line"/>
      <point x="14" y="0" type="line"/>
      <point x="192" y="0" type="line"/>
      <point x="192" y="27" type="line"/>
      <point x="147" y="29" type="line" smooth="yes"/>
      <point x="142" y="29"/>
      <point x="136" y="33"/>
      <point x="137" y="41" type="curve" smooth="yes"/>
      <point x="159" y="148" type="line"/>
      <point x="220" y="169"/>
      <point x="266" y="201"/>
    </contour>
  </outline>
</glyph>
<glyph name="glottalstop" format="2">
  <advance width="313"/>
  <unicode hex="0294"/>
  <outline>
    <contour>
      <point x="332" y="385" type="curve" smooth="yes"/>
      <point x="332" y="448"/>
      <point x="282" y="490"/>
      <point x="207" y="490" type="curve" smooth="yes"/>
      <point x="160" y="490"/>
      <point x="61" y="462"/>
      <point x="61" y="402" type="curve" smooth="yes"/>
      <point x="61" y="386"/>
      <point x="70" y="372"/>
      <point x="92" y="372" type="curve" smooth="yes"/>
      <point x="113" y="372"/>
      <point x="133" y="383"/>
      <point x="133" y="383" type="curve"/>
      <point x="157" y="445" type="line"/>
      <point x="172" y="455"/>
      <point x="187" y="458"/>
      <point x="202" y="458" type="curve" smooth="yes"/>
      <point x="235" y="459"/>
      <point x="259" y="428"/>
      <point x="259" y="378" type="curve" smooth="yes"/>
      <point x="259" y="306"/>
      <point x="190" y="244"/>
      <point x="127" y="224" type="curve"/>
      <point x="91" y="45" type="line"/>
      <point x="90" y="39"/>
      <point x="79" y="32"/>
      <point x="72" y="31" type="curve" smooth="yes"/>
      <point x="33" y="27" type="line"/>
      <point x="33" y="0" type="line"/>
      <point x="208" y="0" type="line"/>
      <point x="208" y="27" type="line"/>
      <point x="170" y="31" type="line" smooth="yes"/>
      <point x="164" y="32"/>
      <point x="156" y="39"/>
      <point x="157" y="45" type="curve" smooth="yes"/>
      <point x="192" y="217" type="line"/>
      <point x="261" y="246"/>
      <point x="332" y="302"/>
    </contour>
  </outline>
</glyph>
<glyph name="glottalstopmod" format="2">
  <advance width="202"/>
  <unicode hex="02C0"/>
  <outline>
    <contour>
      <point x="246" y="504" type="curve" smooth="yes"/>
      <point x="246" y="541"/>
      <point x="214" y="567"/>
      <point x="164" y="567" type="curve" smooth="yes"/>
      <point x="134" y="567"/>
      <point x="70" y="551"/>
      <point x="70" y="515" type="curve" smooth="yes"/>
      <point x="70" y="505"/>
      <point x="75" y="497"/>
      <point x="90" y="497" type="curve" smooth="yes"/>
      <point x="104" y="497"/>
      <point x="117" y="503"/>
      <point x="117" y="503" type="curve"/>
      <point x="132" y="540" type="line"/>
      <point x="142" y="546"/>
      <point x="152" y="548"/>
      <point x="161" y="548" type="curve" smooth="yes"/>
      <point x="183" y="548"/>
      <point x="199" y="530"/>
      <point x="199" y="500" type="curve" smooth="yes"/>
      <point x="199" y="457"/>
      <point x="154" y="419"/>
      <point x="113" y="407" type="curve"/>
      <point x="89" y="300" type="line" smooth="yes"/>
      <point x="89" y="297"/>
      <point x="82" y="292"/>
      <point x="77" y="292" type="curve" smooth="yes"/>
      <point x="52" y="289" type="line"/>
      <point x="52" y="273" type="line"/>
      <point x="165" y="273" type="line"/>
      <point x="165" y="289" type="line"/>
      <point x="141" y="292" type="line" smooth="yes"/>
      <point x="137" y="292"/>
      <point x="132" y="297"/>
      <point x="132" y="300" type="curve" smooth="yes"/>
      <point x="154" y="403" type="line"/>
      <point x="199" y="421"/>
      <point x="246" y="454"/>
    </contour>
  </outline>
</glyph>
<glyph name="circumflex" format="2">
  <advance width="278"/>
  <unicode hex="02C6"/>
  <note>
GF Latin Plus glyph
</note>
  <outline>
    <contour>
      <point x="103" y="450" type="line"/>
      <point x="155" y="450" type="line"/>
      <point x="222" y="510" type="line"/>
      <point x="266" y="450" type="line"/>
      <point x="318" y="450" type="line"/>
      <point x="260" y="550" type="line"/>
      <point x="199" y="550" type="line"/>
    </contour>
  </outline>
</glyph>
<glyph name="caron" format="2">
  <advance width="278"/>
  <unicode hex="02C7"/>
  <note>
GF Latin Plus glyph
</note>
  <outline>
    <contour>
      <point x="176" y="450" type="line"/>
      <point x="237" y="450" type="line"/>
      <point x="334" y="550" type="line"/>
      <point x="282" y="550" type="line"/>
      <point x="214" y="490" type="line"/>
      <point x="170" y="550" type="line"/>
      <point x="119" y="550" type="line"/>
    </contour>
  </outline>
</glyph>
<glyph name="colontriangularmod" format="2">
  <advance width="139"/>
  <unicode hex="02D0"/>
  <outline>
    <contour>
      <point x="160" y="343" type="line"/>
      <point x="41" y="343" type="line"/>
      <point x="52" y="225" type="line"/>
      <point x="104" y="225" type="line"/>
    </contour>
    <contour>
      <point x="93" y="0" type="line"/>
      <point x="83" y="117" type="line"/>
      <point x="31" y="117" type="line"/>
      <point x="-25" y="0" type="line"/>
    </contour>
  </outline>
</glyph>
<glyph name="breve" format="2">
  <advance width="252"/>
  <unicode hex="02D8"/>
  <note>
GF Latin Plus glyph
</note>
  <outline>
    <contour>
      <point x="196" y="446" type="curve" smooth="yes"/>
      <point x="254" y="446"/>
      <point x="299" y="476"/>
      <point x="311" y="552" type="curve"/>
      <point x="269" y="552" type="line"/>
      <point x="261" y="503"/>
      <point x="233" y="487"/>
      <point x="202" y="487" type="curve" smooth="yes"/>
      <point x="177" y="487"/>
      <point x="156" y="500"/>
      <point x="156" y="534" type="curve" smooth="yes"/>
      <point x="156" y="539"/>
      <point x="156" y="545"/>
      <point x="157" y="552" type="curve"/>
      <point x="116" y="552" type="line"/>
      <point x="114" y="542"/>
      <point x="113" y="533"/>
      <point x="113" y="524" type="curve" smooth="yes"/>
      <point x="113" y="469"/>
      <point x="146" y="446"/>
    </contour>
  </outline>
</glyph>
<glyph name="dotaccent" format="2">
  <advance width="131"/>
  <unicode hex="02D9"/>
  <note>
GF Latin Plus glyph
</note>
  <outline>
    <contour>
      <point x="116" y="459" type="curve" smooth="yes"/>
      <point x="157" y="459" type="line" smooth="yes"/>
      <point x="165" y="459"/>
      <point x="171" y="463"/>
      <point x="172" y="472" type="curve" smooth="yes"/>
      <point x="183" y="537" type="line" smooth="yes"/>
      <point x="183" y="538"/>
      <point x="183" y="539"/>
      <point x="183" y="540" type="curve" smooth="yes"/>
      <point x="183" y="546"/>
      <point x="179" y="551"/>
      <point x="171" y="551" type="curve" smooth="yes"/>
      <point x="130" y="551" type="line" smooth="yes"/>
      <point x="121" y="551"/>
      <point x="116" y="546"/>
      <point x="115" y="537" type="curve" smooth="yes"/>
      <point x="104" y="472" type="line" smooth="yes"/>
      <point x="104" y="471"/>
      <point x="104" y="470"/>
      <point x="104" y="470" type="curve" smooth="yes"/>
      <point x="104" y="463"/>
      <point x="109" y="459"/>
    </contour>
  </outline>
</glyph>
<glyph name="ring" format="2">
  <advance width="233"/>
  <unicode hex="02DA"/>
  <note>
GF Latin Plus glyph
</note>
  <outline>
    <contour>
      <point x="186" y="420" type="curve" smooth="yes"/>
      <point x="249" y="420"/>
      <point x="282" y="460"/>
      <point x="282" y="511" type="curve" smooth="yes"/>
      <point x="282" y="560"/>
      <point x="253" y="579"/>
      <point x="207" y="579" type="curve" smooth="yes"/>
      <point x="143" y="579"/>
      <point x="109" y="537"/>
      <point x="109" y="487" type="curve" smooth="yes"/>
      <point x="109" y="437"/>
      <point x="139" y="420"/>
    </contour>
    <contour>
      <point x="189" y="453" type="curve" smooth="yes"/>
      <point x="168" y="453"/>
      <point x="151" y="462"/>
      <point x="151" y="489" type="curve" smooth="yes"/>
      <point x="151" y="518"/>
      <point x="167" y="545"/>
      <point x="203" y="545" type="curve" smooth="yes"/>
      <point x="223" y="545"/>
      <point x="240" y="536"/>
      <point x="240" y="509" type="curve" smooth="yes"/>
      <point x="240" y="480"/>
      <point x="225" y="453"/>
    </contour>
  </outline>
</glyph>
<glyph name="ogonek" format="2">
  <advance width="158"/>
  <unicode hex="02DB"/>
  <note>
GF Latin Plus glyph
</note>
  <outline>
    <contour>
      <point x="84" y="-135" type="curve" smooth="yes"/>
      <point x="93" y="-135"/>
      <point x="101" y="-135"/>
      <point x="106" y="-133" type="curve"/>
      <point x="113" y="-91" type="line"/>
      <point x="107" y="-91" type="line" smooth="yes"/>
      <point x="80" y="-91"/>
      <point x="65" y="-79"/>
      <point x="65" y="-58" type="curve" smooth="yes"/>
      <point x="65" y="-43"/>
      <point x="78" y="-18"/>
      <point x="112" y="0" type="curve"/>
      <point x="80" y="0" type="line"/>
      <point x="39" y="-19"/>
      <point x="18" y="-50"/>
      <point x="18" y="-82" type="curve" smooth="yes"/>
      <point x="18" y="-111"/>
      <point x="38" y="-135"/>
    </contour>
  </outline>
</glyph>
<glyph name="tilde" format="2">
  <advance width="308"/>
  <unicode hex="02DC"/>
  <note>
GF Latin Plus glyph
</note>
  <outline>
    <contour>
      <point x="99" y="457" type="curve"/>
      <point x="144" y="457" type="line"/>
      <point x="148" y="478"/>
      <point x="164" y="491"/>
      <point x="183" y="491" type="curve" smooth="yes"/>
      <point x="213" y="491"/>
      <point x="246" y="457"/>
      <point x="287" y="457" type="curve" smooth="yes"/>
      <point x="331" y="457"/>
      <point x="358" y="485"/>
      <point x="372" y="543" type="curve"/>
      <point x="327" y="543" type="line"/>
      <point x="323" y="520"/>
      <point x="309" y="507"/>
      <point x="288" y="507" type="curve" smooth="yes"/>
      <point x="257" y="507"/>
      <point x="229" y="540"/>
      <point x="185" y="540" type="curve" smooth="yes"/>
      <point x="148" y="540"/>
      <point x="113" y="520"/>
    </contour>
  </outline>
</glyph>
<glyph name="hungarumlaut" format="2">
  <advance width="277"/>
  <unicode hex="02DD"/>
  <note>
GF Latin Plus glyph
</note>
  <outline>
    <contour>
      <point x="197" y="450" type="line"/>
      <point x="249" y="450" type="line"/>
      <point x="341" y="549" type="line"/>
      <point x="273" y="549" type="line"/>
    </contour>
    <contour>
      <point x="84" y="450" type="line"/>
      <point x="135" y="450" type="line"/>
      <point x="227" y="549" type="line"/>
      <point x="159" y="549" type="line"/>
    </contour>
  </outline>
</glyph>
<glyph name="dieresiscomb" format="2">
  <unicode hex="0308"/>
  <note>
GF Latin Plus glyph
</note>
  <outline>
    <contour>
      <point x="-143" y="459" type="curve" smooth="yes"/>
      <point x="-102" y="459" type="line" smooth="yes"/>
      <point x="-94" y="459"/>
      <point x="-87" y="463"/>
      <point x="-86" y="472" type="curve" smooth="yes"/>
      <point x="-76" y="538"/>
      <point x="-75" y="539"/>
      <point x="-75" y="540" type="curve" smooth="yes"/>
      <point x="-75" y="546"/>
      <point x="-79" y="551"/>
      <point x="-87" y="551" type="curve" smooth="yes"/>
      <point x="-128" y="551" type="line" smooth="yes"/>
      <point x="-137" y="551"/>
      <point x="-142" y="546"/>
      <point x="-143" y="537" type="curve" smooth="yes"/>
      <point x="-154" y="471"/>
      <point x="-154" y="470"/>
      <point x="-154" y="470" type="curve" smooth="yes"/>
      <point x="-154" y="463"/>
      <point x="-149" y="459"/>
    </contour>
    <contour>
      <point x="-287" y="459" type="curve" smooth="yes"/>
      <point x="-246" y="459" type="line" smooth="yes"/>
      <point x="-238" y="459"/>
      <point x="-231" y="463"/>
      <point x="-230" y="472" type="curve" smooth="yes"/>
      <point x="-220" y="538"/>
      <point x="-219" y="539"/>
      <point x="-219" y="540" type="curve" smooth="yes"/>
      <point x="-219" y="546"/>
      <point x="-223" y="551"/>
      <point x="-231" y="551" type="curve" smooth="yes"/>
      <point x="-272" y="551" type="line" smooth="yes"/>
      <point x="-281" y="551"/>
      <point x="-286" y="546"/>
      <point x="-287" y="537" type="curve" smooth="yes"/>
      <point x="-298" y="471"/>
      <point x="-298" y="470"/>
      <point x="-298" y="470" type="curve" smooth="yes"/>
      <point x="-298" y="463"/>
      <point x="-293" y="459"/>
    </contour>
  </outline>
</glyph>
<glyph name="Omegagreek" format="2">
  <advance width="548"/>
  <unicode hex="03A9"/>
  <outline>
    <contour>
      <point x="34" y="0" type="line"/>
      <point x="227" y="0" type="line"/>
      <point x="239" y="76" type="line"/>
      <point x="196" y="124"/>
      <point x="169" y="174"/>
      <point x="169" y="234" type="curve" smooth="yes"/>
      <point x="169" y="330"/>
      <point x="208" y="448"/>
      <point x="339" y="448" type="curve" smooth="yes"/>
      <point x="434" y="448"/>
      <point x="466" y="389"/>
      <point x="466" y="326" type="curve" smooth="yes"/>
      <point x="466" y="240"/>
      <point x="429" y="144"/>
      <point x="336" y="76" type="curve"/>
      <point x="323" y="0" type="line"/>
      <point x="517" y="0" type="line"/>
      <point x="528" y="70" type="line"/>
      <point x="421" y="76" type="line"/>
      <point x="507" y="143"/>
      <point x="556" y="247"/>
      <point x="556" y="343" type="curve" smooth="yes"/>
      <point x="556" y="445"/>
      <point x="498" y="527"/>
      <point x="350" y="527" type="curve" smooth="yes"/>
      <point x="150" y="527"/>
      <point x="81" y="368"/>
      <point x="81" y="245" type="curve" smooth="yes"/>
      <point x="81" y="176"/>
      <point x="111" y="117"/>
      <point x="155" y="77" type="curve"/>
      <point x="45" y="71" type="line"/>
    </contour>
  </outline>
</glyph>
<glyph name="pi" format="2">
  <advance width="450"/>
  <unicode hex="03C0"/>
  <outline>
    <contour>
      <point x="344" y="-4" type="curve" smooth="yes"/>
      <point x="377" y="-4"/>
      <point x="399" y="3"/>
      <point x="415" y="12" type="curve"/>
      <point x="423" y="64" type="line"/>
      <point x="388" y="64" type="line" smooth="yes"/>
      <point x="367" y="64"/>
      <point x="356" y="71"/>
      <point x="356" y="92" type="curve" smooth="yes"/>
      <point x="356" y="97"/>
      <point x="356" y="102"/>
      <point x="357" y="108" type="curve" smooth="yes"/>
      <point x="388" y="302" type="line"/>
      <point x="455" y="302" type="line"/>
      <point x="467" y="382" type="line"/>
      <point x="72" y="382" type="line"/>
      <point x="60" y="302" type="line"/>
      <point x="122" y="302" type="line"/>
      <point x="74" y="0" type="line"/>
      <point x="162" y="0" type="line"/>
      <point x="210" y="302" type="line"/>
      <point x="299" y="302" type="line"/>
      <point x="268" y="103" type="line" smooth="yes"/>
      <point x="266" y="92"/>
      <point x="265" y="81"/>
      <point x="265" y="72" type="curve" smooth="yes"/>
      <point x="265" y="20"/>
      <point x="293" y="-4"/>
    </contour>
  </outline>
</glyph>
<glyph name="om" format="2">
  <advance width="791"/>
  <unicode hex="0950"/>
  <outline>
    <contour>
      <point x="639" y="613" type="curve" smooth="yes"/>
      <point x="650" y="662" type="line" smooth="yes"/>
      <point x="651" y="669"/>
      <point x="649" y="675"/>
      <point x="644" y="679" type="curve" smooth="yes"/>
      <point x="641" y="684"/>
      <point x="636" y="686"/>
      <point x="628" y="686" type="curve" smooth="yes"/>
      <point x="560" y="686" type="line" smooth="yes"/>
      <point x="545" y="686"/>
      <point x="533" y="675"/>
      <point x="532" y="662" type="curve"/>
      <point x="521" y="613" type="line" smooth="yes"/>
      <point x="520" y="603"/>
      <point x="527" y="588"/>
      <point x="539" y="588" type="curve" smooth="yes"/>
      <point x="607" y="588" type="line" smooth="yes"/>
      <point x="625" y="588"/>
      <point x="636" y="604"/>
    </contour>
    <contour>
      <point x="673" y="569" type="curve" smooth="yes"/>
      <point x="476" y="569" type="line" smooth="yes"/>
      <point x="452" y="569"/>
      <point x="432" y="584"/>
      <point x="417" y="613" type="curve"/>
      <point x="357" y="578" type="line"/>
      <point x="381" y="504"/>
      <point x="440" y="500"/>
      <point x="452" y="500" type="curve" smooth="yes"/>
      <point x="672" y="500" type="line" smooth="yes"/>
      <point x="735" y="500"/>
      <point x="784" y="568"/>
      <point x="791" y="578" type="curve"/>
      <point x="751" y="623" type="line"/>
      <point x="724" y="571"/>
      <point x="679" y="569"/>
    </contour>
    <contour>
      <point x="852" y="490" type="curve" smooth="yes"/>
      <point x="711" y="490" type="line" smooth="yes"/>
      <point x="668" y="490"/>
      <point x="627" y="453"/>
      <point x="614" y="408" type="curve"/>
      <point x="590" y="295" type="line" smooth="yes"/>
      <point x="585" y="274"/>
      <point x="566" y="262"/>
      <point x="548" y="262" type="curve" smooth="yes"/>
      <point x="519" y="262" type="line" smooth="yes"/>
      <point x="503" y="262"/>
      <point x="488" y="270"/>
      <point x="473" y="285" type="curve"/>
      <point x="441" y="227" type="line"/>
      <point x="456" y="204"/>
      <point x="476" y="193"/>
      <point x="502" y="193" type="curve" smooth="yes"/>
      <point x="580" y="193" type="line" smooth="yes"/>
      <point x="602" y="193"/>
      <point x="652" y="211"/>
      <point x="665" y="271" type="curve" smooth="yes"/>
      <point x="691" y="393" type="line" smooth="yes"/>
      <point x="691" y="393"/>
      <point x="694" y="418"/>
      <point x="721" y="423" type="curve"/>
      <point x="789" y="423" type="line" smooth="yes"/>
      <point x="806" y="423"/>
      <point x="821" y="413"/>
      <point x="817" y="389" type="curve" smooth="yes"/>
      <point x="771" y="175" type="line" smooth="yes"/>
      <point x="764" y="147"/>
      <point x="745" y="129"/>
      <point x="726" y="129" type="curve" smooth="yes"/>
      <point x="615" y="129" type="line"/>
      <point x="601" y="61" type="line"/>
      <point x="718" y="61" type="line" smooth="yes"/>
      <point x="777" y="61"/>
      <point x="836" y="103"/>
      <point x="848" y="164" type="curve" smooth="yes"/>
      <point x="903" y="423" type="line" smooth="yes"/>
      <point x="904" y="430"/>
      <point x="905" y="434"/>
      <point x="905" y="437" type="curve" smooth="yes"/>
      <point x="905" y="463"/>
      <point x="887" y="490"/>
    </contour>
    <contour>
      <point x="396" y="244" type="curve"/>
      <point x="438" y="268"/>
      <point x="448" y="304"/>
      <point x="451" y="318" type="curve" smooth="yes"/>
      <point x="469" y="406" type="line" smooth="yes"/>
      <point x="470" y="414"/>
      <point x="471" y="420"/>
      <point x="471" y="424" type="curve" smooth="yes"/>
      <point x="471" y="456"/>
      <point x="451" y="488"/>
      <point x="409" y="488" type="curve" smooth="yes"/>
      <point x="247" y="488" type="line" smooth="yes"/>
      <point x="188" y="488"/>
      <point x="146" y="448"/>
      <point x="139" y="416" type="curve" smooth="yes"/>
      <point x="128" y="361" type="line"/>
      <point x="206" y="361" type="line"/>
      <point x="211" y="387" type="line" smooth="yes"/>
      <point x="216" y="408"/>
      <point x="239" y="420"/>
      <point x="261" y="420" type="curve" smooth="yes"/>
      <point x="349" y="420" type="line" smooth="yes"/>
      <point x="368" y="420"/>
      <point x="386" y="407"/>
      <point x="386" y="388" type="curve" smooth="yes"/>
      <point x="386" y="383"/>
      <point x="386" y="380"/>
      <point x="385" y="377" type="curve" smooth="yes"/>
      <point x="373" y="322" type="line"/>
      <point x="369" y="297"/>
      <point x="347" y="273"/>
      <point x="324" y="273" type="curve" smooth="yes"/>
      <point x="285" y="273" type="line"/>
      <point x="271" y="205" type="line"/>
      <point x="314" y="205" type="line" smooth="yes"/>
      <point x="341" y="205"/>
      <point x="341" y="175"/>
      <point x="341" y="175" type="curve" smooth="yes"/>
      <point x="341" y="173"/>
      <point x="340" y="169"/>
      <point x="339" y="162" type="curve" smooth="yes"/>
      <point x="329" y="113" type="line" smooth="yes"/>
      <point x="325" y="94"/>
      <point x="305" y="68"/>
      <point x="280" y="68" type="curve" smooth="yes"/>
      <point x="172" y="68" type="line" smooth="yes"/>
      <point x="158" y="68"/>
      <point x="147" y="83"/>
      <point x="151" y="104" type="curve" smooth="yes"/>
      <point x="156" y="127" type="line"/>
      <point x="78" y="127" type="line"/>
      <point x="65" y="64" type="line" smooth="yes"/>
      <point x="64" y="61"/>
      <point x="64" y="57"/>
      <point x="64" y="52" type="curve" smooth="yes"/>
      <point x="64" y="31"/>
      <point x="81" y="-2"/>
      <point x="123" y="2" type="curve"/>
      <point x="318" y="2" type="line" smooth="yes"/>
      <point x="355" y="2"/>
      <point x="391" y="34"/>
      <point x="398" y="70" type="curve" smooth="yes"/>
      <point x="421" y="178" type="line" smooth="yes"/>
      <point x="422" y="187"/>
      <point x="423" y="194"/>
      <point x="423" y="197" type="curve" smooth="yes"/>
      <point x="423" y="229"/>
      <point x="401" y="241"/>
    </contour>
  </outline>
</glyph>
<glyph name="udatta" format="2">
  <unicode hex="0951"/>
  <anchor x="-160" y="553" name="_C"/>
  <outline>
    <contour>
      <point x="-153" y="553" type="line"/>
      <point x="-118" y="719" type="line"/>
      <point x="-168" y="719" type="line"/>
      <point x="-203" y="553" type="line"/>
    </contour>
  </outline>
</glyph>
<glyph name="gravedeva" format="2">
  <unicode hex="0953"/>
  <anchor x="-250" y="548" name="_C"/>
  <outline>
    <contour>
      <point x="-147" y="548" type="line"/>
      <point x="-283" y="721" type="line"/>
      <point x="-353" y="721" type="line"/>
      <point x="-219" y="553" type="line"/>
    </contour>
  </outline>
</glyph>
<glyph name="spacingcandrabindu" format="2">
  <advance width="791"/>
  <unicode hex="0C80"/>
  <outline>
    <contour>
      <point x="639" y="613" type="curve" smooth="yes"/>
      <point x="650" y="662" type="line" smooth="yes"/>
      <point x="651" y="669"/>
      <point x="649" y="675"/>
      <point x="644" y="679" type="curve" smooth="yes"/>
      <point x="641" y="684"/>
      <point x="636" y="686"/>
      <point x="628" y="686" type="curve" smooth="yes"/>
      <point x="560" y="686" type="line" smooth="yes"/>
      <point x="545" y="686"/>
      <point x="533" y="675"/>
      <point x="532" y="662" type="curve"/>
      <point x="521" y="613" type="line" smooth="yes"/>
      <point x="520" y="603"/>
      <point x="527" y="588"/>
      <point x="539" y="588" type="curve" smooth="yes"/>
      <point x="607" y="588" type="line" smooth="yes"/>
      <point x="625" y="588"/>
      <point x="636" y="604"/>
    </contour>
    <contour>
      <point x="673" y="569" type="curve" smooth="yes"/>
      <point x="476" y="569" type="line" smooth="yes"/>
      <point x="452" y="569"/>
      <point x="432" y="584"/>
      <point x="417" y="613" type="curve"/>
      <point x="357" y="578" type="line"/>
      <point x="381" y="504"/>
      <point x="440" y="500"/>
      <point x="452" y="500" type="curve" smooth="yes"/>
      <point x="672" y="500" type="line" smooth="yes"/>
      <point x="735" y="500"/>
      <point x="784" y="568"/>
      <point x="791" y="578" type="curve"/>
      <point x="751" y="623" type="line"/>
      <point x="724" y="571"/>
      <point x="679" y="569"/>
    </contour>
  </outline>
</glyph>
<glyph name="anusvara" format="2">
  <advance width="535"/>
  <unicode hex="0C82"/>
  <outline>
    <contour>
      <point x="532" y="488" type="curve" smooth="yes"/>
      <point x="336" y="488" type="line" smooth="yes"/>
      <point x="275" y="488"/>
      <point x="219" y="443"/>
      <point x="207" y="387" type="curve" smooth="yes"/>
      <point x="150" y="117" type="line" smooth="yes"/>
      <point x="148" y="108"/>
      <point x="147" y="99"/>
      <point x="147" y="90" type="curve" smooth="yes"/>
      <point x="147" y="44"/>
      <point x="179" y="0"/>
      <point x="232" y="0" type="curve" smooth="yes"/>
      <point x="447" y="0" type="line" smooth="yes"/>
      <point x="494" y="0"/>
      <point x="546" y="51"/>
      <point x="558" y="107" type="curve" smooth="yes"/>
      <point x="615" y="377" type="line" smooth="yes"/>
      <point x="617" y="386"/>
      <point x="618" y="395"/>
      <point x="618" y="403" type="curve" smooth="yes"/>
      <point x="618" y="444"/>
      <point x="589" y="488"/>
    </contour>
    <contour>
      <point x="228" y="112" type="curve" smooth="yes"/>
      <point x="228" y="117"/>
      <point x="228" y="120"/>
      <point x="229" y="123" type="curve" smooth="yes"/>
      <point x="283" y="377" type="line" smooth="yes"/>
      <point x="287" y="396"/>
      <point x="314" y="420"/>
      <point x="347" y="420" type="curve" smooth="yes"/>
      <point x="503" y="420" type="line" smooth="yes"/>
      <point x="517" y="420"/>
      <point x="537" y="411"/>
      <point x="537" y="384" type="curve" smooth="yes"/>
      <point x="537" y="379"/>
      <point x="537" y="374"/>
      <point x="536" y="371" type="curve" smooth="yes"/>
      <point x="483" y="123" type="line" smooth="yes"/>
      <point x="478" y="93"/>
      <point x="452" y="68"/>
      <point x="428" y="68" type="curve" smooth="yes"/>
      <point x="276" y="68" type="line" smooth="yes"/>
      <point x="248" y="68"/>
      <point x="228" y="90"/>
    </contour>
  </outline>
</glyph>
<glyph name="visarga" format="2">
  <advance width="346"/>
  <unicode hex="0C83"/>
  <outline>
    <contour>
      <point x="391" y="488" type="curve" smooth="yes"/>
      <point x="293" y="488" type="line" smooth="yes"/>
      <point x="250" y="488"/>
      <point x="210" y="460"/>
      <point x="199" y="416" type="curve"/>
      <point x="183" y="338" type="line" smooth="yes"/>
      <point x="182" y="335"/>
      <point x="182" y="330"/>
      <point x="182" y="324" type="curve" smooth="yes"/>
      <point x="182" y="293"/>
      <point x="204" y="264"/>
      <point x="245" y="264" type="curve" smooth="yes"/>
      <point x="353" y="264" type="line" smooth="yes"/>
      <point x="393" y="264"/>
      <point x="428" y="295"/>
      <point x="436" y="332" type="curve" smooth="yes"/>
      <point x="452" y="410" type="line" smooth="yes"/>
      <point x="453" y="418"/>
      <point x="454" y="424"/>
      <point x="454" y="427" type="curve" smooth="yes"/>
      <point x="454" y="462"/>
      <point x="425" y="488"/>
    </contour>
    <contour>
      <point x="335" y="225" type="curve" smooth="yes"/>
      <point x="237" y="225" type="line" smooth="yes"/>
      <point x="198" y="225"/>
      <point x="153" y="196"/>
      <point x="143" y="152" type="curve" smooth="yes"/>
      <point x="127" y="74" type="line" smooth="yes"/>
      <point x="126" y="67"/>
      <point x="125" y="63"/>
      <point x="125" y="60" type="curve" smooth="yes"/>
      <point x="125" y="34"/>
      <point x="144" y="0"/>
      <point x="189" y="0" type="curve" smooth="yes"/>
      <point x="303" y="0" type="line" smooth="yes"/>
      <point x="339" y="0"/>
      <point x="373" y="36"/>
      <point x="382" y="78" type="curve" smooth="yes"/>
      <point x="395" y="143" type="line" smooth="yes"/>
      <point x="396" y="151"/>
      <point x="397" y="157"/>
      <point x="397" y="161" type="curve" smooth="yes"/>
      <point x="397" y="187"/>
      <point x="382" y="225"/>
    </contour>
    <contour>
      <point x="335" y="332" type="curve" smooth="yes"/>
      <point x="286" y="332" type="line" smooth="yes"/>
      <point x="274" y="332"/>
      <point x="262" y="341"/>
      <point x="265" y="357" type="curve" smooth="yes"/>
      <point x="273" y="396" type="line"/>
      <point x="278" y="413"/>
      <point x="298" y="420"/>
      <point x="308" y="420" type="curve" smooth="yes"/>
      <point x="353" y="420" type="line" smooth="yes"/>
      <point x="378" y="420"/>
      <point x="372" y="398"/>
      <point x="371" y="396" type="curve" smooth="yes"/>
      <point x="362" y="352" type="line" smooth="yes"/>
      <point x="359" y="340"/>
      <point x="343" y="332"/>
    </contour>
    <contour>
      <point x="282" y="68" type="curve" smooth="yes"/>
      <point x="223" y="68" type="line" smooth="yes"/>
      <point x="216" y="68"/>
      <point x="207" y="75"/>
      <point x="209" y="94" type="curve"/>
      <point x="218" y="137" type="line" smooth="yes"/>
      <point x="221" y="147"/>
      <point x="233" y="156"/>
      <point x="248" y="156" type="curve" smooth="yes"/>
      <point x="306" y="156" type="line" smooth="yes"/>
      <point x="311" y="156"/>
      <point x="320" y="151"/>
      <point x="315" y="133" type="curve"/>
      <point x="306" y="88" type="line" smooth="yes"/>
      <point x="303" y="75"/>
      <point x="292" y="68"/>
    </contour>
  </outline>
</glyph>
<glyph name="siddham" format="2">
  <advance width="359"/>
  <unicode hex="0C84"/>
  <outline>
    <contour>
      <point x="393" y="349" type="curve" smooth="yes"/>
      <point x="399" y="377"/>
      <point x="402" y="402"/>
      <point x="402" y="423" type="curve" smooth="yes"/>
      <point x="402" y="511"/>
      <point x="362" y="555"/>
      <point x="281" y="555" type="curve" smooth="yes"/>
      <point x="241" y="555"/>
      <point x="206" y="537"/>
      <point x="176" y="501" type="curve" smooth="yes"/>
      <point x="151" y="471"/>
      <point x="133" y="433"/>
      <point x="123" y="387" type="curve" smooth="yes"/>
      <point x="118" y="360" type="line" smooth="yes"/>
      <point x="117" y="353"/>
      <point x="116" y="342"/>
      <point x="116" y="329" type="curve" smooth="yes"/>
      <point x="116" y="300"/>
      <point x="122" y="277"/>
      <point x="134" y="259" type="curve" smooth="yes"/>
      <point x="147" y="241"/>
      <point x="165" y="232"/>
      <point x="187" y="232" type="curve" smooth="yes"/>
      <point x="215" y="232"/>
      <point x="239" y="243"/>
      <point x="258" y="264" type="curve" smooth="yes"/>
      <point x="277" y="285"/>
      <point x="290" y="310"/>
      <point x="296" y="339" type="curve" smooth="yes"/>
      <point x="300" y="357" type="line"/>
      <point x="300" y="372" type="line" smooth="yes"/>
      <point x="300" y="395"/>
      <point x="295" y="411"/>
      <point x="284" y="422" type="curve" smooth="yes"/>
      <point x="273" y="433"/>
      <point x="258" y="438"/>
      <point x="239" y="438" type="curve"/>
      <point x="229" y="392" type="line"/>
      <point x="250" y="392"/>
      <point x="261" y="381"/>
      <point x="261" y="358" type="curve" smooth="yes"/>
      <point x="259" y="339" type="line"/>
      <point x="254" y="321"/>
      <point x="246" y="307"/>
      <point x="236" y="296" type="curve" smooth="yes"/>
      <point x="227" y="285"/>
      <point x="214" y="280"/>
      <point x="198" y="280" type="curve" smooth="yes"/>
      <point x="183" y="280"/>
      <point x="172" y="286"/>
      <point x="165" y="296" type="curve" smooth="yes"/>
      <point x="158" y="308"/>
      <point x="155" y="323"/>
      <point x="155" y="342" type="curve" smooth="yes"/>
      <point x="160" y="387" type="line"/>
      <point x="168" y="420"/>
      <point x="181" y="447"/>
      <point x="198" y="468" type="curve" smooth="yes"/>
      <point x="220" y="494"/>
      <point x="244" y="507"/>
      <point x="271" y="507" type="curve" smooth="yes"/>
      <point x="332" y="507"/>
      <point x="362" y="474"/>
      <point x="362" y="408" type="curve" smooth="yes"/>
      <point x="362" y="398"/>
      <point x="361" y="388"/>
      <point x="360" y="380" type="curve" smooth="yes"/>
      <point x="359" y="370"/>
      <point x="357" y="360"/>
      <point x="355" y="349" type="curve" smooth="yes"/>
      <point x="341" y="288"/>
      <point x="304" y="226"/>
      <point x="244" y="164" type="curve" smooth="yes"/>
      <point x="184" y="102"/>
      <point x="124" y="63"/>
      <point x="63" y="46" type="curve"/>
      <point x="61" y="0" type="line"/>
      <point x="131" y="20"/>
      <point x="200" y="66"/>
      <point x="269" y="138" type="curve" smooth="yes"/>
      <point x="338" y="210"/>
      <point x="379" y="280"/>
    </contour>
  </outline>
</glyph>
<glyph name="avowel" format="2">
  <advance width="695"/>
  <unicode hex="0C85"/>
  <anchor x="218" y="558" name="C"/>
  <anchor x="410" y="-71" name="N"/>
  <outline>
    <contour>
      <point x="713" y="488" type="curve" smooth="yes"/>
      <point x="596" y="488" type="line"/>
      <point x="569" y="361" type="line" smooth="yes"/>
      <point x="568" y="359"/>
      <point x="568" y="356"/>
      <point x="568" y="351" type="curve" smooth="yes"/>
      <point x="568" y="334"/>
      <point x="576" y="314"/>
      <point x="593" y="293" type="curve"/>
      <point x="388" y="293" type="line"/>
      <point x="374" y="225" type="line"/>
      <point x="667" y="225" type="line"/>
      <point x="681" y="293" type="line"/>
      <point x="658" y="313"/>
      <point x="646" y="333"/>
      <point x="646" y="353" type="curve" smooth="yes"/>
      <point x="646" y="356"/>
      <point x="647" y="360"/>
      <point x="648" y="367" type="curve" smooth="yes"/>
      <point x="659" y="420" type="line"/>
      <point x="689" y="420" type="line" smooth="yes"/>
      <point x="710" y="420"/>
      <point x="725" y="404"/>
      <point x="720" y="381" type="curve" smooth="yes"/>
      <point x="668" y="137" type="line"/>
      <point x="661" y="97"/>
      <point x="626" y="68"/>
      <point x="598" y="68" type="curve" smooth="yes"/>
      <point x="282" y="68" type="line" smooth="yes"/>
      <point x="263" y="68"/>
      <point x="234" y="81"/>
      <point x="234" y="112" type="curve" smooth="yes"/>
      <point x="234" y="117"/>
      <point x="234" y="120"/>
      <point x="235" y="123" type="curve" smooth="yes"/>
      <point x="286" y="361" type="line" smooth="yes"/>
      <point x="293" y="395"/>
      <point x="317" y="420"/>
      <point x="337" y="420" type="curve" smooth="yes"/>
      <point x="367" y="420" type="line"/>
      <point x="349" y="332" type="line"/>
      <point x="426" y="332" type="line"/>
      <point x="459" y="488" type="line"/>
      <point x="333" y="488" type="line" smooth="yes"/>
      <point x="280" y="488"/>
      <point x="227" y="447"/>
      <point x="215" y="391" type="curve" smooth="yes"/>
      <point x="153" y="98" type="line" smooth="yes"/>
      <point x="152" y="93"/>
      <point x="151" y="87"/>
      <point x="151" y="78" type="curve" smooth="yes"/>
      <point x="151" y="37"/>
      <point x="187" y="0"/>
      <point x="242" y="0" type="curve" smooth="yes"/>
      <point x="619" y="0" type="line" smooth="yes"/>
      <point x="676" y="0"/>
      <point x="726" y="46"/>
      <point x="738" y="98" type="curve" smooth="yes"/>
      <point x="801" y="396" type="line" smooth="yes"/>
      <point x="802" y="400"/>
      <point x="803" y="406"/>
      <point x="803" y="414" type="curve" smooth="yes"/>
      <point x="803" y="456"/>
      <point x="764" y="488"/>
    </contour>
  </outline>
</glyph>
<glyph name="aavowel" format="2">
  <advance width="744"/>
  <unicode hex="0C86"/>
  <anchor x="504" y="-130" name="N"/>
  <outline>
    <contour>
      <point x="787" y="486" type="curve" smooth="yes"/>
      <point x="724" y="486" type="line" smooth="yes"/>
      <point x="675" y="486"/>
      <point x="630" y="457"/>
      <point x="622" y="418" type="curve" smooth="yes"/>
      <point x="609" y="359" type="line" smooth="yes"/>
      <point x="608" y="352"/>
      <point x="612" y="340"/>
      <point x="621" y="322" type="curve"/>
      <point x="445" y="322" type="line"/>
      <point x="431" y="254" type="line"/>
      <point x="630" y="254" type="line"/>
      <point x="643" y="235"/>
      <point x="649" y="218"/>
      <point x="646" y="205" type="curve" smooth="yes"/>
      <point x="628" y="123" type="line"/>
      <point x="623" y="93"/>
      <point x="594" y="68"/>
      <point x="567" y="68" type="curve" smooth="yes"/>
      <point x="274" y="68" type="line" smooth="yes"/>
      <point x="259" y="68"/>
      <point x="236" y="78"/>
      <point x="236" y="110" type="curve" smooth="yes"/>
      <point x="236" y="115"/>
      <point x="236" y="120"/>
      <point x="237" y="123" type="curve" smooth="yes"/>
      <point x="291" y="377" type="line" smooth="yes"/>
      <point x="295" y="398"/>
      <point x="319" y="420"/>
      <point x="343" y="420" type="curve" smooth="yes"/>
      <point x="359" y="420" type="line"/>
      <point x="341" y="332" type="line"/>
      <point x="419" y="332" type="line"/>
      <point x="452" y="488" type="line"/>
      <point x="354" y="488" type="line" smooth="yes"/>
      <point x="291" y="488"/>
      <point x="228" y="447"/>
      <point x="216" y="391" type="curve" smooth="yes"/>
      <point x="154" y="98" type="line" smooth="yes"/>
      <point x="152" y="90"/>
      <point x="151" y="82"/>
      <point x="151" y="75" type="curve" smooth="yes"/>
      <point x="151" y="40"/>
      <point x="175" y="0"/>
      <point x="225" y="0" type="curve" smooth="yes"/>
      <point x="592" y="-2" type="line" smooth="yes"/>
      <point x="643" y="-2"/>
      <point x="687" y="32"/>
      <point x="696" y="73" type="curve" smooth="yes"/>
      <point x="723" y="203" type="line" smooth="yes"/>
      <point x="725" y="214"/>
      <point x="719" y="231"/>
      <point x="704" y="252" type="curve"/>
      <point x="734" y="252" type="line" smooth="yes"/>
      <point x="779" y="252"/>
      <point x="832" y="294"/>
      <point x="842" y="350" type="curve"/>
      <point x="854" y="404" type="line" smooth="yes"/>
      <point x="855" y="412"/>
      <point x="856" y="418"/>
      <point x="856" y="422" type="curve" smooth="yes"/>
      <point x="856" y="443"/>
      <point x="841" y="486"/>
    </contour>
    <contour>
      <point x="687" y="353" type="curve" smooth="yes"/>
      <point x="687" y="356"/>
      <point x="688" y="360"/>
      <point x="689" y="365" type="curve" smooth="yes"/>
      <point x="694" y="389" type="line"/>
      <point x="695" y="404"/>
      <point x="714" y="418"/>
      <point x="730" y="418" type="curve" smooth="yes"/>
      <point x="759" y="418" type="line" smooth="yes"/>
      <point x="768" y="418"/>
      <point x="773" y="413"/>
      <point x="773" y="402" type="curve" smooth="yes"/>
      <point x="773" y="397"/>
      <point x="773" y="392"/>
      <point x="772" y="389" type="curve" smooth="yes"/>
      <point x="764" y="355" type="line"/>
      <point x="758" y="322"/>
      <point x="735" y="321"/>
      <point x="732" y="321" type="curve" smooth="yes"/>
      <point x="699" y="321" type="line"/>
      <point x="689" y="337"/>
      <point x="687" y="342"/>
    </contour>
  </outline>
</glyph>
<glyph name="ivowel" format="2">
  <advance width="561"/>
  <unicode hex="0C87"/>
  <anchor x="387" y="-128" name="N"/>
  <outline>
    <contour>
      <point x="577" y="488" type="curve" smooth="yes"/>
      <point x="489" y="488" type="line" smooth="yes"/>
      <point x="457" y="488"/>
      <point x="425" y="465"/>
      <point x="409" y="439" type="curve"/>
      <point x="409" y="471"/>
      <point x="377" y="488"/>
      <point x="342" y="488" type="curve" smooth="yes"/>
      <point x="249" y="488" type="line" smooth="yes"/>
      <point x="186" y="488"/>
      <point x="137" y="439"/>
      <point x="126" y="391" type="curve" smooth="yes"/>
      <point x="111" y="318" type="line" smooth="yes"/>
      <point x="110" y="313"/>
      <point x="109" y="307"/>
      <point x="109" y="299" type="curve" smooth="yes"/>
      <point x="109" y="260"/>
      <point x="137" y="225"/>
      <point x="183" y="225" type="curve" smooth="yes"/>
      <point x="218" y="225" type="line"/>
      <point x="232" y="293" type="line"/>
      <point x="216" y="293" type="line" smooth="yes"/>
      <point x="199" y="293"/>
      <point x="191" y="312"/>
      <point x="191" y="321" type="curve" smooth="yes"/>
      <point x="191" y="322"/>
      <point x="191" y="322"/>
      <point x="191" y="326" type="curve" smooth="yes"/>
      <point x="191" y="328"/>
      <point x="191" y="330"/>
      <point x="192" y="332" type="curve" smooth="yes"/>
      <point x="202" y="381" type="line" smooth="yes"/>
      <point x="206" y="400"/>
      <point x="227" y="420"/>
      <point x="253" y="420" type="curve" smooth="yes"/>
      <point x="318" y="420" type="line" smooth="yes"/>
      <point x="346" y="420"/>
      <point x="363" y="398"/>
      <point x="358" y="377" type="curve"/>
      <point x="349" y="332" type="line"/>
      <point x="426" y="332" type="line"/>
      <point x="436" y="381" type="line" smooth="yes"/>
      <point x="440" y="398"/>
      <point x="464" y="420"/>
      <point x="493" y="420" type="curve" smooth="yes"/>
      <point x="546" y="420" type="line" smooth="yes"/>
      <point x="573" y="420"/>
      <point x="588" y="407"/>
      <point x="584" y="387" type="curve" smooth="yes"/>
      <point x="555" y="250" type="line"/>
      <point x="548" y="291"/>
      <point x="511" y="293"/>
      <point x="505" y="293" type="curve" smooth="yes"/>
      <point x="421" y="293" type="line" smooth="yes"/>
      <point x="380" y="293"/>
      <point x="345" y="271"/>
      <point x="339" y="244" type="curve" smooth="yes"/>
      <point x="328" y="191" type="line" smooth="yes"/>
      <point x="327" y="188"/>
      <point x="327" y="185"/>
      <point x="327" y="180" type="curve" smooth="yes"/>
      <point x="327" y="153"/>
      <point x="349" y="127"/>
      <point x="392" y="127" type="curve" smooth="yes"/>
      <point x="470" y="127" type="line"/>
      <point x="460" y="78" type="line" smooth="yes"/>
      <point x="459" y="70"/>
      <point x="458" y="65"/>
      <point x="458" y="62" type="curve" smooth="yes"/>
      <point x="458" y="36"/>
      <point x="480" y="0"/>
      <point x="531" y="0" type="curve" smooth="yes"/>
      <point x="580" y="0" type="line"/>
      <point x="594" y="68" type="line"/>
      <point x="559" y="68" type="line" smooth="yes"/>
      <point x="550" y="68"/>
      <point x="536" y="79"/>
      <point x="541" y="94" type="curve"/>
      <point x="551" y="143" type="line"/>
      <point x="598" y="182"/>
      <point x="627" y="222"/>
      <point x="636" y="264" type="curve" smooth="yes"/>
      <point x="662" y="387" type="line" smooth="yes"/>
      <point x="664" y="395"/>
      <point x="665" y="403"/>
      <point x="665" y="411" type="curve" smooth="yes"/>
      <point x="665" y="443"/>
      <point x="643" y="488"/>
    </contour>
    <contour>
      <point x="484" y="195" type="line"/>
      <point x="420" y="195" type="line" smooth="yes"/>
      <point x="405" y="195"/>
      <point x="406" y="225"/>
      <point x="427" y="225" type="curve" smooth="yes"/>
      <point x="472" y="225" type="line" smooth="yes"/>
      <point x="485" y="225"/>
      <point x="490" y="218"/>
      <point x="487" y="205" type="curve"/>
    </contour>
  </outline>
</glyph>
<glyph name="iivowel" format="2">
  <advance width="871"/>
  <unicode hex="0C88"/>
  <anchor x="542" y="-128" name="N"/>
  <outline>
    <contour>
      <point x="904" y="449" type="curve" smooth="yes"/>
      <point x="822" y="449" type="line" smooth="yes"/>
      <point x="784" y="449"/>
      <point x="738" y="419"/>
      <point x="726" y="367" type="curve"/>
      <point x="715" y="313" type="line" smooth="yes"/>
      <point x="713" y="305"/>
      <point x="712" y="298"/>
      <point x="712" y="292" type="curve" smooth="yes"/>
      <point x="712" y="277"/>
      <point x="717" y="265"/>
      <point x="726" y="254" type="curve"/>
      <point x="624" y="254" type="line"/>
      <point x="642" y="338" type="line" smooth="yes"/>
      <point x="650" y="373"/>
      <point x="611" y="407"/>
      <point x="600" y="416" type="curve"/>
      <point x="660" y="428"/>
      <point x="702" y="476"/>
      <point x="710" y="518" type="curve" smooth="yes"/>
      <point x="718" y="557" type="line"/>
      <point x="639" y="557" type="line"/>
      <point x="631" y="518" type="line"/>
      <point x="624" y="489"/>
      <point x="600" y="488"/>
      <point x="596" y="488" type="curve" smooth="yes"/>
      <point x="245" y="488" type="line"/>
      <point x="230" y="420" type="line"/>
      <point x="298" y="420" type="line"/>
      <point x="251" y="387"/>
      <point x="225" y="353"/>
      <point x="218" y="318" type="curve" smooth="yes"/>
      <point x="204" y="254" type="line"/>
      <point x="127" y="254" type="line"/>
      <point x="113" y="186" type="line"/>
      <point x="190" y="186" type="line"/>
      <point x="168" y="84" type="line" smooth="yes"/>
      <point x="167" y="76"/>
      <point x="166" y="70"/>
      <point x="166" y="67" type="curve" smooth="yes"/>
      <point x="166" y="27"/>
      <point x="196" y="0"/>
      <point x="232" y="0" type="curve" smooth="yes"/>
      <point x="477" y="0" type="line" smooth="yes"/>
      <point x="535" y="0"/>
      <point x="579" y="48"/>
      <point x="590" y="94" type="curve" smooth="yes"/>
      <point x="610" y="186" type="line"/>
      <point x="767" y="186" type="line"/>
      <point x="803" y="133" type="line"/>
      <point x="814" y="122"/>
      <point x="818" y="111"/>
      <point x="816" y="98" type="curve"/>
      <point x="809" y="70"/>
      <point x="790" y="68"/>
      <point x="784" y="68" type="curve" smooth="yes"/>
      <point x="682" y="68" type="line"/>
      <point x="668" y="0" type="line"/>
      <point x="828" y="0" type="line" smooth="yes"/>
      <point x="855" y="0"/>
      <point x="878" y="26"/>
      <point x="885" y="55" type="curve"/>
      <point x="895" y="104" type="line" smooth="yes"/>
      <point x="898" y="117"/>
      <point x="884" y="146"/>
      <point x="855" y="191" type="curve"/>
      <point x="911" y="211"/>
      <point x="946" y="251"/>
      <point x="954" y="289" type="curve" smooth="yes"/>
      <point x="970" y="361" type="line" smooth="yes"/>
      <point x="971" y="369"/>
      <point x="972" y="375"/>
      <point x="972" y="380" type="curve" smooth="yes"/>
      <point x="972" y="413"/>
      <point x="951" y="449"/>
    </contour>
    <contour>
      <point x="878" y="299" type="line" smooth="yes"/>
      <point x="874" y="281"/>
      <point x="851" y="251"/>
      <point x="820" y="256" type="curve"/>
      <point x="794" y="275" type="line"/>
      <point x="790" y="282"/>
      <point x="789" y="290"/>
      <point x="791" y="299" type="curve" smooth="yes"/>
      <point x="803" y="357" type="line" smooth="yes"/>
      <point x="804" y="367"/>
      <point x="816" y="381"/>
      <point x="831" y="381" type="curve" smooth="yes"/>
      <point x="870" y="381" type="line" smooth="yes"/>
      <point x="888" y="381"/>
      <point x="893" y="366"/>
      <point x="889" y="352" type="curve" smooth="yes"/>
    </contour>
    <contour>
      <point x="546" y="256" type="line"/>
      <point x="283" y="256" type="line"/>
      <point x="298" y="324" type="line" smooth="yes"/>
      <point x="306" y="361"/>
      <point x="334" y="394"/>
      <point x="381" y="423" type="curve"/>
      <point x="533" y="423" type="line"/>
      <point x="556" y="408"/>
      <point x="567" y="388"/>
      <point x="567" y="362" type="curve" smooth="yes"/>
      <point x="567" y="358"/>
      <point x="566" y="352"/>
      <point x="565" y="344" type="curve" smooth="yes"/>
    </contour>
    <contour>
      <point x="458" y="70" type="curve" smooth="yes"/>
      <point x="283" y="70" type="line" smooth="yes"/>
      <point x="262" y="70"/>
      <point x="249" y="93"/>
      <point x="253" y="115" type="curve" smooth="yes"/>
      <point x="269" y="188" type="line"/>
      <point x="532" y="188" type="line"/>
      <point x="519" y="125" type="line"/>
      <point x="510" y="90"/>
      <point x="481" y="70"/>
    </contour>
  </outline>
</glyph>
